<svg xmlns="http://www.w3.org/2000/svg" width="470" height="204" viewBox="0 0 470 204">
    <path fill="#1A2633" fill-rule="evenodd" d="M469.352 51.97L495.896 1l3.442 1.853-26.61 50.905-3.376-1.787zm9.77 147.036l3.31-1.853 17.542 31.046v7.877l-20.852-37.07zm7.566 73.28l3.575-1.39 5.23 13.106-3.575 1.457-5.23-13.174zm-21.924-30.802l16.152-4.964 1.059 3.64-16.085 4.965-1.126-3.64zM411.92 156.23l55.67-14.43.927 3.706-55.67 14.431-.927-3.707zm5.78 27.763l55.67-14.497.926 3.773-55.67 14.365-.927-3.641zM467.682.02h4.303l-20.653 39.585-3.442-1.72L467.683.02zm-127.492 0h3.906l-.331 1.655-3.773-.728.198-.927zm31.218 0h3.905l-1.456 7.414-3.773-.662L371.409.02zM440.874 64.6l.397-3.84 57.06 6.157-.33 3.84-57.127-6.157zM434.5 83.606l.794-3.773 56.134 12.048-.728 3.707-56.2-11.982zm-60.946 25.44l2.25-3.046 46.006 34.422-2.317 3.045-45.94-34.422zM391.903 84.5l2.317-3.045 45.94 34.488-2.251 3.045L391.903 84.5zm33.362 177.002l4.634-57.326 3.84.331-4.634 57.326-3.84-.33zm25.856 7.209l7.679-60.636 3.84.463-7.746 60.636-3.773-.463zm25.2-132.618l2.715-2.714 20.918 20.918v5.428l-23.632-23.632zm21.627-21.686l2.052-2.052v4.104l-2.052-2.052zm-146.02 99.136l37.797-34.82 2.582 2.847-37.798 34.753-2.581-2.78zm10.068 19.303l45.41-35.283 2.317 3.045-45.41 35.217-2.317-2.98zm9.353-159.308l47.198-32.768 2.184 3.178-47.263 32.7-2.119-3.11zm-17.515-25.201l47.264-32.701 2.184 3.11-47.264 32.768-2.184-3.177zm-.357 224.961l2.647-2.714 36.21 35.35-2.715 2.78-36.142-35.416zm18.587-12.63l2.516-2.913 33.031 28.862-2.515 2.913-33.032-28.862zM410.61.02h33.76l-50.375 5.759-.397-3.773L410.61.02zm5.772 70.353v-9.598h3.84v9.598h-3.84zm-63.217 24.824v-3.84h15.292v3.84h-15.292zm43.504 150.517l5.23-13.107 3.574 1.39-5.23 13.174-3.574-1.457zm59.159-137.443l3.111-2.25 8.01 10.723-3.045 2.25-8.076-10.723zm-18.886-88.24c-.463.331-.926.53-1.39.53-.463 0-.927-.199-1.324-.53-.33-.397-.595-.86-.595-1.39 0-.53.264-.993.53-1.39a2.103 2.103 0 0 1 2.713 0c.397.397.596.86.596 1.39 0 .53-.199.993-.53 1.39zm-83.75-7.143c-.53 0-1.06-.198-1.39-.595-.265-.331-.53-.86-.53-1.324 0-.53.265-.993.53-1.39.728-.662 1.986-.662 2.714 0 .33.397.596.86.596 1.39 0 .53-.265.993-.53 1.39-.397.33-.86.53-1.39.53zm126.413 90.02c0-.463.133-.992.53-1.323.86-.794 1.986-.728 2.714-.066.463.397.596.926.596 1.39 0 .463-.133.993-.53 1.324-.463.463-.927.596-1.39.596-.463 0-.927-.133-1.324-.53-.463-.397-.596-.927-.596-1.39zM469.491 190.5c-.331.397-.927.53-1.39.53-.398 0-.927-.133-1.324-.53-.331-.397-.53-.86-.53-1.39 0-.464.132-.993.463-1.324.86-.795 2.052-.728 2.714-.066.398.397.596.926.596 1.39 0 .53-.198.993-.53 1.39zM406.85 309.772c-.53 0-.993-.198-1.39-.53-.397-.396-.53-.926-.53-1.39 0-.463.133-.992.53-1.257.662-.794 1.986-.794 2.714-.132.397.397.596.86.596 1.39 0 .53-.199.993-.53 1.324-.397.463-.927.595-1.39.595zm-75.244-86.723c-.398.264-.86.53-1.39.53-.53 0-.993-.266-1.39-.597-.265-.33-.53-.794-.53-1.324s.265-.992.596-1.39c.53-.595 2.052-.662 2.714.067.264.33.53.794.53 1.323 0 .53-.266.993-.53 1.39zm23.525-56.923c0 .53-.264.993-.53 1.39-.396.265-.926.53-1.39.53-.529 0-.992-.265-1.39-.53-.33-.397-.529-.926-.529-1.39 0-.463.199-.993.53-1.39.662-.662 1.986-.662 2.78 0 .265.397.53.86.53 1.39zm39.665-27.438c-.331.463-.927.596-1.39.596-.53 0-.993-.199-1.39-.53-.331-.463-.53-.927-.53-1.39 0-.397.199-.86.53-1.258.794-.794 2.052-.794 2.714-.132.463.397.595.993.595 1.39 0 .596-.132 1.06-.53 1.324zm5.752 28.802c-.463.397-.927.53-1.39.53-.463 0-.993-.133-1.324-.53-.33-.331-.596-.86-.596-1.39 0-.397.199-.993.53-1.324.86-.728 1.986-.728 2.714-.066.463.397.596.993.596 1.39 0 .53-.199 1.059-.53 1.39zm69.942 116.777c-.463.463-.927.596-1.456.596-.464 0-.993-.199-1.324-.53-.331-.397-.596-.927-.596-1.39 0-.463.265-.927.596-1.324.728-.728 1.92-.728 2.714-.066.397.397.53.927.53 1.39 0 .463-.133.993-.464 1.324zm-113.445-28.12c0-.53.198-.993.53-1.39.793-.662 1.985-.662 2.647 0 .397.397.662.86.662 1.39 0 .463-.199.993-.53 1.324-.397.463-.86.595-1.39.595-.53 0-.993-.264-1.39-.53-.397-.396-.53-.926-.53-1.39zm110.605 243.84l6.885-13.172 3.376 1.72-5.958 11.453h-4.303zM403.91 457l-3.772.728-10.989-56.4 3.773-.794L403.911 457zm26.307-5.17l-10.989-56.4 3.774-.728 10.988 56.4-3.773.728zm-51.42-47.066l-1.788 3.376-50.772-26.942 1.787-3.376 50.772 26.942zm-38.626 95.224l9.599-48.787 3.773.728-9.4 48.059h-3.972zm31.225 0l9.598-49.714 3.773.662-9.466 49.052h-3.905zm102.88-25.989l-3.706.927-13.173-53.752 3.707-.926 13.172 53.751zm-1.198-69.685l3.443-1.655 23.433 47.397v5.097l-1.39.662-25.486-51.5zm-57.662-71.4l3.31 1.92-23.831 41.373-3.31-1.92 23.83-41.372zm31.74 141.668l-.198 3.905-56.796-3.575.265-3.839 56.73 3.509zm-37.043 25.406l40.512-4.568.463 3.707-7.281.86h-33.694zm77.899-120.63l-37.136 22.838-1.985-3.244 37.135-22.838 1.986 3.244zm-7.89-23.142l1.588 3.442-52.162 24.095-1.588-3.508 52.162-24.03zm-101.266 77.51l-2.118 3.243-8.937-5.958 2.119-3.244 8.936 5.958zm8.506-95.999l2.979 2.383-28.398 36.21-3.045-2.383 28.464-36.21zm22.592 56.823l-3.64-1.191 5.03-15.16 3.641 1.192-5.03 15.16zm-62.481-38.784c0-.53.198-1.126.595-1.39.596-.662 1.92-.662 2.648 0 .331.397.596.86.596 1.39 0 .463-.265.993-.596 1.324-.33.33-.794.595-1.324.595s-.993-.264-1.39-.53c-.33-.396-.53-.86-.53-1.39zm26.246 26.18c-.33.398-.86.596-1.39.596-.53 0-.993-.198-1.39-.53-.265-.33-.463-.86-.463-1.39 0-.53.198-.993.463-1.39.794-.662 2.052-.662 2.78 0 .397.464.53.993.53 1.39 0 .464-.133.927-.53 1.324zm48.449-43.444c0-.464.132-.993.53-1.324.793-.728 1.985-.728 2.713-.066.331.397.596.86.596 1.39 0 .53-.265.993-.662 1.39-.265.265-.794.53-1.258.53-.53 0-.993-.265-1.39-.53-.397-.464-.53-.927-.53-1.39zm31.158 104.014c.794-.794 1.92-.794 2.714 0 .33.397.595.794.595 1.324 0 .463-.198.993-.53 1.324-.396.463-.926.596-1.39.596-.529 0-.992-.199-1.39-.53-.397-.397-.529-.927-.529-1.39 0-.53.265-.927.53-1.324zm-122.561 7.632c.86-.662 1.986-.662 2.714 0 .33.398.596.927.596 1.39 0 .398-.265.927-.53 1.324-.463.398-.927.596-1.39.596-.463 0-.927-.198-1.324-.596-.397-.397-.596-.794-.596-1.323 0-.53.199-.993.53-1.39zm138.11-97.811l-3.045 2.25-35.084-47.727 3.112-2.25 35.017 47.727zm-16.45-67.13l3.112-2.25 35.017 47.727-3.045 2.25-35.084-47.727zm42.597 66.58l-2.317-3.045 7.282-5.56v4.766l-4.965 3.84zm-97.48-32.092l-2.58 15.292-3.774-.662 2.582-15.225 3.773.595zm-233.53-145.32l-.993 3.706-61.76-16.747.993-3.707 61.76 16.747zm-54.333-35.396l.596-3.773 63.15 10.194-.596 3.773-63.15-10.194zM78.071 251.526L55.233 295.15l-3.376-1.788 22.838-43.623 3.376 1.787zm-28.12-9.73l3.376 1.787-24.956 47.727-3.376-1.787 24.956-47.728zm90.244 40.015l-2.25-3.045 39.452-29.126 2.25 3.11-39.452 29.061zm14.934 20.395l31.376-33.429 2.78 2.582-31.376 33.495-2.78-2.648zm60.635-65.488l-3.773.53-7.414-57.062 3.84-.463 7.347 56.995zm-28.477 4.495l-12.71-53.884 3.707-.86 12.776 53.883-3.773.86zm-176.543 6.01l-3.31 1.854L.02 235.97v-7.811l10.724 19.065zm22.208-8.3l-3.574 1.39-21.646-53.156 3.508-1.456 21.712 53.221zm3.489-45.285l-1.854-3.31 43.49-24.89 1.92 3.31-43.556 24.89zm61.283-3.138l1.258 3.64-47.66 16.55-1.258-3.641 47.66-16.55zm26.439 105.888l-2.714 2.714-10.393-10.393 2.714-2.714 10.393 10.393zm107.534-83.712l-1.39-3.575 13.107-5.23 1.456 3.509-13.173 5.296zm-156.565-.874l2.581 15.291-3.839.596-2.515-15.225 3.773-.662zm134.39 92.244v-3.839h13.437v3.84h-13.437zM82.433 284.168l3.31 1.92-9.532 16.747-3.376-1.92 9.598-16.747zm32.19-92.57l-1.39-3.574 13.107-5.23 1.457 3.509-13.173 5.296zm20.852 59.862l-1.985 3.244-37.202-22.838 1.986-3.244 37.201 22.838zm20.878-18.68l-1.588 3.442-52.162-24.03 1.522-3.442 52.228 24.03zm-47.965 21.877l-.794 3.774-13.305-2.714.728-3.774 13.371 2.714zm51.196-47.966l-13.372-2.714.795-3.707 13.305 2.648-.728 3.773zm51.493-147.935l-1.39 3.574L156.4 40.618l1.456-3.508 53.221 21.646zm11.571-28.378l-1.39 3.574-53.287-21.712 1.456-3.509 53.221 21.647zM45.681.026L31.98 10.486 29.662 7.44 39.327.026h6.354zM277.34 224.83l-3.641 1.192-19.726-61.497 3.707-1.191 19.66 61.496zm8.85-60.377l3.84-.464 6.09 53.62-3.774.396-6.156-53.552zm-85.55-11.346l-3.178-2.185 32.899-47.132 3.177 2.185-32.899 47.132zm35.486 6.593l14.497-45.477 3.641 1.191-14.497 45.477-3.64-1.191zM39.287 95.019l-3.84.463-6.553-57.062 3.773-.463 6.62 57.061zm29.927-7.726l-3.707.927L51.54 32.483l3.773-.927 13.9 55.737zM246.756.026l-3.045 11.386-3.707-.993 2.78-10.393h3.972zm19.945 0l-16.416 28.796-3.31-1.92L262.332.026h4.37zm-3.422 231.78l1.588 3.509-52.03 24.36-1.588-3.442 52.03-24.427zm12.987 27.77l1.589 3.442-51.963 24.426-1.655-3.508 52.03-24.36zm-87.007-148.85l-2.846 2.582-35.084-39.254 2.847-2.582 35.083 39.255zm-21.076 5.462l-2.582 2.846-39.717-36.342 2.581-2.846 39.718 36.342zM58.775 130.513l-2.979-2.383 32.767-41.307 3.045 2.383-32.833 41.307zm15.417 22.235l35.348-48.654 3.111 2.25L77.303 155l-3.111-2.25zm-54.46 21.269l-2.713 2.714L.007 159.719v-5.429l19.726 19.727zm21.686-21.693l-2.714 2.714L.046 116.38v-3.906l.728-.794 40.644 40.644zm68.718-91.761l-3.84.397-6.09-57.458 3.774-.397 6.156 57.458zm24.89-57.081l-4.171 45.94-3.84-.33 4.171-45.941 3.84.33zm190.728 36.62l-2.979 2.383L289.48.053h4.832l31.443 40.049zm20.295-17l-2.978 2.384L323.08 0h4.898l18.071 23.103zM219.444 62.245l-.993-3.707 55.67-14.43.927 3.707-55.604 14.43zM226.17 88.2l55.604-14.43.993 3.706-55.604 14.431-.993-3.707zm92.825 210.577l-3.177 2.119-32.237-47.53 3.177-2.184 32.237 47.595zm25.373-17.224l-3.177 2.184-32.304-47.595 3.244-2.118 32.237 47.529zM284.772 98.639l-2.912-2.515 30.913-36.143 2.913 2.515-30.914 36.143zm23.175 14.093l30.318-48.786 3.243 1.986-30.317 48.786-3.244-1.986zm-7.116 35.263l43.49-20.918 1.722 3.442-43.557 20.918-1.655-3.442zm16.78 30.252l-1.853-3.376 50.11-28.001 1.92 3.376-50.176 28zm-109.963-97.19l2.714 2.714-8.473 8.407-2.714-2.647 8.473-8.474zM131.921 119.1l-3.442 1.722-5.56-11.121 3.441-1.655 5.56 11.054zM14.88 44.788l-1.92 3.31L.053 40.353l1.986-3.243 12.842 7.678zm105.244 41.956l-3.575 1.39-5.23-13.107 3.51-1.39 5.295 13.107zM270.514 281.91l3.574-1.39 5.23 13.107-3.575 1.39-5.23-13.107zM87.312 22.877l-.728 3.774-13.372-2.648.728-3.773 13.372 2.647zm232.206 189.216l-8.406 8.473-2.714-2.714 8.406-8.473 2.714 2.714zm-11.928-91.536l-.794 3.773-13.306-2.648.728-3.773 13.372 2.648zM21.831 72.267c-.53 0-.993-.199-1.39-.53-.265-.397-.53-.927-.53-1.39 0-.464.2-.993.53-1.258.86-.927 2.118-.794 2.78-.132.331.397.53.86.53 1.39 0 .53-.199.993-.596 1.39-.198.331-.794.53-1.324.53zM81.208 7.136c-.463 0-.992-.132-1.323-.53a2.019 2.019 0 0 1-.596-1.39c0-.53.265-.993.53-1.39.728-.662 2.118-.662 2.78.133.33.198.53.728.53 1.257 0 .53-.2.993-.53 1.39-.398.331-.927.53-1.39.53zM37.182 135.491c0-.53.199-.993.53-1.39.661-.662 1.985-.662 2.647 0 .464.397.662.926.662 1.39 0 .53-.265.993-.595 1.39-.331.265-.795.53-1.324.53-.53 0-.993-.265-1.39-.596a1.848 1.848 0 0 1-.53-1.324zm36.361 21.07c0-.53.199-.993.596-1.39.596-.596 2.052-.662 2.714.066.33.331.53.794.53 1.324s-.2.993-.596 1.39c-.331.265-.795.53-1.324.53-.53 0-.993-.265-1.39-.596a1.848 1.848 0 0 1-.53-1.324zm72.788-137.92c-.53 0-.992-.199-1.39-.53-.264-.33-.53-.86-.53-1.39 0-.53.266-.993.53-1.39.728-.662 1.986-.662 2.714 0 .464.463.596.927.596 1.39 0 .53-.265.993-.53 1.39-.397.331-.926.53-1.39.53zm145.584 19.17c-.53 0-.993-.264-1.39-.53-.265-.396-.53-.86-.53-1.39 0-.529.265-.992.53-1.39a2.042 2.042 0 0 1 2.78 0c.265.398.53.927.53 1.39 0 .464-.265.994-.53 1.39-.397.266-.86.53-1.39.53zm-12.868 80.965c.728-.662 1.985-.662 2.78 0 .265.397.53.86.53 1.39 0 .53-.265.993-.53 1.39-.397.265-.927.53-1.39.53-.464 0-1.06-.265-1.39-.53-.331-.397-.53-.86-.53-1.39 0-.53.199-.993.53-1.39zm-42.147 51.72c.662-.663 2.052-.663 2.78 0 .265.397.53.86.53 1.39 0 .529-.265.992-.596 1.39-.331.264-.86.53-1.324.53-.463 0-.993-.266-1.39-.53-.331-.398-.53-.861-.53-1.39 0-.53.199-.993.53-1.39zm28.186 79.898c-.53 0-.993-.198-1.39-.53-.265-.396-.53-.86-.53-1.39 0-.529.265-1.059.596-1.39.662-.661 1.92-.661 2.714 0 .265.331.53.861.53 1.39 0 .53-.265.994-.53 1.39-.397.332-.86.53-1.39.53zm-57.438 36.395c-.53 0-.993-.199-1.39-.53-.33-.397-.53-.926-.53-1.39 0-.53.2-.993.53-1.39.662-.662 1.986-.662 2.714 0 .331.397.596.86.596 1.39 0 .53-.199.993-.53 1.324a2.019 2.019 0 0 1-1.39.596zm-166.653 7.659c0-.463.132-.927.53-1.324.86-.794 1.919-.728 2.713-.066.464.463.596.927.596 1.39 0 .463-.132.927-.53 1.324-.463.463-.926.596-1.39.596-.463 0-.926-.133-1.323-.53-.464-.463-.596-.927-.596-1.39zm84.266 19.17c0-.53.2-.992.53-1.39.86-.662 1.986-.662 2.714 0 .397.398.596.86.596 1.39 0 .464-.133.993-.53 1.324a2.019 2.019 0 0 1-1.39.596c-.463 0-.993-.198-1.324-.53-.463-.397-.596-.926-.596-1.39zM213.367 1.417c-.53 0-.992-.265-1.39-.53-.132-.265-.198-.596-.264-.86h3.376c-.133.264-.133.595-.331.794-.398.463-.927.596-1.39.596zm-19.68 74.146c-.397.331-.86.53-1.39.53-.53 0-.992-.199-1.39-.596-.264-.331-.53-.794-.53-1.324s.266-.993.597-1.39c.595-.596 1.92-.662 2.714 0 .33.397.53.86.53 1.39 0 .53-.2.993-.53 1.39zm-13.477 63.224c-.265.265-.86.53-1.324.53-.463 0-.926-.133-1.324-.53-.33-.397-.595-.86-.595-1.39 0-.463.198-.927.53-1.324.926-.794 2.117-.728 2.78-.066.33.397.529.86.529 1.39 0 .53-.199 1.06-.596 1.39zM35.242 16.734c0-.53.199-.993.53-1.39.794-.662 2.118-.662 2.78.067.331.33.53.794.53 1.323 0 .53-.199.993-.53 1.39-.397.265-.86.53-1.39.53-.463 0-.993-.198-1.324-.53a2.019 2.019 0 0 1-.596-1.39zm-23.525 234.21c.33.397.53.927.53 1.39 0 .463-.2.993-.53 1.39-.331.265-.861.53-1.39.53-.53 0-1.06-.265-1.39-.596a2.132 2.132 0 0 1-.464-1.324c0-.53.199-.993.463-1.39.662-.596 2.052-.662 2.78 0zm-2.748 61.284c.861-.662 1.986-.662 2.78 0 .265.398.53.86.53 1.39 0 .464-.198.993-.53 1.324-.397.331-.86.596-1.39.596-.463 0-.992-.198-1.323-.53-.464-.397-.596-.926-.596-1.39 0-.53.265-.992.53-1.39zm19.614-199.72c-.53 0-.993-.265-1.39-.53-.397-.397-.53-.86-.53-1.39 0-.53.133-.993.53-1.39.596-.596 1.986-.729 2.714 0 .331.397.53.86.53 1.39 0 .463-.199.993-.464 1.324-.463.463-.926.595-1.39.595zm264.722 190.989c-.397.265-.86.53-1.39.53-.53 0-.993-.265-1.39-.53-.265-.397-.53-.86-.53-1.39 0-.53.265-1.06.596-1.39.596-.662 1.92-.662 2.714 0 .265.33.53.86.53 1.39 0 .53-.265.993-.53 1.39zM84.505 56.393c-.331.33-.86.53-1.39.53-.463 0-.993-.133-1.324-.53-.397-.331-.596-.927-.596-1.39 0-.53.265-.993.53-1.39.794-.663 2.118-.663 2.78.066.331.33.53.794.53 1.324s-.199 1.059-.53 1.39zM203.802 254.24c0-.53.199-.993.53-1.39.86-.662 2.118-.662 2.78 0 .265.397.53.86.53 1.39 0 .464-.265.993-.53 1.324-.397.331-.86.596-1.39.596-.463 0-.993-.199-1.324-.53-.463-.397-.596-.926-.596-1.39zm-5.752-84.294c0-.463.198-.993.53-1.324.794-.728 1.985-.728 2.713-.066.464.397.596.927.596 1.39 0 .53-.198.993-.53 1.39-.397.265-.86.53-1.39.53-.529 0-1.059-.265-1.39-.596a1.848 1.848 0 0 1-.53-1.324zM306.683 190.4c-.33.463-.927.595-1.39.595-.53 0-.993-.198-1.39-.53a2.332 2.332 0 0 1-.463-1.39c0-.529.198-.992.463-1.39.728-.661 2.052-.661 2.714 0 .397.398.596.861.596 1.39 0 .464-.133.927-.53 1.325zM198.05 35.87c0-.529.198-.992.53-1.39.794-.661 1.985-.661 2.713 0 .398.398.596.861.596 1.39 0 .464-.132.994-.53 1.325-.397.463-.926.595-1.39.595-.529 0-.992-.264-1.39-.53-.33-.396-.53-.926-.53-1.39zm82.354-22.983c-.53 0-.993-.198-1.39-.53-.265-.396-.53-.86-.53-1.39 0-.529.265-1.058.596-1.39.662-.661 1.92-.661 2.714 0 .33.332.53.861.53 1.39 0 .53-.2.994-.53 1.39-.398.332-.86.53-1.39.53zm10.12 55.016c-.264-.397-.529-.86-.529-1.39 0-.53.265-.993.53-1.39a2.194 2.194 0 0 1 2.78 0c.265.397.53.927.53 1.39 0 .463-.265.993-.53 1.39-.397.265-.86.53-1.39.53-.53 0-.993-.265-1.39-.53zM33.245 389.83l1.125 57.459-3.906.066-1.059-57.458 3.84-.067zM58 444.072l-3.773-.398 6.09-54.612 3.84.464L58 444.072zm-18.746 55.916l30.053-22.904 2.316 3.045-26.014 19.859h-6.355zm15.708-39.11l2.052 3.244L8.493 494.97l-1.986-3.244 48.455-30.847zm175.12-99.035l1.589 3.442-52.03 24.294-1.655-3.442 52.096-24.294zm12.736 25.18l-49.911 30.385-1.986-3.244 49.91-30.384 1.987 3.244zM.013 455.187v-5.23l2.052 4.17-2.052 1.06zm111.122-21.587l3.31 1.854-28.662 51.302-3.376-1.986 28.728-51.17zm-11.988 56.367l32.436-47.463 3.178 2.118-32.436 47.463-3.178-2.118zm109.534-44.73l1.456 3.51-51.434 20.586-1.456-3.508 51.434-20.587zm4.627 34.906l.132 3.906-51.698 2.052-.133-3.906 51.699-2.052zm29.477 19.846l11.187-41.836 3.707 1.059-10.923 40.777h-3.971zm19.488 0l13.172-23.103 3.376 1.986-12.113 21.117h-4.435zm47.773-64.065l-57.26 4.898-.33-3.707 57.259-5.03.33 3.839zm-2.49-30.768l-53.551 10.326-.728-3.773 53.552-10.326.728 3.773zm-20.268 92.052l3.045-2.383 4.038 5.164h-4.899l-2.184-2.78zm20.302-17.065l2.979-2.317 17.41 22.176h-4.833l-15.556-19.859zm4.296-71.856l1.787-3.376 50.706 26.876-1.721 3.442-50.772-26.942zM98.624 389.28l2.714-2.714 39.056 39.122-2.648 2.648-39.122-39.056zm62.608 23.632l-3.045 2.317-35.414-45.146 2.978-2.45 35.481 45.279zm-94.99-56.763l-.728 3.773-13.372-2.648.728-3.773 13.372 2.648zm-18.297 14.417l3.111 9.4-3.574 1.192-3.177-9.4 3.64-1.192zm45.51 47l-8.937 5.957-2.118-3.177 8.936-5.958 2.119 3.178zm73.9-11.975v-3.84h13.438v3.84h-13.438zm53.678 29.815l8.473 8.406-2.714 2.714-8.473-8.406 2.714-2.714zm66.255 29.477l8.473-8.407 2.648 2.714-8.407 8.407-2.714-2.714zm7.791-85.294l5.56-11.055 3.443 1.655-5.56 11.12-3.443-1.72zM19.925 473.416l-2.714-2.714 8.473-8.473 2.714 2.648-8.473 8.54zm343.613-149.875l-45.344 35.283-2.316-3.045 45.343-35.283 2.317 3.045zM183.54 438.121l-2.714 2.714-8.473-8.474 2.714-2.714 8.473 8.474zM13.04 409l-2.316 3.045L0 404.036v-.066l2.317-3.045L13.04 409zm93.409-36.428l-3.773.728-2.648-13.305 3.773-.729 2.648 13.306zM.788 392.127c0-.53.198-.993.53-1.39.794-.662 1.985-.662 2.647 0 .397.397.662.86.662 1.39 0 .53-.265.993-.596 1.39-.33.331-.794.53-1.324.53s-1.059-.199-1.39-.596c-.33-.33-.53-.86-.53-1.324zm142.346 58.021c.596-.662 1.92-.662 2.714 0 .265.398.464.927.464 1.39 0 .398-.199.927-.464 1.324a2.019 2.019 0 0 1-1.39.596c-.463 0-1.059-.198-1.39-.596-.331-.397-.53-.794-.53-1.323 0-.53.199-.993.596-1.39zm125.798-65.68c0-.53.198-1.059.596-1.39.662-.595 1.92-.662 2.714 0 .264.331.53.86.53 1.39 0 .53-.266 1.126-.663 1.39-.265.332-.728.53-1.257.53-.53 0-.993-.198-1.39-.596-.332-.198-.53-.794-.53-1.324zm-61.284-26.796c0-.53.199-.993.53-1.39.662-.662 2.052-.662 2.714 0 .33.397.596.86.596 1.39 0 .53-.265.993-.596 1.39-.331.265-.86.53-1.324.53-.463 0-.993-.265-1.39-.53-.331-.397-.53-.86-.53-1.39zm-191.02 88.723a2.048 2.048 0 0 1 2.78-.132c.265.397.53.926.53 1.456 0 .463-.265.993-.53 1.39-.397.265-.86.53-1.39.53-.53 0-.993-.265-1.39-.53-.397-.53-.53-.993-.53-1.39 0-.463.133-.927.53-1.324zm195.449 51.587c.595-.662 1.92-.662 2.714 0 .264.397.53.927.53 1.39 0 .199-.2.397-.266.596h-3.31c-.132-.199-.264-.331-.264-.596 0-.463.199-.993.596-1.39zM78.005 438.637c.662-.662 1.92-.662 2.714 0 .33.397.463.927.463 1.39 0 .397-.199.993-.463 1.324-.398.397-.86.596-1.39.596-.464 0-1.06-.199-1.39-.53-.332-.397-.53-.86-.53-1.39 0-.53.198-.993.596-1.39zm9.505-51.613a1.979 1.979 0 0 1 2.78-.067c.265.331.53.795.53 1.39 0 .53-.265.993-.53 1.39-.397.265-.86.464-1.39.464-.463 0-.993-.199-1.39-.463-.33-.398-.53-.993-.53-1.39 0-.464.133-.993.53-1.324zm135.979 72.69c.86-.662 1.986-.662 2.714 0 .33.397.596.86.596 1.39 0 .397-.2.993-.53 1.324-.397.397-.86.596-1.39.596-.463 0-.993-.199-1.324-.596-.463-.331-.596-.927-.596-1.324 0-.53.265-.993.53-1.39zm5.752 13.444a2.042 2.042 0 0 1 2.78 0c.265.397.53.795.53 1.39 0 .398-.199.927-.53 1.258-.397.397-.86.596-1.39.596-.53 0-.993-.199-1.39-.53-.33-.463-.53-.926-.53-1.324 0-.463.2-.993.53-1.39zm1.907-67.07c.86-.662 2.052-.662 2.78 0 .265.397.53.86.53 1.39 0 .464-.265.993-.53 1.39-.331.265-.86.53-1.39.53-.53 0-.993-.265-1.39-.53-.265-.397-.53-.86-.53-1.39 0-.53.265-.993.53-1.39zm-101.524 70.95c.86-.795 1.986-.795 2.714-.133.463.53.596.993.596 1.456 0 .397-.133.993-.53 1.258-.463.53-.927.662-1.39.662-.464 0-.927-.132-1.324-.53-.331-.397-.596-.993-.596-1.39 0-.53.199-1.059.53-1.324zm55.948-173.541l3.177 2.118-30.383 45.146-3.178-2.184 30.384-45.08zm24.24 25.055l-41.835 39.387-2.647-2.78 41.835-39.387 2.648 2.78zm42.472 37.812l-3.575 1.456-19.594-47.794 3.575-1.456 19.594 47.794zm-212.871-53.52l2.383 3.045-41.77 32.105v-4.832l39.387-30.318zm-23.758 56.499L69.87 320.49l2.582 2.846-54.214 48.853-2.582-2.846zm111.672-9.923l-3.84.264-4.104-53.552 3.84-.331 4.104 53.619zm-28.411-59.57l3.773.794-12.379 55.473-3.707-.861 12.313-55.406zm243.486-3.529l2.383 2.98-45.41 35.282-2.317-2.979 45.344-35.283zm-63.322 68.136l-3.575 1.457L253 310.64l3.574-1.457 22.507 55.274z" opacity=".098"/>
</svg>
