<svg width="80" height="80" viewBox="0 0 80 80" fill="none" xmlns="http://www.w3.org/2000/svg">
<path d="M40 80C62.0914 80 80 62.0914 80 40C80 17.9086 62.0914 0 40 0C17.9086 0 0 17.9086 0 40C0 62.0914 17.9086 80 40 80Z" fill="#F6F5E9"/>
<path d="M13.5148 29.0698C13.2645 29.0698 13.1287 29.0279 12.9499 29.007C11.3483 32.9739 8.00919 40.1605 6 44.4348C6.29316 44.3929 6.56486 44.3021 6.99387 44.3021C7.42288 44.3021 7.65168 44.3859 7.91624 44.4348C8.65985 41.6342 9.56792 39.6716 10.0184 38.659H15.7313C16.2962 39.8742 17.2186 41.7878 18.0122 44.4348C18.4412 44.3719 18.8702 44.3021 19.4565 44.3021C20.0214 44.3021 20.4004 44.3649 20.7865 44.4348C20.7364 44.351 15.7528 33.6304 14.0153 29C13.8294 29.0489 13.715 29.0698 13.5148 29.0698ZM10.4688 37.5625L12.8427 32.0939L15.2809 37.5625H10.4688Z" fill="black"/>
<path d="M27.5862 33.6095C23.8824 33.6095 22.1664 36.1656 22.1664 39.2107C22.1664 42.6119 24.2685 44.7281 27.7006 44.7281C29.531 44.7281 30.911 44.2183 31.8977 43.2894C31.9192 42.9402 31.9192 42.584 32.055 41.9694L31.7833 41.9065C31.4401 42.3675 30.4033 43.6875 28.1939 43.6875C27.5433 43.6875 26.0704 43.6246 25.0336 41.9694C24.4258 40.9567 24.4258 39.6996 24.4258 39.085H32.5269C32.5484 37.8907 32.6127 33.6095 27.5862 33.6095ZM24.4401 38.1561C24.6403 35.9491 25.5913 34.4965 27.5576 34.4965C30.2675 34.4965 30.2675 37.4298 30.2675 38.1561H24.4401Z" fill="black"/>
<path d="M38.8048 38.0653C38.0183 37.8698 36.6812 37.4018 36.6812 36.1237C36.6812 35.1739 37.4034 34.4685 38.7762 34.4685C39.1409 34.4685 39.7701 34.5174 40.242 34.8457C40.8998 35.2857 41.0356 35.8374 41.1214 36.1656H41.4146C41.4861 35.4184 41.6434 34.8876 41.8651 34.3149C41.3431 34.0565 40.4422 33.5885 38.8835 33.5885C35.766 33.5885 34.9723 35.6209 34.9723 36.871C34.9723 38.8126 36.574 39.497 37.5464 39.8043C39.9131 40.5516 40.6853 40.7961 40.6853 42.0532C40.6853 43.3103 39.577 43.8621 38.4044 43.8621C37.911 43.8621 37.3176 43.7713 36.7599 43.443C35.9233 42.9542 35.7016 42.3605 35.5372 41.9834L35.2655 42.0462C35.2226 42.3326 35.0438 43.2824 34.7435 43.8132C34.9938 43.9878 36.2522 44.7351 38.0826 44.7351C41.2216 44.7351 42.4228 42.8634 42.4228 41.1872C42.4371 38.9942 40.814 38.5752 38.8048 38.0653Z" fill="black"/>
<path d="M50.4524 33.5885C47.0632 33.5885 44.7108 35.7257 44.7108 39.1618C44.7108 43.6805 48.0499 44.7421 50.4524 44.7421C53.8773 44.7421 56.3655 42.5351 56.3655 39.0291C56.3655 36.3472 54.7424 33.5885 50.4524 33.5885ZM50.4738 43.8621C48.3931 43.8621 47.0203 42.165 47.0203 39.099C47.0203 38.4355 47.0203 34.4685 50.5882 34.4685C53.5269 34.4685 54.0632 37.4018 54.0632 39.1199C54.0632 42.0323 52.6403 43.8621 50.4738 43.8621Z" fill="black"/>
<path d="M65.146 33.5676C62.6434 33.5676 61.671 35.1111 61.3135 35.6837C61.3135 35.2228 61.3135 34.8876 61.4065 33.6793C61.0919 33.7422 60.7058 33.812 60.2982 33.812C59.8692 33.812 59.5045 33.7492 59.1899 33.6793C59.2614 36.878 59.3043 39.5878 59.3043 41.5992C59.3043 44.4697 59.24 47.3541 59.0541 50.2176C59.4116 50.1268 59.7047 50.0849 60.2696 50.0849C60.813 50.0849 61.1062 50.1268 61.4422 50.2176C61.3064 48.1922 61.3278 46.1808 61.3278 42.7237C61.6925 43.6316 62.8865 44.77 65.0101 44.77C67.9631 44.77 70.1582 42.584 70.1582 39.1059C70.1654 35.1739 67.4054 33.5676 65.146 33.5676ZM64.6097 43.6456C63.573 43.6456 62.8007 43.2475 62.2216 42.563C61.7425 42.0183 61.2921 41.285 61.2921 39.3434C61.2921 37.1574 61.764 36.3682 62.2216 35.8164C62.7435 35.1739 63.5301 34.6711 64.7527 34.6711C66.2185 34.6711 67.8416 35.8793 67.8416 39.2107C67.8344 39.9161 67.8344 43.6456 64.6097 43.6456Z" fill="black"/>
<path d="M30.7966 30.8578H24.5546V31.5492H30.7966V30.8578Z" fill="black"/>
<path d="M73.4543 41.7738C72.6534 41.7738 71.9813 42.4024 71.9813 43.2196C71.9813 44.0297 72.6391 44.6653 73.4614 44.6653C74.2765 44.6653 74.9343 44.0297 74.9343 43.2196C74.9272 42.4164 74.2837 41.7738 73.4543 41.7738ZM73.4543 44.4068C72.7678 44.4068 72.2602 43.897 72.2602 43.2196C72.2602 42.5561 72.775 42.0323 73.4543 42.0323C74.1621 42.0323 74.6555 42.57 74.6555 43.2196C74.6555 43.904 74.1407 44.4068 73.4543 44.4068Z" fill="black"/>
<path d="M74.0906 42.7586C74.0906 42.3675 73.6688 42.3745 73.2541 42.3745C73.061 42.3745 72.9752 42.3745 72.8465 42.3675C72.8537 42.5421 72.868 42.7446 72.868 43.1497C72.868 43.6176 72.8608 43.8202 72.8394 43.9948C72.8894 43.9878 72.9109 43.9808 72.9967 43.9808C73.0825 43.9808 73.1111 43.9948 73.1826 43.9948C73.1611 43.6386 73.1611 43.45 73.1611 43.1986H73.2183C73.3756 43.3802 73.5973 43.6037 73.8761 43.9948C73.9691 43.9878 74.0263 43.9808 74.0835 43.9808C74.1478 43.9808 74.1979 43.9948 74.2551 43.9948L74.2694 43.9668C74.1621 43.8621 73.6616 43.3103 73.5472 43.1637C73.7117 43.1567 74.0906 43.1008 74.0906 42.7586ZM73.1611 43.0938C73.1611 42.9053 73.1611 42.7097 73.1683 42.4932C73.44 42.4932 73.7689 42.4932 73.7689 42.7865C73.7689 43.0938 73.3399 43.0938 73.1611 43.0938Z" fill="black"/>
</svg>
