<svg width="80" height="80" viewBox="0 0 80 80" fill="none" xmlns="http://www.w3.org/2000/svg">
<path d="M40 80C62.0914 80 80 62.0914 80 40C80 17.9086 62.0914 0 40 0C17.9086 0 0 17.9086 0 40C0 62.0914 17.9086 80 40 80Z" fill="#FF7977"/>
<path d="M56.3241 41.091C56.3126 40.0615 56.0717 39.0448 55.6962 38.0899C55.4065 37.3506 55.07 36.6307 54.7415 35.9082C52.1273 30.2109 49.3838 24.5738 46.5134 19.0012C46.1097 18.2225 45.7145 17.4392 45.2881 16.6726C44.8691 15.9248 44.3814 15.2049 43.7499 14.6196C42.7424 13.6591 41.3905 13.0864 40.003 13H39.3642C37.9359 13.0705 36.5417 13.6699 35.5168 14.669C34.9086 15.2452 34.4379 15.9477 34.03 16.6746C33.6093 17.4286 33.2196 18.1996 32.8236 18.9659C30.8975 22.7047 29.0281 26.4724 27.2161 30.2678C26.136 32.5391 25.065 34.8142 24.0348 37.1079C23.6076 38.0634 23.2212 39.0516 23.0757 40.0947C22.8063 41.8559 23.1927 43.7044 24.1335 45.2167C24.9445 46.5304 26.1618 47.5891 27.5808 48.2006C28.69 48.6793 29.8956 48.8927 31.1017 48.8238C32.7128 48.7383 34.2663 48.1594 35.6293 47.3147C37.1499 46.3814 38.4504 45.1403 39.6613 43.841C40.7872 45.0545 41.9922 46.2125 43.3832 47.1201C44.7266 48.004 46.2584 48.6439 47.8694 48.7961C49.6192 48.9789 51.4321 48.5452 52.9007 47.5712C54.1996 46.7105 55.2055 45.4745 55.7843 44.0279C56.1571 43.0944 56.3405 42.0961 56.3241 41.091ZM39.6686 40.4117C39.2293 39.8946 38.8424 39.3351 38.4536 38.7798C37.7996 37.8204 37.2049 36.8176 36.7265 35.758C36.3345 34.8789 36.0198 33.956 35.897 32.9975C35.8074 32.2371 35.8289 31.4437 36.108 30.7218C36.3577 30.0448 36.8379 29.4583 37.4461 29.0707C38.8953 28.1355 40.9609 28.2366 42.274 29.371C42.9387 29.9372 43.3356 30.7744 43.4355 31.6347C43.5663 32.7783 43.3062 33.9269 42.9069 34.9935C42.153 36.9727 40.9594 38.7469 39.6686 40.4117ZM53.8879 42.8373C53.5007 44.1739 52.5698 45.3416 51.3519 46.0153C50.2724 46.6192 48.9839 46.826 47.7669 46.6227C46.2169 46.3815 44.8262 45.559 43.6212 44.5882C42.7356 43.8765 41.9382 43.0632 41.1742 42.2249C42.3804 40.6994 43.5166 39.1033 44.3846 37.3585C45.1421 35.8306 45.7177 34.1752 45.7724 32.4571C45.8032 31.367 45.5981 30.2569 45.0889 29.2864C44.4222 27.9897 43.2278 26.9937 41.8585 26.5118C40.5795 26.0549 39.1577 26.014 37.8528 26.386C36.6222 26.7342 35.4983 27.4738 34.7282 28.499C34.0503 29.3928 33.6639 30.4917 33.5743 31.6062C33.4365 33.2114 33.8387 34.8128 34.4473 36.2884C35.352 38.4445 36.6798 40.3961 38.1463 42.2064C37.485 42.9701 36.7674 43.6832 35.9996 44.3396C34.809 45.3472 33.4468 46.2243 31.9036 46.558C30.656 46.8381 29.3099 46.6988 28.1658 46.1199C26.8256 45.4521 25.7966 44.1942 25.4085 42.7482C25.1117 41.686 25.1775 40.5392 25.5304 39.4988C25.8239 38.6378 26.2221 37.8175 26.5947 36.9892C29.1809 31.3533 31.8936 25.7763 34.7305 20.2623C35.1536 19.4416 35.5703 18.6171 36.0181 17.81C36.3836 17.1598 36.8088 16.5213 37.4097 16.0646C38.0594 15.5585 38.8631 15.2906 39.6866 15.3057C40.5328 15.2957 41.374 15.6074 42.0213 16.1513C42.6607 16.6823 43.0926 17.4086 43.4805 18.1326C44.3573 19.7795 45.1994 21.4456 46.0418 23.1098C48.446 27.8683 50.7562 32.6738 52.9709 37.5234C53.3056 38.2767 53.6638 39.0242 53.8891 39.8193C54.1644 40.7999 54.1735 41.8588 53.8879 42.8373ZM27.1221 53.2662C27.8461 53.1022 28.6371 53.5797 28.8251 54.2984C29.0587 55.0339 28.5945 55.8889 27.8552 56.1016C27.133 56.3555 26.2753 55.9142 26.0361 55.1931C25.8092 54.5855 26.052 53.8521 26.5908 53.4927C26.7515 53.3834 26.932 53.3065 27.1221 53.2662ZM32.012 58.0136C32.448 57.5396 33.0624 57.2426 33.6954 57.148C34.1176 57.1067 34.5437 57.1337 34.9574 57.2279C34.9521 57.8952 34.9562 58.5616 34.955 59.2292C34.3059 59.0614 33.6031 59.0267 32.9661 59.2612C32.62 59.3872 32.3082 59.5921 32.0552 59.8597C32.0005 59.9064 32.0138 59.982 32.0088 60.0469C32.0126 61.9113 32.0058 63.7759 32.0114 65.64C32.0049 65.7117 32.0223 65.7925 31.9906 65.8597C31.2707 65.8765 30.5499 65.863 29.8297 65.8656C29.83 63.0234 29.8274 60.1806 29.8315 57.3384C30.438 57.341 31.0447 57.336 31.6515 57.3396C31.7849 57.3319 31.9271 57.4004 31.9759 57.5305C32.0238 57.6863 32.0085 57.8523 32.012 58.0136ZM47.5345 58.0212C48.1107 57.4251 48.9457 57.1318 49.7652 57.1301C50.6311 57.1083 51.5185 57.3642 52.1875 57.926C52.6325 58.275 52.9534 58.7579 53.1028 59.3032C53.2932 59.9676 53.2762 60.6654 53.2738 61.3497C53.2744 62.8553 53.2738 64.3612 53.2744 65.8671C52.5484 65.8659 51.8226 65.8718 51.0966 65.8639C51.0971 64.3592 51.0966 62.8544 51.0971 61.3492C51.0971 60.79 51.1236 60.1868 50.8262 59.6887C50.6191 59.3314 50.2092 59.1534 49.814 59.1119C49.0612 58.9915 48.2749 59.2909 47.756 59.8398C47.7008 59.895 47.6535 59.9649 47.6596 60.0484C47.6526 60.2811 47.6878 60.5147 47.6679 60.7477C47.6394 61.0641 47.6837 61.3806 47.6734 61.6979C47.6641 62.2962 47.6634 62.8946 47.6711 63.4929C47.63 64.2842 47.7016 65.0782 47.6543 65.8686C46.9312 65.8662 46.2087 65.868 45.4856 65.8677C45.4853 63.024 45.4803 60.1809 45.4882 57.3375C46.0474 57.3419 46.6077 57.3375 47.1666 57.3393C47.3111 57.3301 47.4692 57.4109 47.5065 57.5579C47.5406 57.7089 47.5303 57.8661 47.5345 58.0212ZM26.3258 65.8674C26.3255 63.024 26.3214 60.1809 26.3273 57.3378C27.0477 57.3396 27.7679 57.339 28.4881 57.3384C28.4937 60.1815 28.4896 63.0246 28.4902 65.8671C27.7688 65.8671 27.0474 65.8665 26.3258 65.8674ZM24.9839 57.3387C24.413 57.3375 23.8421 57.3404 23.2706 57.3354C23.1195 57.3346 22.9268 57.3419 22.853 57.5006C22.7869 57.6636 22.8122 57.8446 22.8063 58.0162C22.3312 57.5106 21.6615 57.2103 20.9746 57.145C19.9138 57.0498 18.8146 57.344 17.9628 57.988C17.2611 58.5064 16.7425 59.2559 16.471 60.0816C16.3403 60.4685 16.2748 60.8746 16.233 61.2804V61.8642C16.2939 63.0863 16.8374 64.2951 17.7856 65.0829C18.5008 65.6887 19.4199 66.0272 20.3511 66.0863H20.8365C21.5746 66.0366 22.3033 65.7313 22.8069 65.1813C22.8116 65.3538 22.7872 65.5365 22.8518 65.7017C22.9191 65.8354 23.0778 65.8721 23.2156 65.8668C23.8047 65.8653 24.3948 65.8674 24.9845 65.8641C24.9845 63.0231 24.9862 60.1809 24.9839 57.3387ZM22.7396 63.2103C22.2989 63.738 21.6104 64.05 20.9229 64.0283C20.1859 64.0339 19.4211 63.7515 18.9436 63.1735C18.4779 62.6217 18.3371 61.8543 18.4429 61.1529C18.522 60.5852 18.8114 60.0407 19.2686 59.6884C19.6832 59.3611 20.2059 59.1924 20.7292 59.156C21.5088 59.0878 22.3306 59.4316 22.7995 60.061C22.826 60.9877 22.8001 61.9168 22.8119 62.845C22.8042 62.9673 22.838 63.1145 22.7396 63.2103ZM44.2409 59.7783C43.9054 58.9577 43.3101 58.2443 42.5555 57.7788C41.7783 57.2952 40.8463 57.0766 39.9351 57.1386C39.2155 57.1859 38.5124 57.4929 38.0129 58.0177C38.01 56.4249 38.0129 54.8329 38.0114 53.24C37.2851 53.2403 36.5581 53.2368 35.8318 53.2421C35.8356 57.4491 35.8256 61.6583 35.8371 65.865C36.4386 65.8665 37.0406 65.868 37.6424 65.8665C37.7919 65.8783 37.9532 65.796 37.9944 65.6447C38.0241 65.4907 38.0132 65.3317 38.0141 65.1757C38.5189 65.7372 39.2605 66.0419 40.0062 66.0869H40.4511C41.6584 66.0263 42.8423 65.4604 43.6001 64.5117C44.6614 63.2103 44.8685 61.3186 44.2409 59.7783ZM41.7008 63.3672C41.2142 63.8188 40.5407 64.0354 39.8831 64.0289C39.197 64.0448 38.5115 63.7295 38.0769 63.1985C38.0232 63.1433 38.0055 63.0686 38.01 62.9952C38.0105 62.0191 38.0114 61.0433 38.01 60.0678C38.4272 59.5236 39.0951 59.1845 39.7782 59.1495C40.4708 59.1293 41.1974 59.3326 41.7058 59.8209C42.19 60.2702 42.4262 60.944 42.4109 61.5966C42.425 62.2483 42.1823 62.9176 41.7008 63.3672ZM62.1625 58.7229C61.2387 57.5464 59.6594 56.9529 58.187 57.173C57.572 57.2699 56.9893 57.5649 56.5595 58.0174C56.5547 56.4254 56.5594 54.8335 56.5571 53.2409C55.8319 53.24 55.1073 53.2394 54.3828 53.2415C54.3822 57.4489 54.3828 61.6574 54.3828 65.8653C54.9543 65.8697 55.5272 65.8644 56.0987 65.8697C56.2489 65.8721 56.4366 65.86 56.5136 65.7067C56.5803 65.5409 56.5553 65.3561 56.56 65.1819C57.061 65.7308 57.7865 66.034 58.5205 66.0875H59.01C60.2041 66.0225 61.3715 65.4651 62.1278 64.5308C62.7455 63.7856 63.0787 62.8312 63.1339 61.8701V61.2998C63.0654 60.3719 62.7522 59.4504 62.1625 58.7229ZM60.4653 63.1221C59.8903 63.8623 58.8757 64.1376 57.9757 63.9939C57.4277 63.8846 56.8962 63.5887 56.5721 63.1268C56.5359 62.7687 56.5686 62.4064 56.5577 62.0464C56.5653 61.3844 56.5412 60.7204 56.5686 60.0595C56.8982 59.605 57.426 59.3135 57.969 59.193C58.9739 59.0073 60.1421 59.4055 60.6502 60.3334C61.1126 61.1922 61.0665 62.34 60.4653 63.1221Z" fill="white"/>
</svg>
