<svg width="80" height="80" viewBox="0 0 80 80" fill="none" xmlns="http://www.w3.org/2000/svg">
<path d="M40 80C62.0914 80 80 62.0914 80 40C80 17.9086 62.0914 0 40 0C17.9086 0 0 17.9086 0 40C0 62.0914 17.9086 80 40 80Z" fill="#00008F"/>
<path d="M54.9916 40.0078C55.7671 42.1057 57.3648 47.565 58 48H53.8054C53.7928 47.5173 53.7268 47.0374 53.6085 46.5683C53.4276 45.9443 51.9104 41.2238 51.9104 41.2238H45.2475L44.2 42.66C44.2 42.66 45.4582 46.469 45.5364 46.6557C45.6721 46.9922 46.2728 48 46.2728 48H42.2529C42.2529 48 42.1487 47.4183 42.1096 47.176C42.0782 46.9804 41.7288 45.9088 41.7288 45.9088C41.7288 45.9088 40.8177 46.8743 40.5694 47.322C40.3188 47.7688 40.2077 48 40.2077 48H37.0628C37.0628 48 36.9579 47.4183 36.9188 47.176C36.8882 46.9804 36.5034 45.8228 36.5034 45.8228C36.5034 45.8228 35.623 46.8566 35.3724 47.3034C35.1234 47.751 35.0161 48 35.0161 48H31.9058C31.9058 48 32.7847 47.1908 33.092 46.8432C33.61 46.2541 35.5403 43.8146 35.5403 43.8146L34.7663 41.2238H28.154C28.154 41.2238 24.3839 46.0147 24.2353 46.1629C24.0851 46.3089 22.9862 47.834 22.9617 48H21V46.7936C21.0243 46.768 21.0502 46.7437 21.0774 46.721C21.1379 46.678 23.9356 43.3195 26.5057 40.0078C28.8154 37.1199 30.9824 34.3113 31.1724 34.0438C31.633 33.3969 32.2966 32 32.2966 32H35.7149C35.7149 32 35.8207 33.2849 35.9204 33.5969C36.0092 33.8726 38.0919 40.4813 38.141 40.5525L39.2927 39.1281L37.3241 33.2679C37.3241 33.2679 36.8628 32.1652 36.7126 32H40.7058C40.6917 32.3545 40.7356 32.7088 40.836 33.05C40.9985 33.5332 41.8545 36.5204 41.8545 36.5204C41.8545 36.5204 44.5778 33.219 44.7372 32.9819C44.9307 32.6861 45.0462 32.349 45.0736 32H48.4008C48.4008 32 47.7916 32.4305 46.7241 33.7362C46.3656 34.1757 42.8521 38.4938 42.8521 38.4938C42.8521 38.4938 43.1587 39.5046 43.3081 40.0078C43.3487 40.1523 43.377 40.2501 43.377 40.2605C43.377 40.265 43.4544 40.1731 43.5877 40.0078C44.4943 38.8969 48.6176 33.6681 48.8675 33.2204C49.069 32.8589 49.3655 32.4476 49.5395 32H52.7854C52.7854 32 52.8605 32.9374 52.9594 33.1968L54.9916 40.0078ZM50.0521 35.0583C49.5755 36.0498 46.7701 39.3527 46.7701 39.3527H51.213C51.213 39.3527 50.3518 36.7879 50.2016 36.2099C50.1248 35.8403 50.0955 35.463 50.1142 35.0864C50.1142 35.0338 50.1042 34.9486 50.0521 35.0583ZM32.9816 35.0583C32.505 36.0498 29.6996 39.3527 29.6996 39.3527H34.1425C34.1425 39.3527 33.282 36.7879 33.1319 36.2099C33.0551 35.8403 33.0257 35.463 33.0444 35.0864C33.0444 35.0338 33.0338 34.9486 32.9816 35.0583H32.9816ZM39.6706 45.0729L40.8935 43.4485C40.7809 43.3314 40.092 41.3113 40.092 41.3113L38.9096 42.7948L39.6706 45.0729Z" fill="white"/>
</svg>
