<?xml version="1.0" encoding="UTF-8"?>
<svg width="89px" height="24px" viewBox="0 0 89 24" version="1.1" xmlns="http://www.w3.org/2000/svg" xmlns:xlink="http://www.w3.org/1999/xlink">
    <!-- Generator: sketchtool 53 (72520) - https://sketchapp.com -->
    <title>3C20C5F0-58A2-4C09-9FCD-1A28BD968FD1</title>
    <desc>Created with sketchtool.</desc>
    <g id="Homepage-User" stroke="none" stroke-width="1" fill="none" fill-rule="evenodd">
        <g id="Homepage---Navigation-01-(Mobile)" transform="translate(-24.000000, -20.000000)" fill="#1B2733" fill-rule="nonzero">
            <g id="Cover">
                <g id="Navigation">
                    <g id="Logotype-/-Black" transform="translate(24.000000, 20.000000)">
                        <path d="M6.37938872,23.8782553 C5.06246099,23.8579152 3.99516153,23.7162744 3.17453176,23.4533326 C2.35390199,23.1900211 1.70597798,22.8205712 1.23002011,22.3442435 C0.754062233,21.8682856 0.429730417,21.291367 0.257764286,20.612748 C0.085798155,19.9341289 -9.23705556e-14,19.1697118 -9.23705556e-14,18.3191266 L-9.23705556e-14,0.729025448 L4.52659234,0.000110945628 L4.52659234,17.4075212 C4.52659234,17.8132133 4.55691756,18.1774856 4.61756797,18.5010778 C4.67821839,18.8254097 4.79471158,19.0987064 4.96667771,19.3213378 C5.13864385,19.544339 5.38679282,19.7266601 5.71112463,19.8683011 C6.03471682,20.0103118 6.47036435,20.1012874 7.01732759,20.1415978 L6.37938872,23.8782553 Z M23.2401316,23.0277441 C22.4701672,23.2511152 21.4775712,23.4582142 20.2627136,23.6505204 C19.0478562,23.8428267 17.7716087,23.9389797 16.4354503,23.9389797 C15.0782122,23.9389797 13.9484132,23.7570285 13.0475327,23.3920166 C12.1462822,23.0277441 11.4325303,22.5162836 10.9059071,21.8580047 C10.3789141,21.2004653 10.0046566,20.4153382 9.78202523,19.5037329 C9.55902399,18.5924973 9.44770827,17.5899163 9.44770827,16.4963596 L9.44770827,7.59517077 L13.9743006,7.59517077 L13.9743006,15.9490266 C13.9743006,17.4075952 14.1666068,18.4608415 14.5515891,19.1087655 C14.9358317,19.7570593 15.6551309,20.0806515 16.7083772,20.0806515 C17.0319694,20.0806515 17.3766413,20.0654889 17.7412835,20.0351637 C18.1059255,20.0048385 18.4295177,19.9697056 18.7135392,19.9290255 L18.7135392,7.59517077 L23.2401316,7.59517077 L23.2401316,23.0277441 Z M27.4930574,8.14180117 C28.2622822,7.91916975 29.2548781,7.71170093 30.4697357,7.51902491 C31.6853328,7.32671869 32.9608407,7.23056559 34.2977387,7.23056559 C35.6542372,7.23056559 36.7832965,7.40807901 37.6849167,7.76236623 C38.5861672,8.11665344 39.2999191,8.61775905 39.8265422,9.26568305 C40.3527955,9.91434669 40.7277928,10.6835715 40.9511637,11.574467 C41.1734254,12.4661022 41.284741,13.4583282 41.284741,14.5518849 L41.284741,23.5743745 L36.7581487,23.5743745 L36.7581487,15.0988482 C36.7581487,13.6402795 36.5658425,12.6073733 36.1808603,12.0001294 C35.795878,11.3925158 35.0773185,11.0888939 34.0240721,11.0888939 C33.6997403,11.0888939 33.356178,11.1040565 32.9911659,11.1343817 C32.6265238,11.1647069 32.3029316,11.2002096 32.0189101,11.2405199 L32.0189101,23.5743745 L27.4930574,23.5743745 L27.4930574,8.14180117 Z M44.6260984,15.5847541 C44.6260984,14.4305471 44.8132272,13.3421679 45.1882243,12.318877 C45.5628516,11.2963257 46.1046373,10.4050604 46.8139514,9.64545083 C47.5225258,8.88621111 48.3827263,8.28377493 49.3960321,7.83814228 C50.4082284,7.39287943 51.5631752,7.16950837 52.8590232,7.16950837 C53.7096084,7.16950837 54.4891881,7.24569121 55.1985022,7.39731726 C55.9070766,7.54931313 56.5960506,7.7671369 57.2643147,8.05078856 L56.3223841,11.6657755 C55.8970915,11.5041643 55.4311188,11.3621536 54.9248357,11.2404829 C54.4185526,11.1191821 53.8512492,11.0581618 53.2236654,11.0581618 C51.8867674,11.0581618 50.8893639,11.4734693 50.2310848,12.3037144 C49.5731758,13.1343293 49.2436665,14.2282558 49.2436665,15.5847541 C49.2436665,17.0229827 49.5528357,18.1365096 50.1704344,18.9264444 C50.7880332,19.7163792 51.8664273,20.1113466 53.4056166,20.1113466 C53.9533195,20.1113466 54.5398535,20.0610511 55.168177,19.9593507 C55.795761,19.8583899 56.3730493,19.6964089 56.8996725,19.4734077 L57.5372417,23.1793703 C57.0106184,23.4027412 56.3527093,23.5943078 55.5631444,23.7570285 C54.7728398,23.9186397 53.9019146,24 52.9507385,24 C51.4921699,24 50.2362624,23.7818064 49.1830161,23.3465288 C48.1301395,22.9116208 47.264022,22.3191697 46.5857728,21.5695453 C45.9067839,20.8202908 45.4112255,19.9342029 45.0968788,18.9112818 C44.782902,17.8887305 44.6260984,16.7800112 44.6260984,15.5847541 Z M60.5752729,23.5745225 L60.5752729,0.729284322 L65.1018652,0 L65.1018652,7.65563628 C65.4062268,7.55467552 65.795277,7.4581526 66.271235,7.36717696 C66.7471928,7.27620133 67.2083578,7.23071352 67.6539906,7.23071352 C68.9498385,7.23071352 70.0282326,7.40785712 70.8891727,7.76214433 C71.7501129,8.11643154 72.4383471,8.61790697 72.9549852,9.26583098 C73.4712534,9.91412479 73.8358956,10.6837195 74.0492815,11.574615 C74.2615581,12.4662501 74.3676963,13.4584762 74.3676963,14.5520329 L74.3676963,23.5745225 L69.8411039,23.5745225 L69.8411039,15.0986263 C69.8411039,13.6404274 69.6539752,12.6075212 69.2789781,11.9999075 C68.903981,11.3926637 68.2105691,11.088672 67.1980029,11.088672 C66.7926806,11.088672 66.4128759,11.1241746 66.0589585,11.1948102 C65.7043014,11.2661854 65.3851471,11.3419984 65.1018652,11.4229889 L65.1018652,23.5745225 L60.5752729,23.5745225 Z M88.0986925,11.605236 C87.6933702,11.5042753 87.2174123,11.3973974 86.6708189,11.2860817 C86.1238556,11.1751358 85.5365821,11.119293 84.9089981,11.119293 C84.6249767,11.119293 84.2862219,11.1448106 83.8912545,11.195106 C83.4962871,11.2457713 83.197103,11.3012443 82.9948118,11.3622645 L82.9948118,23.5744485 L78.4682193,23.5744485 L78.4682193,8.44549706 C79.2784941,8.16221522 80.2348477,7.89409598 81.339499,7.64039971 C82.4430408,7.3878129 83.673061,7.26096477 85.0302989,7.26096477 C85.2736403,7.26096477 85.5669073,7.27612737 85.9115792,7.30645258 C86.2555115,7.33677779 86.5998136,7.37745795 86.9444855,7.42775342 C87.2884177,7.47878853 87.6327197,7.53943895 87.9773916,7.6100745 C88.321324,7.68144969 88.6149607,7.76724784 88.8586719,7.86857843 L88.0986925,11.605236 Z" id="Logotype"></path>
                    </g>
                </g>
            </g>
        </g>
    </g>
</svg>