<svg width="80" height="80" viewBox="0 0 80 80" fill="none" xmlns="http://www.w3.org/2000/svg">
<g clip-path="url(#clip0)">
<path d="M40 80C62.0914 80 80 62.0914 80 40C80 17.9086 62.0914 0 40 0C17.9086 0 0 17.9086 0 40C0 62.0914 17.9086 80 40 80Z" fill="#2A276C"/>
<path d="M45.0575 53.06H46.7102C46.6959 52.8571 46.607 52.6663 46.4603 52.5236C46.3136 52.381 46.1192 52.2964 45.9137 52.2856C45.6996 52.2878 45.4938 52.368 45.3358 52.5109C45.1778 52.6538 45.0787 52.8493 45.0575 53.06ZM45.9137 54.2609C46.0736 54.2633 46.2311 54.2224 46.3692 54.1426C46.5072 54.0628 46.6206 53.9471 46.6969 53.8081L47.0951 54.0313C46.9733 54.2405 46.7955 54.4125 46.5812 54.5283C46.3669 54.6441 46.1244 54.6992 45.8805 54.6875C45.5197 54.6631 45.1818 54.5042 44.9349 54.2429C44.6881 53.9816 44.5508 53.6374 44.5508 53.2798C44.5508 52.9223 44.6881 52.5781 44.9349 52.3168C45.1818 52.0555 45.5197 51.8966 45.8805 51.8722C46.0593 51.8806 46.2346 51.9238 46.3964 51.9993C46.5583 52.0748 46.7034 52.1811 46.8237 52.3122C46.9439 52.4432 47.0368 52.5965 47.097 52.7631C47.1573 52.9297 47.1837 53.1064 47.1748 53.2831C47.1781 53.34 47.1781 53.3969 47.1748 53.4538H45.0641C45.076 53.6726 45.1719 53.8787 45.3322 54.0299C45.4926 54.1812 45.7053 54.2661 45.927 54.2675" fill="white"/>
<path fill-rule="evenodd" clip-rule="evenodd" d="M13.4845 52.2922C13.61 52.2908 13.7344 52.3154 13.8497 52.3643C13.9651 52.4132 14.0688 52.4853 14.1544 52.5761C14.24 52.6669 14.3055 52.7743 14.3467 52.8915C14.3879 53.0087 14.4039 53.1332 14.3938 53.2569C14.4076 53.383 14.3947 53.5106 14.3559 53.6316C14.317 53.7525 14.2531 53.8641 14.1681 53.9592C14.0832 54.0543 13.9791 54.1309 13.8625 54.184C13.7459 54.237 13.6194 54.2655 13.4911 54.2675C13.3642 54.2619 13.2398 54.2307 13.1255 54.1757C13.0113 54.1208 12.9097 54.0432 12.8269 53.9479C12.7442 53.8526 12.6821 53.7415 12.6445 53.6215C12.6069 53.5015 12.5946 53.3752 12.6084 53.2503C12.6012 53.1303 12.6183 53.01 12.6586 52.8966C12.699 52.7832 12.7617 52.6788 12.8433 52.5896C12.9248 52.5005 13.0235 52.4282 13.1336 52.3771C13.2437 52.3261 13.363 52.2972 13.4845 52.2922ZM14.8119 51.9443H14.3672V52.325C14.26 52.1845 14.1218 52.07 13.963 51.9904C13.8043 51.9108 13.6293 51.8681 13.4513 51.8656C13.0728 51.8656 12.7099 52.0143 12.4422 52.2789C12.1746 52.5435 12.0243 52.9023 12.0243 53.2765C12.0243 53.6507 12.1746 54.0096 12.4422 54.2742C12.7099 54.5388 13.0728 54.6875 13.4513 54.6875C13.6308 54.6911 13.8087 54.6525 13.9702 54.5749C14.1317 54.4974 14.2724 54.383 14.3805 54.2412V54.6087H14.8385V51.9443H14.8119Z" fill="white"/>
<path fill-rule="evenodd" clip-rule="evenodd" d="M18.5088 52.3644C18.4487 52.2237 18.3494 52.1028 18.2225 52.0156C18.0956 51.9285 17.9463 51.8788 17.792 51.8722C17.6887 51.8678 17.5855 51.884 17.4887 51.9199C17.3919 51.9557 17.3033 52.0105 17.2284 52.0809C17.1534 52.1514 17.0936 52.236 17.0525 52.3298C17.0113 52.4236 16.9897 52.5246 16.9889 52.6269C16.9889 53.4669 18.2035 53.2831 18.2035 53.8541C18.2045 53.9103 18.1938 53.9662 18.1718 54.0181C18.1499 54.0701 18.1174 54.1169 18.0762 54.1558C18.035 54.1947 17.9862 54.2246 17.9327 54.2439C17.8792 54.2631 17.8222 54.2712 17.7654 54.2675C17.6391 54.2658 17.5167 54.2232 17.4172 54.1461C17.3177 54.0691 17.2465 53.9619 17.2146 53.8409L16.8097 54.0313C16.8757 54.2282 17.0045 54.3987 17.1769 54.517C17.3492 54.6354 17.5558 54.6952 17.7654 54.6875C17.883 54.691 18.0001 54.6712 18.1099 54.6294C18.2196 54.5875 18.3198 54.5243 18.4045 54.4436C18.4892 54.3629 18.5568 54.2663 18.6032 54.1594C18.6496 54.0525 18.6739 53.9376 18.6747 53.8213C18.6699 53.6434 18.6063 53.4721 18.4936 53.3334C18.3809 53.1948 18.2254 53.0964 18.0508 53.0534C17.9152 53.0375 17.7864 52.9859 17.6778 52.9039C17.5692 52.8219 17.4849 52.7127 17.4336 52.5875C17.4403 52.5057 17.4785 52.4296 17.5402 52.3747C17.6019 52.3198 17.6825 52.2903 17.7654 52.2922C17.8464 52.2995 17.9236 52.3292 17.9882 52.378C18.0527 52.4267 18.1021 52.4926 18.1305 52.5678L18.5088 52.3644Z" fill="white"/>
<path fill-rule="evenodd" clip-rule="evenodd" d="M22.2323 52.3644C22.1722 52.2237 22.0729 52.1028 21.946 52.0156C21.8191 51.9285 21.6698 51.8788 21.5155 51.8722C21.4122 51.8678 21.309 51.884 21.2122 51.9199C21.1154 51.9557 21.0269 52.0105 20.9519 52.0809C20.8769 52.1514 20.8171 52.236 20.776 52.3298C20.7348 52.4236 20.7132 52.5246 20.7124 52.6269C20.7124 53.4669 21.927 53.2831 21.927 53.8541C21.928 53.9103 21.9173 53.9662 21.8954 54.0181C21.8734 54.0701 21.8409 54.1169 21.7997 54.1558C21.7585 54.1947 21.7097 54.2246 21.6562 54.2439C21.6027 54.2631 21.5457 54.2712 21.489 54.2675C21.3626 54.2658 21.2402 54.2232 21.1407 54.1461C21.0412 54.0691 20.97 53.9619 20.9381 53.8409L20.5332 54.0313C20.5992 54.2282 20.728 54.3987 20.9004 54.517C21.0727 54.6354 21.2793 54.6952 21.489 54.6875C21.6065 54.691 21.7236 54.6712 21.8334 54.6294C21.9431 54.5875 22.0433 54.5243 22.128 54.4436C22.2127 54.3629 22.2803 54.2663 22.3267 54.1594C22.3731 54.0525 22.3974 53.9376 22.3982 53.8213C22.3934 53.6434 22.3298 53.4721 22.2171 53.3334C22.1044 53.1948 21.9489 53.0964 21.7744 53.0534C21.6375 53.0386 21.5073 52.9875 21.3975 52.9055C21.2877 52.8234 21.2023 52.7136 21.1505 52.5875C21.1572 52.5057 21.1953 52.4296 21.257 52.3747C21.3187 52.3198 21.3993 52.2903 21.4823 52.2922C21.5632 52.2995 21.6404 52.3292 21.705 52.378C21.7696 52.4267 21.8189 52.4926 21.8474 52.5678L22.2323 52.3644Z" fill="white"/>
<path fill-rule="evenodd" clip-rule="evenodd" d="M24.8075 51.9444H24.3495V53.48C24.3495 54.1887 24.6216 54.6809 25.4181 54.6809C26.2145 54.6809 26.4867 54.1887 26.4867 53.48V51.9444H26.0287V53.4341C26.0287 53.8803 25.9756 54.2675 25.4181 54.2675C24.8605 54.2675 24.8075 53.8803 24.8075 53.4341V51.9444Z" fill="white"/>
<path fill-rule="evenodd" clip-rule="evenodd" d="M29.0354 51.9444H28.5774V54.6087H29.0354V53.2962C29.0354 52.9484 29.0354 52.3119 29.5663 52.3119C29.6701 52.3188 29.7684 52.3605 29.8451 52.43L30.0442 51.9969C29.9211 51.9191 29.7788 51.8759 29.6327 51.8722C29.509 51.8713 29.3875 51.9047 29.282 51.9684C29.1764 52.0322 29.091 52.1239 29.0354 52.2331V51.9444Z" fill="white"/>
<path fill-rule="evenodd" clip-rule="evenodd" d="M32.7854 52.2922C32.9109 52.2909 33.0353 52.3154 33.1506 52.3643C33.266 52.4132 33.3697 52.4854 33.4553 52.5762C33.5409 52.6669 33.6064 52.7744 33.6476 52.8916C33.6888 53.0088 33.7048 53.1332 33.6947 53.2569C33.7085 53.383 33.6956 53.5107 33.6568 53.6316C33.6179 53.7525 33.554 53.8641 33.469 53.9593C33.3841 54.0544 33.28 54.1309 33.1634 54.184C33.0468 54.2371 32.9203 54.2655 32.792 54.2675C32.6651 54.262 32.5407 54.2307 32.4264 54.1758C32.3122 54.1208 32.2106 54.0433 32.1278 53.9479C32.0451 53.8526 31.983 53.7415 31.9454 53.6215C31.9078 53.5015 31.8955 53.3752 31.9093 53.2503C31.9021 53.1303 31.9192 53.0101 31.9595 52.8966C31.9999 52.7832 32.0626 52.6789 32.1442 52.5897C32.2257 52.5005 32.3244 52.4283 32.4345 52.3772C32.5446 52.3261 32.6639 52.2972 32.7854 52.2922ZM34.1128 51.9444H33.6548V52.325C33.5463 52.1848 33.4067 52.0711 33.2468 51.9926C33.0868 51.9141 32.9108 51.8729 32.7323 51.8722C32.371 51.8921 32.0308 52.0469 31.7806 52.3054C31.5304 52.5639 31.3888 52.9067 31.3846 53.2645C31.3804 53.6223 31.5138 53.9683 31.7579 54.2325C32.0019 54.4967 32.3383 54.6593 32.6991 54.6875C32.8781 54.6919 33.0556 54.6543 33.2171 54.5779C33.3785 54.5015 33.5195 54.3884 33.6283 54.2478V54.6153H34.0863V51.9444H34.1128Z" fill="white"/>
<path fill-rule="evenodd" clip-rule="evenodd" d="M36.7478 51.9444H36.2898V54.6088H36.7478V53.375C36.7478 52.8959 36.7876 52.3184 37.4115 52.3184C38.0354 52.3184 37.9823 52.7056 37.9823 53.1322V54.635H38.4402V53.0272C38.4402 52.3709 38.2677 51.8722 37.5243 51.8722C37.3724 51.87 37.2223 51.9055 37.0878 51.9754C36.9533 52.0453 36.8387 52.1475 36.7544 52.2725V51.9444H36.7478Z" fill="white"/>
<path fill-rule="evenodd" clip-rule="evenodd" d="M42.6549 52.1347C42.4129 51.9627 42.1232 51.8687 41.8252 51.8656C41.637 51.863 41.4502 51.8974 41.2755 51.9668C41.1009 52.0362 40.942 52.1393 40.808 52.2699C40.674 52.4006 40.5676 52.5563 40.4949 52.728C40.4223 52.8997 40.3849 53.0839 40.3849 53.27C40.3803 53.4591 40.4148 53.6471 40.4865 53.8225C40.5581 53.9978 40.6654 54.1568 40.8016 54.2897C40.9378 54.4225 41.1 54.5263 41.2784 54.5947C41.4567 54.6631 41.6473 54.6947 41.8385 54.6875C42.146 54.6862 42.4454 54.5898 42.6947 54.4119V53.8016C42.5987 53.9441 42.4684 54.0607 42.3154 54.1409C42.1625 54.2211 41.9917 54.2623 41.8186 54.2609C41.6916 54.2584 41.5664 54.2308 41.4505 54.1796C41.3345 54.1284 41.2301 54.0548 41.1435 53.963C41.0568 53.8712 40.9897 53.7631 40.946 53.6452C40.9024 53.5273 40.8831 53.402 40.8894 53.2766C40.8849 53.1494 40.9063 53.0227 40.9523 52.9038C40.9982 52.785 41.0678 52.6765 41.1569 52.5847C41.246 52.493 41.3528 52.4198 41.471 52.3695C41.5893 52.3193 41.7164 52.293 41.8451 52.2922C42.0042 52.297 42.1599 52.338 42.3004 52.4119C42.4408 52.4859 42.5621 52.5909 42.6549 52.7187V52.1347Z" fill="white"/>
<path fill-rule="evenodd" clip-rule="evenodd" d="M50.6195 52.3644C50.5594 52.2237 50.4601 52.1028 50.3332 52.0156C50.2063 51.9285 50.0571 51.8788 49.9027 51.8722C49.7994 51.8678 49.6963 51.884 49.5994 51.9199C49.5026 51.9557 49.4141 52.0105 49.3391 52.0809C49.2642 52.1514 49.2043 52.236 49.1632 52.3298C49.122 52.4236 49.1004 52.5246 49.0996 52.6269C49.0996 53.4669 50.3142 53.2831 50.3142 53.8606C50.3143 53.9163 50.3029 53.9715 50.2806 54.0226C50.2582 54.0738 50.2255 54.1199 50.1845 54.158C50.1434 54.1962 50.0948 54.2256 50.0418 54.2444C49.9888 54.2632 49.9324 54.2711 49.8762 54.2675C49.7498 54.2658 49.6274 54.2232 49.5279 54.1461C49.4284 54.0691 49.3572 53.9619 49.3253 53.8409L48.9204 54.0116C48.9864 54.2085 49.1152 54.379 49.2876 54.4973C49.4599 54.6157 49.6665 54.6755 49.8762 54.6678C49.9937 54.6713 50.1109 54.6515 50.2206 54.6097C50.3303 54.5678 50.4305 54.5046 50.5152 54.4239C50.5999 54.3432 50.6675 54.2466 50.7139 54.1397C50.7603 54.0328 50.7846 53.9179 50.7855 53.8016C50.7806 53.6238 50.717 53.4524 50.6043 53.3137C50.4917 53.1751 50.3361 53.0767 50.1616 53.0338C50.0245 53.0196 49.894 52.9688 49.784 52.8866C49.6741 52.8045 49.5889 52.6943 49.5377 52.5678C49.5444 52.486 49.5826 52.4099 49.6443 52.355C49.706 52.3001 49.7865 52.2706 49.8695 52.2725C49.9499 52.2785 50.027 52.307 50.0916 52.3546C50.1562 52.4022 50.2058 52.4671 50.2346 52.5416L50.6195 52.3644Z" fill="white"/>
<path d="M46.4646 15.3125H12.1372V49.2537H46.4646V15.3125Z" fill="#2A276C"/>
<path fill-rule="evenodd" clip-rule="evenodd" d="M23.3275 38.0319L21.781 39.2C21.5336 38.8901 21.222 38.636 20.8672 38.4549C20.5123 38.2738 20.1224 38.1699 19.7235 38.15C19.0194 38.15 18.3441 38.4266 17.8463 38.9188C17.3484 39.4111 17.0687 40.0788 17.0687 40.775C17.0687 41.4712 17.3484 42.1389 17.8463 42.6312C18.3441 43.1234 19.0194 43.4 19.7235 43.4C20.123 43.3831 20.514 43.2805 20.8693 43.0992C21.2246 42.9178 21.5357 42.6622 21.781 42.35L23.3275 43.5313C22.748 44.2769 21.9469 44.8244 21.0366 45.0969C20.1264 45.3693 19.1527 45.3532 18.2522 45.0506C17.3517 44.748 16.5697 44.1742 16.0158 43.4097C15.462 42.6452 15.1642 41.7285 15.1642 40.7881C15.1642 39.8478 15.462 38.931 16.0158 38.1665C16.5697 37.4021 17.3517 36.8283 18.2522 36.5257C19.1527 36.2231 20.1264 36.2069 21.0366 36.4794C21.9469 36.7519 22.748 37.2994 23.3275 38.045" fill="white"/>
<path fill-rule="evenodd" clip-rule="evenodd" d="M30.9469 41.72L26.8518 36.5225H25.1261V45.0341H27.031V39.83L31.1261 45.0341H32.8518V36.5225H30.9469V41.72Z" fill="white"/>
<path fill-rule="evenodd" clip-rule="evenodd" d="M41.4336 39.7578C41.4336 39.5797 41.398 39.4034 41.3289 39.2389C41.2598 39.0745 41.1584 38.9252 41.0308 38.7996C40.9031 38.6739 40.7516 38.5745 40.585 38.507C40.4183 38.4394 40.2398 38.4051 40.0597 38.4059H37.6172V41.1162H40.0597C40.4241 41.1162 40.7735 40.9731 41.0312 40.7184C41.2888 40.4636 41.4336 40.1181 41.4336 39.7578ZM40.1659 36.5225C41.0337 36.5225 41.866 36.8634 42.4796 37.4701C43.0933 38.0768 43.438 38.8998 43.438 39.7578C43.438 40.6159 43.0933 41.4388 42.4796 42.0455C41.866 42.6523 41.0337 42.9931 40.1659 42.9931H37.6239V45.0275H35.719V36.4962H40.1659V36.5225Z" fill="white"/>
<path d="M50.646 32.2831H46.4646V49.2538H50.646V32.2831Z" fill="#C12581"/>
<path fill-rule="evenodd" clip-rule="evenodd" d="M29.2478 31.0625C31.5342 28.1526 34.4629 25.7978 37.8103 24.178C41.1577 22.5581 44.8352 21.7161 48.562 21.7161C52.2887 21.7161 55.9662 22.5581 59.3136 24.178C62.661 25.7978 65.5897 28.1526 67.8761 31.0625H62.2013C58.4698 27.7114 53.6096 25.8548 48.5686 25.8548C43.5276 25.8548 38.6674 27.7114 34.9359 31.0625H29.2478Z" fill="#59B3B0"/>
</g>
<defs>
<clipPath id="clip0">
<rect width="80" height="80" fill="white"/>
</clipPath>
</defs>
</svg>
