<svg xmlns="http://www.w3.org/2000/svg" width="107" height="32" viewBox="0 0 107 32">
    <path fill="#8C97A1" fill-rule="evenodd" d="M77.378 21.231c-.878-5.563-1.072-14.613.178-17.439.365-.806 1.21-2.67 4.9-2.066 3.453.567 3.113 3.893 2.961 4.75-1.486 8.655-5.09 13.001-5.631 13.87-.114.177-.92 3.578 1.197 4.662 1.762.903 4.014-3.523 4.498-5.452a3.06 3.06 0 0 1 .086-.705c-.008-.074 0-.1.024-.09.085-.28.254-.403.507-.38.252.063.541.151.869.252.327.113.63.227.92.365.302.139.567.303.819.492.251.189.44.403.579.655.139.252.24.617.315 1.096.076.479.151.97.24 1.461.088.492.163.945.251 1.348.089.404.215.656.403.744.14.063.328.025.593-.114.264-.138.541-.352.831-.63a8.33 8.33 0 0 0 .895-1.02c.252-.34.486-.72.692-1.146a16.48 16.48 0 0 1-.214-.933 37.33 37.33 0 0 1-.529-3.905 47.758 47.758 0 0 1-.164-4.75c.013-1.676.139-3.25.353-4.724.227-1.474.567-2.772 1.046-3.868.479-1.109 1.121-1.827 1.902-2.167.252-.126.668-.164 1.222-.139.555.026 1.147.139 1.79.303.642.164 1.26.416 1.864.743.592.315 1.045.706 1.335 1.134.34.504.53 1.172.58 2.028.05.857-.013 1.802-.202 2.86a31.58 31.58 0 0 1-.806 3.377 46.176 46.176 0 0 1-1.222 3.577 35.14 35.14 0 0 1-1.55 3.415 26.846 26.846 0 0 1-1.726 2.885c.013.567.05 1.096.139 1.587.075.441.176.844.315 1.235.138.39.327.667.592.819.252.163.479.126.655-.089.176-.214.34-.49.479-.831.138-.34.24-.718.315-1.121.075-.403.126-.744.15-1.02-.289-.34-.49-.681-.591-1.021-.101-.34-.126-.655-.063-.933.063-.277.214-.503.44-.692.228-.19.517-.29.87-.328.34 0 .781.076 1.298.227.529.15.932.403 1.222.743.29.29.491.605.617.983s.202.756.202 1.121c.604.164 1.096.189 1.486.076.39-.114.693-.378.933-.82.1-.125.226-.226.352-.302a.449.449 0 0 1 .39-.075c.127.038-1.158 2.834-3.83 2.444.719.113-.213 3.742-3.224 3.742-2.36 0-4.234-1.983-5.208-3.254-.312.855-1.304 3.241-3.775 3.241-2.494 0-4.057-3.25-4.359-3.817a7.964 7.964 0 0 1-.01-.018 67.06 67.06 0 0 1-.066.144c-.239.516-1.839 3.704-4.976 3.704-1.953 0-3.414-2.785-3.691-3.88a18.157 18.157 0 0 1-.125-.52c-.512.665-1.337 1.34-2.584 1.477-.428.05-.63.466-.819.932-.138.328-1.31 2.142-4.208 2.142-1.776 0-3.036-1.613-3.502-2.192a3.925 3.925 0 0 1-.08-.104 7.987 7.987 0 0 1-1.293 1.628c-.53.491-1.096.743-1.714.743-1.272 0-2.33-.352-3.175-1.045a8.004 8.004 0 0 1-2.066-2.608 24.951 24.951 0 0 1-.156-.314c-.464.977-2.446 3.964-5.929 3.93-3.65-.024-5.628-3.703-6.025-4.718-.502.703-1.352 1.46-2.68 1.606-.429.05-.63.466-.82.932-.138.328-1.31 2.142-4.207 2.142-1.776 0-3.036-1.613-3.502-2.192-.467-.58-.718-1.222-.731-1.94-.05-.68.038-1.386.24-2.13.2-.73.503-1.41.894-2.015a5.23 5.23 0 0 1 1.461-1.512c.555-.378 1.222-.58 1.978-.58.479 0 .932.114 1.36.353.43.24.719.567.845.97.92.202 1.625.63 2.104 1.273.479.642.756 1.385.831 2.204.522.06 1.329-.26 1.891-.933a5.151 5.151 0 0 1 0-.251c.012-.617.1-1.184.276-1.7.177-.517.378-.87.605-1.097.227-.214 1.323-2.167 5.354-1.121 3.88 1.033 2.898 3.968 2.62 4.384-.68 1.058-2.645-3.212-4.232-.894-.29.415-1.462 4.082 1.033 5.14 2.872 1.234 4.775-1.802 5.908-8.151.003-.012.005-.019.007-.02.137-1.013.326-2.086.536-3.137-4.466.06-2.898-1.165-2.898-1.165 1.084-.082 2.15-.17 3.2-.27.627-2.828 1.32-5.194 1.448-5.336.252-.277.567-.416.97-.416.366 0 .845.24 1.487.441 2.734.857 2.117 2.306 2.117 2.306l-.552 2.308a96.42 96.42 0 0 0 1.912-.267c.92-.126 1.487-.202 1.701-.202.403-.012.882.05 1.398.202.53.15 1.02.327 1.474.554.454.214.832.454 1.122.706.29.252.378.49.277.718-.076.126-.517.214-1.36.264-.832.05-1.94.088-3.327.126-1.104.03-2.344.06-3.72.09-.941 3.953-2.167 9.128-2.214 9.46-.163 1.297-.163 1.978.882 2.33 1.5.504 2.835-1.927 2.835-1.927 1.002-2.088 1.19-3.108 1.672-3.583a7.1 7.1 0 0 1 .646-1.267 5.23 5.23 0 0 1 1.461-1.512c.567-.378 1.222-.58 1.978-.58.48 0 .933.114 1.361.353.428.24.718.567.844.97.92.202 1.613.63 2.104 1.273.479.642.756 1.385.832 2.204.49.057 1.232-.223 1.787-.816zM37.682 25.84c.315.404.844.404 1.575 0 .73-.403 1.398-1.02 2.003-1.877-.617-.403-1.172-.932-1.688-1.612-.517-.668-.92-1.462-1.21-2.356-.655 1.146-1.07 2.28-1.234 3.414-.152 1.121.025 1.94.554 2.431zm31.647 0c.315.404.844.404 1.575 0 .73-.403 1.398-1.02 2.003-1.877a6.562 6.562 0 0 1-1.688-1.612c-.517-.668-.92-1.462-1.21-2.356-.655 1.146-1.07 2.28-1.234 3.414-.151 1.121.025 1.94.554 2.431zm10.936-15.244c-.05 1.726.063 3.364.201 6.614.202-.365 1.147-2.318 1.562-3.905.278-1.07.542-2.18.794-3.339.252-1.159.416-2.217.466-3.174.05-.958 0-1.764-.176-2.407-.177-.642-.517-.995-1.02-1.033-.316-.012-.605.177-.832.58-.24.403-.416.945-.554 1.638-.14.692-.24 1.474-.29 2.343-.05.882-.101 1.776-.151 2.683zm16.516.164c-.075 2.167-.05 4.636.063 7.395.227-.352.53-.97.895-1.814.365-.844.705-1.801 1.007-2.872.303-1.071.593-2.192.882-3.339.278-1.159.454-2.217.517-3.175.063-.957 0-1.763-.19-2.406-.2-.642-.579-.995-1.146-1.033-.365-.013-.667.176-.932.58-.264.403-.466.944-.617 1.637a16.779 16.779 0 0 0-.315 2.344c-.063.881-.114 1.776-.164 2.683zm4.825 10.76c.24.213.53.44.882.692a2.243 2.243 0 0 0-.126-.265 2.093 2.093 0 0 0-.24-.377c-.1-.126-.2-.265-.302-.404a2.22 2.22 0 0 0-.314-.352 1.137 1.137 0 0 0-.303-.202c-.088-.038-.164-.038-.227.025-.037.038-.05.088-.025.151a.556.556 0 0 0 .126.215c.063.075.139.163.24.252.088.088.189.176.29.264zm-12.22-8.051c0 1.033-.806 1.864-1.802 1.864-.995 0-1.801-.831-1.801-1.864 0-1.033.806-1.865 1.801-1.865.996 0 1.802.832 1.802 1.865zm-85.09 2.595s-.038.076-.1.227a6.435 6.435 0 0 0-.253.63 9.74 9.74 0 0 0-.604 2.28c-.063.479-.089.995-.063 1.55.012.277.037.567.075.856.025.151.038.277.063.34.025.101.063.215.101.328.315.895 1.26 1.978 2.57 2.948 1.323.958 2.948 1.852 4.75 2.721 1.814.844 3.855 1.676 6.11 2.003 1.121.152 2.28.19 3.44.026.579-.076 1.146-.202 1.713-.378a9.606 9.606 0 0 0 1.637-.643 9.355 9.355 0 0 0 2.797-2.091 10.506 10.506 0 0 0 1.852-2.898c.227-.529.416-1.058.58-1.612.164-.555.277-1.084.428-1.714l.114-.453.088-.429c.063-.29.138-.567.189-.856.05-.29.126-.58.176-.87.05-.29.1-.58.151-.856.403-2.28.479-4.536.101-6.426-.189-.944-.479-1.789-.87-2.532a9.66 9.66 0 0 0-.667-1.033 6.888 6.888 0 0 0-.831-.882c-1.21-1.096-2.835-1.827-4.46-2.293-1.638-.466-3.263-.718-4.737-.856a55.75 55.75 0 0 0-3.88-.24 64.973 64.973 0 0 0-2.558-.025c-.592 0-.907.013-.907.013h-.227l-.088-.328.201-.1s.29-.152.857-.391a28.047 28.047 0 0 1 2.495-.882 26.164 26.164 0 0 1 4.044-.87c1.6-.214 3.452-.327 5.53-.075 1.033.126 2.13.353 3.25.743.278.088.568.214.845.328.277.126.567.252.844.403.567.29 1.121.655 1.663 1.058.542.416 1.046.895 1.512 1.424.453.542.87 1.134 1.222 1.764.34.63.63 1.297.831 1.978.114.34.19.68.277 1.033.076.34.126.693.177 1.033.189 1.386.151 2.771 0 4.107a25.375 25.375 0 0 1-.781 3.918c-.088.315-.19.63-.277.945-.101.315-.202.63-.315.932-.101.315-.227.63-.353.932l-.19.467c-.062.15-.125.29-.188.44l-.403.895c-.151.315-.303.63-.466.932a15.393 15.393 0 0 1-1.122 1.764 14.543 14.543 0 0 1-2.91 2.923 15.796 15.796 0 0 1-4.372 2.305 8.604 8.604 0 0 1-.92.29 23.64 23.64 0 0 1-1.864.454c-1.247.24-2.482.403-3.729.491-2.47.164-4.951.038-7.219-.554-2.268-.58-4.321-1.613-5.971-2.974a11.79 11.79 0 0 1-2.193-2.292C.857 25.134.365 24.164.176 23.106a5.698 5.698 0 0 1-.1-.794c-.013-.303-.013-.542.025-.743.025-.215.05-.416.1-.618.038-.201.076-.403.14-.592a7.477 7.477 0 0 1 .83-1.978c.668-1.109 1.424-1.751 1.953-2.116.126-.101.252-.177.366-.24.1-.063.189-.113.264-.151a3.62 3.62 0 0 0 .215-.113l.201-.101.202.189-.076.214zm14.74-8.076c.202-1.07 3.477-2.885 3.175-1.322-.945 4.8-1.877 9.6-2.822 14.4-.202 1.083-3.477 2.897-3.175 1.322.945-4.8 1.877-9.6 2.822-14.4z"/>
</svg>
