<svg xmlns="http://www.w3.org/2000/svg" width="80" height="80" viewBox="0 0 80 80">
    <g fill="none" fill-rule="evenodd">
        <circle cx="40" cy="40" r="40" fill="#0796DD"/>
        <path fill="#FFF" d="M52.27 42.638c-.443-2.801-.54-7.36.09-8.783.183-.406.608-1.345 2.467-1.04 1.739.285 1.568 1.96 1.491 2.392-.748 4.359-2.563 6.548-2.836 6.986-.057.089-.463 1.802.603 2.347.888.455 2.022-1.774 2.265-2.745.003-.135.018-.253.044-.355-.004-.037 0-.051.012-.046.043-.14.128-.203.255-.191.127.032.273.076.438.127.165.057.317.114.463.184.152.07.286.152.412.247.127.096.223.203.292.33.07.127.12.311.159.552.038.241.076.489.12.736.045.248.083.476.127.68.045.202.108.33.203.374.07.031.165.012.299-.057.133-.07.273-.178.418-.318.146-.14.299-.31.451-.514.127-.171.245-.362.349-.577a8.3 8.3 0 0 1-.108-.47 18.801 18.801 0 0 1-.266-1.967 24.053 24.053 0 0 1-.083-2.392c.006-.844.07-1.637.178-2.379.114-.742.285-1.396.526-1.948.242-.558.565-.92.959-1.091.126-.064.336-.083.615-.07.28.013.577.07.901.152.324.083.634.21.939.375.298.158.527.355.673.57.17.254.266.59.291 1.022.026.432-.006.907-.101 1.44a15.905 15.905 0 0 1-.406 1.7c-.178.597-.38 1.2-.616 1.803a17.698 17.698 0 0 1-.78 1.72 13.52 13.52 0 0 1-.87 1.452c.007.286.026.552.07.8.039.222.09.425.16.622.069.196.164.336.297.412.127.083.241.064.33-.044.09-.108.172-.248.241-.419.07-.171.12-.362.159-.565.038-.203.063-.374.076-.514a1.44 1.44 0 0 1-.298-.514.933.933 0 0 1-.032-.47.628.628 0 0 1 .222-.348.795.795 0 0 1 .438-.165c.171 0 .393.038.654.114.266.076.47.203.615.374.146.146.248.305.311.495s.102.381.102.565c.304.083.552.095.748.038.197-.057.35-.19.47-.412a.668.668 0 0 1 .177-.153.226.226 0 0 1 .197-.038c.064.02-.584 1.428-1.929 1.231.362.057-.108 1.885-1.624 1.885-1.188 0-2.132-.999-2.623-1.639-.157.43-.657 1.632-1.901 1.632-1.256 0-2.043-1.637-2.195-1.922a4.03 4.03 0 0 1-.005-.009 33.78 33.78 0 0 1-.034.072c-.12.26-.926 1.866-2.506 1.866-.983 0-1.72-1.402-1.859-1.954a9.144 9.144 0 0 1-.062-.262 1.87 1.87 0 0 1-1.302.744c-.216.025-.317.234-.413.47-.07.164-.66 1.078-2.119 1.078-.894 0-1.529-.812-1.764-1.104a1.977 1.977 0 0 1-.04-.052c-.18.302-.401.576-.651.82-.267.247-.552.374-.863.374-.641 0-1.174-.178-1.6-.527a4.031 4.031 0 0 1-1.04-1.313 12.565 12.565 0 0 1-.079-.158c-.233.492-1.231 1.996-2.985 1.979-1.84-.012-2.835-1.865-3.035-2.376-.253.354-.68.736-1.35.809-.216.025-.317.234-.412.47-.07.164-.66 1.078-2.12 1.078-.894 0-1.529-.812-1.763-1.104a1.57 1.57 0 0 1-.368-.977 3.187 3.187 0 0 1 .12-1.073c.102-.368.254-.71.45-1.015.197-.31.445-.558.737-.761.279-.19.615-.292.996-.292.24 0 .47.057.685.178.216.12.362.285.425.488.463.102.819.317 1.06.641.24.324.38.698.419 1.11.262.03.669-.13.952-.47a2.817 2.817 0 0 1 .14-.983c.088-.26.19-.437.303-.552.115-.107.667-1.091 2.697-.564 1.954.52 1.46 1.998 1.32 2.208-.343.533-1.333-1.618-2.132-.45-.146.209-.736 2.055.52 2.588 1.447.622 2.405-.907 2.976-4.105l.003-.01c.07-.51.164-1.05.27-1.58-2.249.03-1.46-.587-1.46-.587a87.486 87.486 0 0 0 1.613-.136c.315-1.424.664-2.616.729-2.687a.624.624 0 0 1 .488-.21c.184 0 .426.121.75.223 1.376.431 1.065 1.16 1.065 1.16l-.278 1.163c.366-.048.688-.092.963-.134.464-.064.75-.102.857-.102.203-.006.444.025.704.102.267.076.514.165.743.279.228.108.418.228.564.355.146.127.19.248.14.362-.038.063-.26.108-.685.133-.42.025-.977.044-1.675.063-.556.016-1.181.03-1.874.046-.474 1.99-1.092 4.597-1.115 4.764-.082.654-.082.996.444 1.174.755.254 1.428-.97 1.428-.97.504-1.052.599-1.566.842-1.805.088-.227.198-.44.325-.639.197-.31.444-.558.736-.761.286-.19.616-.292.997-.292.24 0 .47.057.685.178.216.12.361.285.425.488.463.102.812.317 1.06.641.24.324.38.698.418 1.11.247.029.621-.112.9-.41zM32.276 44.96c.159.203.425.203.793 0 .368-.203.705-.514 1.01-.945a3.41 3.41 0 0 1-.851-.812 3.882 3.882 0 0 1-.61-1.187c-.33.578-.539 1.149-.621 1.72-.076.564.013.977.28 1.224zm15.939 0c.158.203.425.203.793 0 .368-.203.704-.514 1.009-.945a3.305 3.305 0 0 1-.85-.812 3.882 3.882 0 0 1-.61-1.187c-.33.578-.539 1.149-.621 1.72-.077.564.012.977.279 1.224zm5.507-7.677c-.025.869.032 1.694.102 3.33.101-.183.577-1.167.787-1.966.14-.54.272-1.098.4-1.681.126-.584.209-1.117.234-1.6.025-.482 0-.888-.089-1.211-.089-.324-.26-.502-.514-.52-.158-.007-.304.088-.418.291-.121.203-.21.476-.28.825a8.56 8.56 0 0 0-.146 1.18l-.076 1.352zm8.319.082a49.759 49.759 0 0 0 .031 3.725c.115-.178.267-.489.45-.914.185-.425.356-.907.508-1.447.153-.539.299-1.104.445-1.681a9.69 9.69 0 0 0 .26-1.599c.032-.482 0-.888-.095-1.212-.102-.323-.292-.501-.578-.52-.184-.006-.336.089-.47.292-.133.203-.234.476-.31.825a8.45 8.45 0 0 0-.159 1.18c-.032.444-.057.894-.082 1.351zm2.43 5.419c.12.108.266.222.444.349a1.13 1.13 0 0 0-.063-.133 1.054 1.054 0 0 0-.121-.19 5.64 5.64 0 0 1-.152-.204 1.118 1.118 0 0 0-.159-.177.573.573 0 0 0-.152-.102c-.045-.019-.083-.019-.114.013-.02.019-.026.044-.013.076a.28.28 0 0 0 .063.108c.032.038.07.082.12.127.045.044.096.089.147.133zm-6.155-4.055c0 .52-.406.94-.907.94s-.908-.42-.908-.94.407-.939.908-.939c.501 0 .907.42.907.94zm-42.854 1.308s-.02.038-.051.114a3.24 3.24 0 0 0-.127.317 4.905 4.905 0 0 0-.305 1.148 4.431 4.431 0 0 0-.031.78c.006.14.019.286.038.432.013.076.019.14.032.172.012.05.031.108.05.165.159.45.635.996 1.295 1.484.666.483 1.484.933 2.392 1.37.913.426 1.941.845 3.077 1.01a6.33 6.33 0 0 0 1.732.012 5.12 5.12 0 0 0 .863-.19c.286-.082.559-.19.825-.324a4.712 4.712 0 0 0 1.409-1.053c.393-.431.704-.933.932-1.46.115-.266.21-.532.292-.811.083-.28.14-.546.216-.863l.057-.229.045-.215c.031-.146.07-.286.095-.432.025-.146.063-.292.089-.438.025-.146.05-.292.076-.431.203-1.149.24-2.284.05-3.236a4.717 4.717 0 0 0-.437-1.275 4.865 4.865 0 0 0-.337-.52 3.469 3.469 0 0 0-.418-.445c-.61-.552-1.428-.92-2.247-1.155a13.281 13.281 0 0 0-2.385-.431 28.078 28.078 0 0 0-1.955-.12c-.552-.013-.99-.02-1.288-.013-.298 0-.456.006-.456.006h-.115l-.044-.165.101-.05s.146-.077.432-.197a13.177 13.177 0 0 1 3.293-.882 10.867 10.867 0 0 1 2.785-.039c.52.064 1.073.178 1.637.375.14.044.286.108.426.165.14.063.285.127.425.203.285.146.564.33.837.533.273.21.527.45.762.717.228.273.437.57.615.888.171.317.317.654.419.996.057.172.095.343.14.52.038.172.063.35.088.52a8.356 8.356 0 0 1 0 2.07 12.78 12.78 0 0 1-.393 1.973c-.044.158-.095.317-.14.476-.05.158-.101.317-.158.47-.051.158-.114.316-.178.469l-.095.234c-.032.077-.064.146-.095.222l-.203.451a7.752 7.752 0 0 1-.8 1.358 7.324 7.324 0 0 1-1.466 1.472 7.956 7.956 0 0 1-2.201 1.161c-.153.057-.311.108-.463.146-.311.089-.622.165-.94.228-.628.12-1.25.203-1.878.248-1.243.082-2.493.019-3.635-.28-1.142-.291-2.177-.812-3.008-1.497a5.938 5.938 0 0 1-1.104-1.155c-.304-.431-.552-.92-.647-1.453a2.87 2.87 0 0 1-.05-.4 1.715 1.715 0 0 1 .012-.374c.013-.108.025-.21.05-.31.02-.102.039-.204.07-.299.102-.38.248-.717.42-.996.335-.558.716-.882.983-1.066.063-.05.127-.089.184-.12.05-.032.095-.058.133-.077.076-.038.108-.057.108-.057l.101-.05.102.095-.038.108zm7.423-4.068c.102-.539 1.752-1.453 1.6-.666-.477 2.418-.946 4.835-1.422 7.252-.101.546-1.751 1.46-1.599.667.476-2.418.946-4.835 1.421-7.253z"/>
    </g>
</svg>
