<svg width="80" height="80" viewBox="0 0 80 80" fill="none" xmlns="http://www.w3.org/2000/svg">
<path d="M40 80C62.0914 80 80 62.0914 80 40C80 17.9086 62.0914 0 40 0C17.9086 0 0 17.9086 0 40C0 62.0914 17.9086 80 40 80Z" fill="#262959"/>
<path d="M18.9331 33.7801V28.7539H22.7692V46.9738H18.9331V46.3456C18.1019 46.8482 16.951 47.0995 15.6723 47.0995C11.4525 47.0995 8 44.0838 8 40.1257C8 36.1047 11.4525 32.9005 15.6723 32.9005C16.8871 32.9005 18.038 33.2775 18.9331 33.7801ZM15.8362 44.0838C17.0621 44.0838 18.1589 43.5183 18.9331 42.7016V37.6754C18.6105 37.2984 18.2879 36.9843 17.8363 36.733C17.2556 36.356 16.5459 36.1675 15.8362 36.1675C13.6426 36.1675 11.8362 37.9267 11.8362 40.1257C11.8362 42.3246 13.6426 44.0838 15.8362 44.0838ZM24.6873 33.1518H28.5235V46.9738H24.6873V33.1518ZM31.7203 37.0471C30.5903 37.0471 29.6743 36.147 29.6743 35.0366C29.6743 33.9263 30.5903 33.0262 31.7203 33.0262C32.8502 33.0262 33.7662 33.9263 33.7662 35.0366C33.7662 36.147 32.8502 37.0471 31.7203 37.0471ZM35.5564 33.1518H39.3926V46.9738H35.5564V33.1518ZM37.4745 32.0209C36.3446 32.0209 35.4286 31.1208 35.4286 30.0105C35.4286 28.9001 36.3446 28 37.4745 28C38.6045 28 39.5205 28.9001 39.5205 30.0105C39.5205 31.1208 38.6045 32.0209 37.4745 32.0209ZM48.6633 40.8168L51.8601 33.1518H56.016L50.006 46.9738H47.2567L41.3107 33.1518H45.4665L48.6633 40.8168ZM67.8442 33.1518H72L66.1179 47.0366L64.008 52H59.8521L62.4096 46.2827C62.6014 45.8429 62.6014 45.2775 62.4096 44.8377L57.2947 33.1518H61.4506L64.7113 40.8168L67.8442 33.1518Z" fill="white"/>
</svg>
