<svg width="80" height="80" viewBox="0 0 80 80" fill="none" xmlns="http://www.w3.org/2000/svg">
<path d="M40 80C62.0914 80 80 62.0914 80 40C80 17.9086 62.0914 0 40 0C17.9086 0 0 17.9086 0 40C0 62.0914 17.9086 80 40 80Z" fill="#0D0809"/>
<path d="M6 45.5876L7.76443 45.5938L11.871 34H10.1128L6 45.5876Z" fill="white"/>
<path d="M12.141 45.6063H13.9054L18.012 34.0187L16.2538 34.0124L12.141 45.6063Z" fill="white"/>
<path d="M22.8092 42.9815H23.7071L23.7134 40.139L26.2816 40.1452V39.3055L23.7134 39.2993L23.7197 37.5204L26.5767 37.5267V36.687L22.8218 36.6808L22.8092 42.9815Z" fill="white"/>
<path d="M36.3783 39.6912C36.7865 39.3926 37 38.9137 37 38.441C37 37.4893 36.4976 36.7119 34.9718 36.7056L32.8934 36.6994L32.8809 43.0002L35.0095 43.0064C36.6358 43.0126 37.2009 42.1978 37.2009 41.1777C37.1946 40.5682 36.9434 39.9711 36.3783 39.6912ZM33.7851 37.5453H34.9969C35.8886 37.5453 36.0393 37.9932 36.0393 38.441C36.0393 38.8764 35.8446 39.3304 35.0597 39.3304H33.7788L33.7851 37.5453ZM35.0409 42.1667H33.7788L33.7851 40.1639H35.066C35.9325 40.1639 36.2465 40.4749 36.2402 41.1777C36.2339 41.6629 36.0392 42.1729 35.0409 42.1667Z" fill="white"/>
<path d="M38.0297 43.0126L41.8537 43.025V42.1854L38.9214 42.1791L38.9276 40.1763L41.5774 40.1826L41.5837 39.3429L38.9276 39.3367L38.9339 37.5578L41.8663 37.564V36.7243L38.0423 36.7119L38.0297 43.0126Z" fill="white"/>
<path d="M47.3794 38.5654C47.3794 37.4396 46.877 36.7305 45.2382 36.7305L43.1849 36.7243L43.1661 43.025H44.0577L44.064 40.4065L45.4014 40.4127L46.6949 43.0375H47.8001C47.3542 42.1791 46.7891 41.1342 46.3245 40.2634C47.1094 39.9897 47.3731 39.3926 47.3794 38.5654ZM45.3449 39.573H44.064L44.0703 37.5702H45.3512C46.2868 37.5702 46.4187 38.018 46.4187 38.5654C46.4187 39.1252 46.2805 39.573 45.3449 39.573Z" fill="white"/>
<path d="M52.748 41.3208L49.7968 36.743H49.0936L49.081 43.0437H49.9412L49.935 38.4721L52.8861 43.0499H53.5894L53.602 36.7492H52.7417L52.748 41.3208Z" fill="white"/>
<path d="M56.8609 36.6497C54.7322 36.6434 54.4434 38.2544 54.4371 39.9027C54.4308 41.5509 54.7197 43.1619 56.8483 43.1681C58.9832 43.1743 59.2658 41.5634 59.272 39.9151C59.272 38.2668 58.9958 36.6559 56.8609 36.6497ZM56.842 42.3284C55.5297 42.3222 55.3413 41.2088 55.3476 39.9027C55.3539 38.6027 55.5422 37.4831 56.8546 37.4894C58.1669 37.4956 58.3553 38.6089 58.349 39.9089C58.349 41.2151 58.1606 42.3346 56.842 42.3284Z" fill="white"/>
<path d="M65.9907 43.081L69.8146 43.0872V42.2476L66.8823 42.2413L66.8886 40.2448L69.5446 40.251V39.4113L66.8886 39.4051L66.8949 37.62L69.8272 37.6262L69.8335 36.7865L66.0095 36.7803L65.9907 43.081Z" fill="white"/>
<path d="M72.0249 42.2538L72.0374 36.7927H71.1458L71.1332 43.0935L74.8065 43.0997V42.26L72.0249 42.2538Z" fill="white"/>
<path d="M28.8622 36.6683H28.8559L26.6205 42.9877H27.575L29.3394 38.0305L31.0662 43.0002H32.0331L29.8229 36.6745L28.8622 36.6683Z" fill="white"/>
<path d="M62.4492 41.7064L60.7162 36.743H59.7555L61.9657 43.0686H62.1415L62.9264 43.0748L65.1618 36.7554H64.2011L62.4492 41.7064Z" fill="white"/>
</svg>
