<?xml version="1.0" standalone="no"?>
<!DOCTYPE svg PUBLIC "-//W3C//DTD SVG 20010904//EN"
 "http://www.w3.org/TR/2001/REC-SVG-20010904/DTD/svg10.dtd">
<svg version="1.0" xmlns="http://www.w3.org/2000/svg"
 width="401.000000pt" height="218.000000pt" viewBox="0 0 401.000000 218.000000"
 preserveAspectRatio="xMidYMid meet">
<metadata>
Created by potrace 1.15, written by Peter Selinger 2001-2017
</metadata>
<g transform="translate(0.000000,218.000000) scale(0.100000,-0.100000)"
fill="#3C579A" stroke="none">
<path d="M32 2148 c-9 -9 -12 -166 -12 -645 0 -615 1 -633 19 -643 13 -7 646
-10 1975 -10 l1955 0 15 22 c14 20 16 97 16 636 0 404 -4 620 -10 633 -11 19
-43 19 -1978 19 -1517 0 -1971 -3 -1980 -12z m676 -340 l3 -58 -35 0 c-57 0
-66 -7 -66 -56 l0 -44 51 0 52 0 -7 -37 c-3 -21 -6 -48 -6 -60 0 -20 -5 -23
-45 -23 l-45 0 -2 -162 -3 -163 -70 0 -70 0 -3 163 -2 162 -30 0 c-30 0 -30 0
-30 60 l0 60 30 0 c28 0 30 3 30 38 1 93 34 154 94 172 17 5 58 8 91 7 l60 -2
3 -57z m1352 -56 c0 -54 3 -101 6 -104 3 -3 22 -2 41 4 20 5 61 7 92 3 44 -6
62 -14 88 -40 l33 -33 0 -140 c0 -128 -2 -142 -23 -173 -34 -51 -83 -71 -180
-72 -45 0 -108 3 -140 7 l-57 7 2 312 3 312 35 6 c19 4 50 7 68 8 l32 1 0 -98z
m1312 -94 l3 -192 58 92 59 92 74 0 c41 0 74 -2 74 -4 0 -3 -30 -52 -66 -110
l-66 -105 66 -110 c36 -60 66 -112 66 -115 0 -3 -34 -6 -75 -6 l-74 0 -58 97
-58 97 -3 -97 -3 -97 -70 0 -69 0 2 318 3 317 35 6 c19 4 50 7 67 8 l33 1 2
-192z m-1929 -19 c15 -8 17 -20 15 -62 l-3 -52 -45 5 c-145 15 -160 5 -160
-105 0 -100 10 -111 97 -107 37 1 77 3 88 5 17 2 20 -5 23 -51 3 -49 1 -53
-25 -63 -15 -6 -64 -11 -108 -12 -68 -1 -88 3 -125 24 -67 36 -90 88 -90 204
1 138 38 200 136 224 44 11 169 4 197 -10z m360 -6 c57 -34 72 -65 75 -164 l4
-89 -126 0 c-133 0 -142 -4 -112 -45 12 -16 26 -19 91 -18 42 1 90 5 106 8
l29 7 0 -61 0 -60 -47 -7 c-27 -5 -82 -8 -125 -7 -99 1 -153 28 -185 93 -19
37 -23 61 -23 139 0 138 30 192 121 220 47 14 155 5 192 -16z m868 2 c38 -20
77 -70 85 -110 3 -18 4 -76 2 -129 -3 -102 -14 -127 -72 -170 -23 -18 -42 -21
-126 -21 -84 0 -103 3 -126 21 -61 45 -69 66 -72 188 -3 100 -1 119 17 155 21
41 58 67 116 82 40 11 142 1 176 -16z m439 -3 c47 -23 77 -72 86 -139 9 -73
-3 -181 -24 -218 -60 -104 -296 -101 -357 5 -17 29 -20 53 -20 145 0 121 12
157 67 198 53 39 177 44 248 9z m-2114 -1 c66 -30 74 -59 74 -260 l0 -171 -59
0 c-36 0 -61 5 -63 12 -3 9 -12 9 -38 0 -47 -17 -126 -15 -161 4 -76 39 -77
188 -1 224 15 7 62 15 105 18 71 4 77 6 77 26 0 38 -19 46 -107 46 l-83 0 0
38 c0 82 0 82 114 82 77 0 111 -5 142 -19z"/>
<path d="M2090 1527 c-24 -12 -25 -16 -25 -112 l0 -100 33 -3 c19 -2 44 4 58
13 22 14 24 21 24 105 0 88 -1 91 -26 100 -32 12 -34 12 -64 -3z"/>
<path d="M2522 1524 c-20 -14 -22 -24 -22 -98 0 -93 9 -109 62 -109 45 0 58
24 58 110 0 60 -4 77 -20 93 -24 24 -48 25 -78 4z"/>
<path d="M2963 1530 c-21 -9 -23 -15 -23 -98 0 -97 8 -114 55 -114 47 0 55 17
55 113 0 87 -1 90 -26 99 -30 12 -32 12 -61 0z"/>
<path d="M10 275 l0 -275 275 0 275 0 0 275 0 275 -275 0 -275 0 0 -275z m298
115 l23 -69 82 -3 82 -3 -66 -45 -66 -45 23 -69 c13 -38 22 -71 21 -73 -2 -1
-31 18 -66 43 l-62 45 -59 -42 c-33 -23 -63 -40 -66 -37 -2 3 6 35 20 71 l25
66 -66 43 -65 43 80 3 80 3 21 58 c11 32 21 63 21 70 0 31 19 3 38 -59z"/>
<path d="M700 275 l0 -275 275 0 275 0 0 275 0 275 -275 0 -275 0 0 -275z
m298 115 l23 -69 82 -3 82 -3 -66 -45 -66 -45 23 -69 c13 -38 22 -71 21 -73
-2 -1 -31 18 -66 43 l-62 45 -59 -42 c-33 -23 -63 -40 -66 -37 -2 3 6 35 20
71 l25 66 -66 43 -65 43 80 3 80 3 21 58 c11 32 21 63 21 70 0 31 19 3 38 -59z"/>
<path d="M1390 275 l0 -275 275 0 275 0 0 275 0 275 -275 0 -275 0 0 -275z
m298 115 l23 -69 82 -3 82 -3 -66 -45 -66 -45 23 -69 c13 -38 22 -71 21 -73
-2 -1 -31 18 -66 43 l-62 45 -59 -42 c-33 -23 -63 -40 -66 -37 -2 3 6 35 20
71 l25 66 -66 43 -65 43 80 3 80 3 21 58 c11 32 21 63 21 70 0 31 19 3 38 -59z"/>
<path d="M2080 275 l0 -275 275 0 275 0 0 275 0 275 -275 0 -275 0 0 -275z
m298 115 l23 -69 82 -3 82 -3 -66 -45 -66 -45 23 -69 c13 -38 22 -71 21 -73
-2 -1 -31 18 -66 43 l-62 45 -59 -42 c-33 -23 -63 -40 -66 -37 -2 3 6 35 20
71 l25 66 -66 43 -65 43 80 3 80 3 21 58 c11 32 21 63 21 70 0 31 19 3 38 -59z"/>
<path d="M2770 275 l0 -275 275 0 275 0 0 275 0 275 -275 0 -275 0 0 -275z
m298 115 l23 -69 82 -3 82 -3 -66 -45 -66 -45 23 -69 c13 -38 22 -71 21 -73
-2 -1 -31 18 -66 43 l-62 45 -59 -42 c-33 -23 -63 -40 -66 -37 -2 3 6 35 20
71 l25 66 -66 43 -65 43 80 3 80 3 21 58 c11 32 21 63 21 70 0 31 19 3 38 -59z"/>
<path d="M3460 275 l0 -275 275 0 275 0 0 275 0 275 -275 0 -275 0 0 -275z
m298 115 l23 -69 82 -3 82 -3 -66 -45 -66 -45 23 -69 c13 -38 22 -71 21 -73
-2 -1 -31 18 -66 43 l-62 45 -59 -42 c-33 -23 -63 -40 -66 -37 -2 3 6 35 20
71 l25 66 -66 43 -65 43 80 3 80 3 21 58 c11 32 21 63 21 70 0 31 19 3 38 -59z"/>
</g>
</svg>
