<svg width="80" height="80" viewBox="0 0 80 80" fill="none" xmlns="http://www.w3.org/2000/svg">
<path d="M40 80C62.0914 80 80 62.0914 80 40C80 17.9086 62.0914 0 40 0C17.9086 0 0 17.9086 0 40C0 62.0914 17.9086 80 40 80Z" fill="white"/>
<path d="M28.1091 30C26.5291 30.0019 24.8224 30.5082 23.7071 31.0155V31.0123C21.84 31.848 20.6226 32.7113 19.7145 33.6608C18.842 34.5728 18.2593 35.5567 17.6451 36.6499H14.2698C14.172 36.6499 14.0836 36.7045 14.0391 36.79L13.5973 37.6367C13.5562 37.7157 13.5599 37.8095 13.6071 37.885C13.6542 37.9605 13.7409 38.006 13.8312 38.006H17.0279L11.0244 50.5131C10.9786 50.6083 10.9987 50.7236 11.0731 50.7996L11.1933 50.9206C11.2522 50.9808 11.3366 51.0099 11.4207 50.997L13.8702 50.6245C13.9517 50.6122 14.0238 50.5625 14.0619 50.4908L20.6859 38.006H24.8994C24.9939 38.006 25.0807 37.9562 25.1268 37.8755L25.6076 37.0287C25.6524 36.95 25.6509 36.8549 25.6044 36.7772C25.5578 36.6994 25.4722 36.6499 25.3802 36.6499H21.3844L22.6059 34.186L22.6091 34.1828C22.8879 33.5958 23.1966 32.9866 23.7071 32.5307C23.9628 32.3022 24.2673 32.1091 24.6558 31.9705C25.044 31.8319 25.5181 31.7478 26.1047 31.7476C26.5261 31.7472 26.9459 31.8448 27.3651 31.9482C27.7843 32.0503 28.1998 32.1604 28.6289 32.1615C28.8528 32.1617 29.0578 32.1054 29.2299 32.0182C29.489 31.8865 29.679 31.6896 29.8081 31.493C29.8727 31.3942 29.9226 31.296 29.9576 31.2001C29.9923 31.1036 30.0121 31.0105 30.0128 30.9136C30.013 30.8163 29.9914 30.7215 29.9511 30.6367C29.8799 30.4873 29.7591 30.3798 29.6262 30.2992C29.4251 30.1784 29.185 30.1092 28.9245 30.0637C28.664 30.0188 28.3846 30.0001 28.1091 30V30ZM49.5633 35.332C46.6002 35.333 43.6711 36.2422 41.4676 37.5699C40.3659 38.2345 39.4442 39.0062 38.7907 39.83C38.1384 40.6531 37.7519 41.5344 37.7511 42.4212C37.7509 42.799 37.8383 43.1858 38.0337 43.5449C38.3266 44.0845 38.8597 44.5577 39.6613 44.8883C40.4639 45.2197 41.5372 45.4133 42.9457 45.4135C46.5346 45.4139 49.5105 44.2385 52.1784 42.7459C52.2576 42.7016 52.3098 42.6188 52.3116 42.5294C52.3136 42.4402 52.2655 42.354 52.1882 42.3066L51.6261 41.9628C51.5496 41.9158 51.4536 41.9106 51.3728 41.9501C49.1079 43.0559 46.7762 43.813 44.5083 43.8123C43.5916 43.8132 42.8007 43.6749 42.2668 43.4335C41.9993 43.3135 41.7967 43.1709 41.669 43.0165C41.5415 42.8608 41.4819 42.6995 41.4806 42.504C41.4811 42.0487 41.541 41.6249 41.7177 41.1861C43.8622 41.0774 46.7692 40.7898 49.1897 40.1897C50.4308 39.8811 51.5426 39.4928 52.3668 38.9896C52.7788 38.7374 53.1226 38.4558 53.3674 38.1301C53.6121 37.8057 53.7548 37.4292 53.754 37.0255C53.7544 36.8464 53.711 36.6757 53.6306 36.5257C53.4889 36.2617 53.2492 36.0671 52.9646 35.9146C52.5358 35.6864 51.9883 35.5459 51.3955 35.4562C50.8028 35.3673 50.1665 35.3321 49.5633 35.332ZM64.8092 35.332C61.8463 35.333 58.9207 36.2422 56.7168 37.5699C55.615 38.2345 54.6935 39.0062 54.0399 39.83C53.3874 40.6531 52.9979 41.5344 52.9971 42.4212C52.9969 42.799 53.0843 43.1858 53.2797 43.5449C53.5726 44.0845 54.1058 44.5577 54.9073 44.8883C55.7099 45.2197 56.7832 45.4133 58.1917 45.4135C61.7817 45.4139 64.7565 44.2384 67.4244 42.7459C67.5037 42.7016 67.5556 42.6188 67.5576 42.5294C67.5594 42.4402 67.5113 42.3541 67.4341 42.3066L66.8721 41.9628C66.7956 41.9159 66.6996 41.9106 66.6187 41.9501C64.3526 43.0559 62.0208 43.813 59.7543 43.8123C58.8375 43.8132 58.0467 43.6749 57.5127 43.4335C57.2453 43.3135 57.046 43.1709 56.9182 43.0165C56.7907 42.8608 56.7278 42.6995 56.7265 42.504C56.7271 42.0491 56.7875 41.6254 56.9637 41.1861C59.1084 41.0775 62.0145 40.7901 64.4356 40.1897C65.6766 39.8811 66.7887 39.4928 67.6128 38.9896C68.0246 38.7374 68.3686 38.4558 68.6134 38.1301C68.858 37.8057 69.0009 37.429 69 37.0255C69.0004 36.8464 68.957 36.6757 68.8765 36.5257C68.7349 36.2618 68.4952 36.0671 68.2106 35.9146C67.7819 35.6864 67.234 35.5459 66.6415 35.4562C66.0493 35.3673 65.4115 35.3321 64.8092 35.332ZM31.9295 35.5739C31.3941 35.5746 30.8098 35.7065 30.211 35.9082C29.3134 36.2114 28.383 36.6754 27.5796 37.1369C26.776 37.599 26.1017 38.0569 25.7148 38.3466C25.6485 38.3961 25.6115 38.4751 25.6141 38.5567C25.6167 38.6383 25.6586 38.7148 25.7278 38.7604L26.2508 39.1042C26.3367 39.1607 26.4497 39.1623 26.5367 39.1074C26.8508 38.9091 27.4137 38.5741 28.0246 38.2925C28.3299 38.1516 28.6468 38.0235 28.9472 37.9328C29.2473 37.8416 29.5308 37.7891 29.7627 37.7895C29.9728 37.7901 30.0982 37.8467 30.172 37.9073C30.2466 37.9679 30.2678 38.0379 30.2662 38.0601C30.2667 38.0983 30.2563 38.1738 30.2305 38.2606C30.1547 38.5251 29.9623 38.9006 29.8211 39.1265L29.8179 39.1329L26.6569 44.7164C26.6361 44.7482 26.6102 44.7868 26.5855 44.8373C26.5614 44.8876 26.5371 44.9533 26.5367 45.0379C26.5366 45.093 26.5522 45.1442 26.5725 45.1843C26.6118 45.26 26.6612 45.3044 26.7089 45.3403C26.7934 45.4011 26.8842 45.4396 26.9883 45.4772C27.1435 45.5321 27.3252 45.5762 27.5146 45.6077C27.7038 45.6388 27.9004 45.6585 28.0798 45.6586C28.444 45.6585 28.7878 45.654 29.0642 45.63C29.2031 45.6176 29.3237 45.6008 29.4313 45.5727C29.4855 45.5583 29.5375 45.5398 29.5905 45.5122C29.6421 45.484 29.7026 45.4457 29.7497 45.3657L29.7529 45.3626L30.4741 44.067C31.131 43.041 32.1641 41.559 33.3622 40.3425C33.9629 39.732 34.6032 39.1898 35.2529 38.805C35.903 38.4192 36.5579 38.1933 37.1858 38.1938C37.6391 38.1928 38.1595 38.2724 38.6705 38.2734C39.0181 38.2736 39.3181 38.2012 39.5704 38.0792C39.9498 37.8963 40.2124 37.611 40.376 37.3248C40.458 37.1811 40.5159 37.0375 40.5547 36.9014C40.5934 36.7651 40.6131 36.636 40.6132 36.5194C40.6136 36.3709 40.5789 36.2242 40.5027 36.096C40.4461 35.9999 40.3675 35.9151 40.2753 35.8477C40.1364 35.7466 39.968 35.6812 39.775 35.6376C39.5818 35.5942 39.3636 35.5741 39.1123 35.5739C38.4177 35.5752 37.6763 35.8154 36.9292 36.1756C35.8096 36.7175 34.6739 37.541 33.7098 38.3275C33.2828 38.676 32.897 39.0115 32.5565 39.3175L33.4012 37.7768L33.4044 37.7736C33.5277 37.5441 33.6303 37.3312 33.7065 37.1369C33.7446 37.0397 33.7783 36.9448 33.8007 36.8568C33.823 36.7686 33.8362 36.6849 33.8365 36.599C33.8376 36.4134 33.7783 36.2367 33.6675 36.096C33.5853 35.9901 33.4785 35.9047 33.3589 35.8382C33.1791 35.7383 32.9675 35.6758 32.7287 35.6344C32.49 35.5934 32.2224 35.5741 31.9295 35.5739V35.5739ZM48.6406 36.4907C49.1325 36.4898 49.5061 36.5753 49.7289 36.6976C49.8411 36.7585 49.9145 36.8257 49.9596 36.8918C50.0045 36.9585 50.0239 37.0245 50.0246 37.1083C50.0241 37.3388 49.9622 37.5464 49.8426 37.7513C49.6345 38.1087 49.2327 38.4479 48.6829 38.7413C47.8598 39.1829 46.7185 39.5236 45.4862 39.7568C44.4141 39.9603 43.2726 40.0867 42.205 40.142C42.3657 39.9101 42.5819 39.6454 42.845 39.3716C43.4797 38.709 44.3789 37.9814 45.3952 37.4266C46.4117 36.8707 47.5445 36.4898 48.6406 36.4907ZM63.8866 36.4907C64.3784 36.4898 64.7527 36.5754 64.9749 36.6976C65.0867 36.7584 65.1606 36.8256 65.2056 36.8918C65.2503 36.9585 65.2699 37.0244 65.2705 37.1083C65.2701 37.3389 65.2083 37.5464 65.0886 37.7513C64.8806 38.1087 64.4785 38.4479 63.9288 38.7413C63.106 39.1829 61.9674 39.5236 60.7354 39.7568C59.6624 39.9606 58.5195 40.0868 57.451 40.142C57.6117 39.9101 57.8279 39.6454 58.091 39.3716C58.7258 38.709 59.628 37.9814 60.6444 37.4266C61.6611 36.8707 62.79 36.4898 63.8866 36.4907Z" fill="#CD1E25"/>
</svg>
