<svg xmlns="http://www.w3.org/2000/svg" width="80" height="80" viewBox="0 0 80 80">
    <g fill="none" fill-rule="evenodd">
        <circle cx="40" cy="40" r="40" fill="#FF5959"/>
        <path fill="#FFF" fill-rule="nonzero" d="M17.85 33.333h4.408a.19.19 0 0 1 .137.06 7.827 7.827 0 0 1 2.146 5.39c0 4.392-3.615 7.944-8.05 7.883-4.331-.06-7.841-3.613-7.824-7.915a7.827 7.827 0 0 1 2.146-5.359.19.19 0 0 1 .137-.059h4.408c.046 0 .09.017.124.047l.998.704a.19.19 0 0 0 .248 0l.998-.704a.189.189 0 0 1 .124-.047zm3.96 5.532c0-1.31-.473-2.506-1.277-3.42a.185.185 0 0 1 .01-.254l1.584-1.517-5.273 3.753a.378.378 0 0 1-.472 0l-5.275-3.753 1.557 1.517c.069.07.074.18.009.253-.842.958-1.298 2.228-1.25 3.61.093 2.678 2.163 4.897 4.856 5.038 3.021.158 5.531-2.261 5.531-5.227zm8.296 5.382v-8.713h5.553v1.854h-3.518v1.926h3.015v1.771h-3.015v3.162h-2.035zm13.56-5.884c0 1.034-.563 1.961-1.508 2.52l2.058 3.364h-2.31l-1.495-2.841c-.12.012-.228.012-.348.012-.299 0-.466-.012-.754-.024v2.853h-2.034v-8.63a22.44 22.44 0 0 1 2.585-.142c2.729 0 3.806 1.295 3.806 2.888zm-3.71 1.415c.97 0 1.591-.464 1.591-1.344 0-.725-.574-1.153-1.448-1.153-.31 0-.502.012-.79.06v2.4c.264.025.407.037.647.037zm9.454-4.387c2.705 0 4.452 1.938 4.452 4.505 0 2.556-1.83 4.494-4.536 4.494-2.716 0-4.452-1.938-4.452-4.494 0-2.567 1.82-4.505 4.536-4.505zm-.048 7.204c1.389 0 2.322-1.141 2.322-2.699 0-1.569-.933-2.698-2.322-2.698-1.388 0-2.321 1.13-2.321 2.698 0 1.558.933 2.699 2.321 2.699zm11.609-2.544v-4.517h2.034v8.844l-.204.035-5.29-4.719v4.553h-2.034v-8.832l.275-.048 5.219 4.684zm3.29-4.517h7.3v1.854H68.93v6.859h-2.035v-6.859h-2.633v-1.854z"/>
    </g>
</svg>
