<?xml version="1.0" encoding="utf-8"?>
<svg id="master-artboard" viewBox="0 0 271.9942321777344 249.03179931640625" version="1.1" xmlns="http://www.w3.org/2000/svg" x="0px" y="0px" style="enable-background:new 0 0 700 550;" width="271.9942321777344px" height="249.03179931640625px"><rect id="ee-background" x="0" y="0" width="271.9942321777344" height="249.03179931640625" style="fill: white; fill-opacity: 0; pointer-events: none;"/>



<g transform="matrix(1, 0, 0, 1, -367.4710998535156, -139.82658576965332)">
		<path class="st0" d="M394.7,252.7h1.5l2.3,8.6l-1.8,0.6c-1.2-2.7-2.6-4.7-4.2-5.9c-1.6-1.2-3.3-1.7-5.3-1.7&#10;&#9;&#9;&#9;c-2.9,0-5.2,1.2-7.2,3.6c-1.9,2.4-2.9,5.2-2.9,8.5c0,2.4,0.5,4.5,1.5,6.5c1,2,2.3,3.5,4,4.5c1.6,1,3.4,1.5,5.3,1.5&#10;&#9;&#9;&#9;c1.2,0,2.3-0.2,3.4-0.7c1.1-0.4,2-1,2.6-1.6c0.5-0.5,0.8-1,1-1.5c0.2-0.6,0.3-1.3,0.2-2.3v-1.3c0-1.1-0.1-1.8-0.4-2.2&#10;&#9;&#9;&#9;c-0.2-0.4-0.6-0.8-1.1-0.9c-0.4-0.1-1.3-0.2-2.8-0.2v-1.7h11.4v1.7h-0.9c-0.8,0-1.3,0.1-1.6,0.2c-0.3,0.2-0.5,0.4-0.6,0.7&#10;&#9;&#9;&#9;c-0.1,0.3-0.2,1-0.2,1.9v9.7h-2l-1.1-2.5c-1.1,0.8-2.3,1.5-3.6,1.9c-1.9,0.7-3.8,1-5.6,1c-3.8,0-7-1.4-9.7-4.2&#10;&#9;&#9;&#9;c-2.7-2.8-4-6.2-4-10.3c0-4.1,1.4-7.5,4.1-10.3c2.7-2.8,6-4.2,9.8-4.2c1,0,1.9,0.1,2.8,0.3c0.9,0.2,1.8,0.5,2.5,0.8&#10;&#9;&#9;&#9;c0.6,0.3,1.2,0.7,2,1.2L394.7,252.7z" style="fill: rgb(34, 31, 31);"/>
		<path class="st0" d="M405.2,252.7H416v1.7h-0.7c-0.9,0-1.5,0.1-1.9,0.3c-0.3,0.1-0.5,0.4-0.7,0.7c-0.2,0.3-0.2,1-0.2,1.9V270&#10;&#9;&#9;&#9;c0,2.3,0.3,3.9,0.8,5c0.5,1.1,1.4,2,2.7,2.7c1.3,0.7,2.7,1.1,4.2,1.1c1.5,0,3-0.4,4.3-1.2c1.4-0.8,2.3-1.7,2.9-2.8&#10;&#9;&#9;&#9;c0.5-1.1,0.8-2.8,0.8-5.2v-12.2c0-0.9-0.1-1.5-0.3-1.9c-0.2-0.4-0.4-0.7-0.8-0.9c-0.4-0.2-0.9-0.3-1.7-0.3h-0.8v-1.7h9.4v1.7h-0.6&#10;&#9;&#9;&#9;c-1.1,0-1.8,0.2-2.2,0.6c-0.4,0.4-0.6,1.2-0.6,2.3v12.9c0,2.4-0.4,4.3-1.3,5.9c-0.9,1.6-2.2,2.8-3.9,3.7c-1.7,0.9-3.6,1.4-5.9,1.4&#10;&#9;&#9;&#9;c-2.1,0-4.1-0.5-5.8-1.4c-1.8-0.9-3-2.1-3.9-3.5c-0.8-1.4-1.2-3.2-1.2-5.3v-13.8c0-0.9-0.1-1.5-0.2-1.9c-0.2-0.4-0.4-0.6-0.7-0.8&#10;&#9;&#9;&#9;c-0.3-0.2-0.8-0.2-1.6-0.2h-1V252.7z" style="fill: rgb(34, 31, 31);"/>
		<path class="st0" d="M448.1,252.7h3.3l8.7,23.4c0.4,1.2,0.9,2,1.3,2.3c0.4,0.4,1,0.6,1.8,0.6h0.4v1.7h-10v-1.7c0.3,0,0.6,0,0.9,0&#10;&#9;&#9;&#9;c0.6,0,1.1-0.1,1.3-0.2c0.4-0.3,0.6-0.6,0.6-1c0-0.3-0.2-1-0.6-2.1l-1.9-5.4h-10.2l-2.2,6.1c-0.2,0.6-0.3,1.1-0.3,1.3&#10;&#9;&#9;&#9;c0,0.3,0.1,0.5,0.2,0.7c0.1,0.2,0.3,0.3,0.6,0.5c0.2,0.1,0.6,0.1,1.2,0.1c0.4,0,0.7,0,0.9,0v1.7h-8.4v-1.7c0.8,0,1.3-0.1,1.7-0.2&#10;&#9;&#9;&#9;c0.3-0.2,0.6-0.4,0.9-0.7c0.3-0.3,0.6-1.1,1-2.2L448.1,252.7z M444.6,268.4h8.7l-4.3-12.1L444.6,268.4z" style="fill: rgb(34, 31, 31);"/>
		<path class="st0" d="M465.7,252.7h14.5c2.8,0,4.8,0.3,6.2,0.9c1.4,0.6,2.5,1.4,3.2,2.5c0.8,1.1,1.1,2.3,1.1,3.7&#10;&#9;&#9;&#9;c0,1.5-0.4,2.8-1.1,3.9c-0.7,1.1-1.8,2-3.2,2.7c-1.4,0.6-3.2,1-5.5,1l7.4,9c0.6,0.8,1,1.2,1.2,1.4c0.5,0.4,1,0.7,1.5,0.9&#10;&#9;&#9;&#9;c0.5,0.2,1.1,0.3,1.7,0.3h0.5v1.7h-6.4l-10.3-13.4H473v8.6c0,1,0,1.6,0.1,1.8c0.1,0.5,0.4,0.8,0.7,1c0.3,0.2,1,0.3,1.9,0.3h0.7&#10;&#9;&#9;&#9;v1.7h-10.7v-1.7h1c0.7,0,1.2,0,1.5-0.1c0.2-0.1,0.5-0.3,0.7-0.5c0.2-0.2,0.3-0.5,0.4-0.9c0-0.1,0-0.8,0.1-2v-18.4&#10;&#9;&#9;&#9;c0-0.8-0.1-1.4-0.2-1.8c-0.2-0.4-0.4-0.6-0.7-0.8c-0.3-0.2-0.8-0.2-1.5-0.2h-1.1V252.7z M473,254.9v10.6h5.8c2,0,3.3-0.1,4.1-0.4&#10;&#9;&#9;&#9;c1.1-0.3,2-0.9,2.7-1.8c0.7-0.9,1-2,1-3.3c0-1.1-0.2-2.1-0.7-2.8c-0.5-0.8-1.1-1.3-1.9-1.7c-0.8-0.4-2-0.6-3.6-0.6H473z" style="fill: rgb(34, 31, 31);"/>
		<path class="st0" d="M505.8,252.7h3.3l8.7,23.4c0.4,1.2,0.9,2,1.3,2.3c0.4,0.4,1,0.6,1.8,0.6h0.4v1.7h-10v-1.7c0.3,0,0.6,0,0.9,0&#10;&#9;&#9;&#9;c0.6,0,1.1-0.1,1.3-0.2c0.4-0.3,0.6-0.6,0.6-1c0-0.3-0.2-1-0.6-2.1l-1.9-5.4h-10.2l-2.2,6.1c-0.2,0.6-0.3,1.1-0.3,1.3&#10;&#9;&#9;&#9;c0,0.3,0.1,0.5,0.2,0.7c0.1,0.2,0.3,0.3,0.6,0.5c0.2,0.1,0.6,0.1,1.2,0.1c0.4,0,0.7,0,0.9,0v1.7h-8.4v-1.7c0.8,0,1.3-0.1,1.7-0.2&#10;&#9;&#9;&#9;c0.3-0.2,0.6-0.4,0.9-0.7c0.3-0.3,0.6-1.1,1-2.2L505.8,252.7z M502.2,268.4h8.7l-4.3-12.1L502.2,268.4z" style="fill: rgb(34, 31, 31);"/>
		<path class="st0" d="M523.2,252.7h8.6l12.8,21v-16c0-1-0.1-1.6-0.3-2.1c-0.2-0.4-0.5-0.7-0.8-1c-0.4-0.2-0.9-0.3-1.7-0.3H541v-1.7&#10;&#9;&#9;&#9;h9.4v1.7h-0.5c-0.8,0-1.4,0.1-1.7,0.2c-0.4,0.2-0.7,0.5-0.9,1c-0.2,0.5-0.3,1.2-0.3,2.1v23h-2.4l-15.4-25.3v20c0,1.1,0,1.8,0.1,2&#10;&#9;&#9;&#9;c0.1,0.3,0.3,0.6,0.5,0.8c0.2,0.3,0.5,0.4,0.9,0.5c0.3,0.1,1,0.1,2,0.2v1.7h-9.5v-1.7h0.5c1,0,1.6-0.1,2-0.3&#10;&#9;&#9;&#9;c0.3-0.2,0.6-0.5,0.8-1c0.2-0.5,0.3-1.2,0.3-2.3v-17.8c0-1.1,0-1.8-0.1-2c-0.1-0.5-0.4-0.8-0.7-1c-0.3-0.2-1-0.3-2-0.3h-0.7V252.7&#10;&#9;&#9;&#9;z" style="fill: rgb(34, 31, 31);"/>
		<path class="st0" d="M554.4,251.8h1.4l0.2,0.9h17.2l0.2-0.9h1.5l3,8.2l-1.8,0.6c-0.9-2.2-1.9-3.7-3.1-4.6&#10;&#9;&#9;&#9;c-1.2-0.9-2.7-1.3-4.6-1.3c-0.8,0-1.2,0-1.4,0.1c-0.1,0.1-0.2,0.2-0.3,0.3c-0.1,0.1-0.1,0.6-0.1,1.4V276c0,0.9,0,1.5,0.2,1.9&#10;&#9;&#9;&#9;c0.1,0.3,0.2,0.6,0.4,0.7c0.2,0.2,0.4,0.3,0.8,0.4c0.3,0.1,1.1,0.1,2.2,0.1v1.7h-10.8v-1.7c1.2,0,1.9-0.1,2.2-0.1&#10;&#9;&#9;&#9;c0.5-0.1,0.8-0.4,1-0.8c0.2-0.4,0.3-1.1,0.3-2.1v-19.9c0-0.6,0-1-0.1-1.1c-0.1-0.1-0.2-0.2-0.3-0.3c-0.2-0.1-0.5-0.1-1-0.1&#10;&#9;&#9;&#9;c-1.5,0-2.6,0.2-3.5,0.6c-0.9,0.4-1.7,1-2.5,1.9c-0.8,0.9-1.4,2.1-2,3.5l-1.8-0.6L554.4,251.8z" style="fill: rgb(34, 31, 31);"/>
		<path class="st0" d="M579.3,252.7h22.8l2.6,7.4l-1.8,0.7c-0.4-1.2-0.9-2.2-1.5-2.8c-0.5-0.7-1.1-1.3-1.9-1.8&#10;&#9;&#9;&#9;c-0.7-0.5-1.5-0.8-2.2-1c-0.7-0.2-2.1-0.2-4-0.2h-6.8v10.3h3.4c1.3,0,2.2-0.2,2.8-0.6c0.6-0.4,1.1-1,1.3-1.6&#10;&#9;&#9;&#9;c0.2-0.5,0.3-1.3,0.3-2.5v-0.5h2v12.3h-2v-1.1c0-0.9-0.1-1.6-0.2-2c-0.1-0.4-0.4-0.8-0.8-1.2c-0.4-0.4-0.8-0.6-1.2-0.8&#10;&#9;&#9;&#9;c-0.4-0.1-1.2-0.2-2.2-0.2h-3.4v9.1c0,0.9,0,1.5,0.1,1.7c0.1,0.2,0.2,0.4,0.4,0.4c0.2,0.1,0.8,0.1,1.7,0.1h4.2&#10;&#9;&#9;&#9;c2.3,0,4.2-0.3,5.5-0.8c1.3-0.6,2.5-1.4,3.5-2.6c0.8-0.9,1.5-2.2,2.3-3.8l1.8,0.6l-3.1,8.8h-23.7v-1.7h0.8c0.9,0,1.5-0.1,1.7-0.2&#10;&#9;&#9;&#9;c0.3-0.2,0.6-0.5,0.8-0.8c0.1-0.3,0.2-0.8,0.2-1.7V257c0-0.9-0.1-1.5-0.3-1.8c-0.2-0.3-0.5-0.5-0.9-0.7c-0.2-0.1-1-0.1-2.4-0.1&#10;&#9;&#9;&#9;V252.7z" style="fill: rgb(34, 31, 31);"/>
		<path class="st0" d="M609,252.7h22.8l2.6,7.4l-1.8,0.7c-0.4-1.2-0.9-2.2-1.4-2.8c-0.5-0.7-1.2-1.3-1.9-1.8c-0.7-0.5-1.5-0.8-2.2-1&#10;&#9;&#9;&#9;c-0.7-0.2-2.1-0.2-4-0.2h-6.8v10.3h3.4c1.2,0,2.2-0.2,2.8-0.6c0.6-0.4,1.1-1,1.3-1.6c0.2-0.5,0.3-1.3,0.3-2.5v-0.5h2v12.3h-2v-1.1&#10;&#9;&#9;&#9;c0-0.9-0.1-1.6-0.2-2c-0.1-0.4-0.4-0.8-0.8-1.2c-0.4-0.4-0.8-0.6-1.2-0.8c-0.4-0.1-1.2-0.2-2.2-0.2h-3.4v9.1c0,0.9,0,1.5,0.1,1.7&#10;&#9;&#9;&#9;c0.1,0.2,0.2,0.4,0.4,0.4c0.2,0.1,0.8,0.1,1.7,0.1h4.2c2.4,0,4.2-0.3,5.5-0.8c1.3-0.6,2.5-1.4,3.5-2.6c0.8-0.9,1.5-2.2,2.3-3.8&#10;&#9;&#9;&#9;l1.8,0.6l-3.1,8.8H609v-1.7h0.8c0.9,0,1.5-0.1,1.7-0.2c0.3-0.2,0.6-0.5,0.8-0.8c0.1-0.3,0.2-0.8,0.2-1.7V257&#10;&#9;&#9;&#9;c0-0.9-0.1-1.5-0.3-1.8c-0.2-0.3-0.5-0.5-0.9-0.7c-0.2-0.1-1-0.1-2.4-0.1V252.7z" style="fill: rgb(34, 31, 31);"/>
		<path class="st0" d="M392.8,220.8l14.1-5.9l-3-14.9l16.4-3.3l0.3-16.7l15.2,0.3l3.2-14.9l13.5,2.9l5.3-12.8l14.1,5.8l8.4-12.7&#10;&#9;&#9;&#9;l13,8.6l11.1-11l10.8,10.8l12.7-8.5l8.3,12.5l13.8-5.8l5.9,14.1l14.9-3l3.3,16.4l16.8,0.3l-0.3,15.2l14.9,3.2l-2.9,13.5l12.8,5.3&#10;&#9;&#9;&#9;l-5.8,14.1l2.4,1.6H396.9l1.7-1.1L392.8,220.8z M610,298.4l1.7-1.1H396.5l2.4,1.6l-5.8,14.1l12.8,5.3l-2.9,13.5l14.9,3.2&#10;&#9;&#9;&#9;l-0.3,15.2l16.8,0.3l3.3,16.4l14.9-3l5.9,14.1l13.8-5.8l8.3,12.5l12.7-8.5l10.8,10.8l11.1-11l13,8.6l8.4-12.7l14.1,5.8l5.3-12.8&#10;&#9;&#9;&#9;l13.5,2.9l3.2-14.9l15.2,0.3l0.3-16.7l16.4-3.3l-3-14.9l14.1-5.9L610,298.4z" style="fill: rgb(34, 31, 31);"/>
		<path class="st1" d="M431.6,200.9c0.7-0.7,1.5-1.2,2.4-1.5c1-0.3,1.9-0.3,2.8-0.1c0.9,0.2,1.8,0.7,2.6,1.4c1.2,1.1,1.9,2.4,2,3.9&#10;&#9;&#9;&#9;c0.1,1.5-0.4,2.8-1.5,4c-1.2,1.3-2.7,2-4.3,1.9c-1.3-0.1-2.6-0.6-3.6-1.6c-0.8-0.7-1.3-1.6-1.6-2.5c-0.3-0.9-0.3-1.9-0.1-2.9&#10;&#9;&#9;&#9;C430.4,202.6,430.9,201.7,431.6,200.9z M432.2,201.5c-0.6,0.6-0.9,1.2-1,1.9c-0.1,0.7,0,1.4,0.3,2.2c0.3,0.8,0.8,1.5,1.6,2.2&#10;&#9;&#9;&#9;c0.7,0.7,1.5,1.1,2.3,1.4c0.8,0.2,1.5,0.2,2.1,0.1c0.7-0.2,1.3-0.5,1.8-1.1c0.5-0.5,0.8-1.1,0.9-1.8c0.1-0.7,0-1.4-0.3-2.2&#10;&#9;&#9;&#9;c-0.3-0.8-0.9-1.5-1.6-2.2c-0.7-0.7-1.5-1.1-2.4-1.4c-0.7-0.2-1.4-0.3-2-0.1C433.3,200.5,432.7,200.9,432.2,201.5z M437.4,195.2&#10;&#9;&#9;&#9;l4.3-3.6c0.8-0.7,1.5-1.1,2.1-1.3c0.6-0.2,1.1-0.2,1.6-0.1c0.5,0.1,0.9,0.4,1.3,0.8c0.4,0.4,0.6,0.9,0.6,1.4&#10;&#9;&#9;&#9;c0.1,0.5,0,1.1-0.3,1.6c-0.3,0.5-0.7,1.1-1.4,1.7l4.5,0.9c0.4,0.1,0.6,0.1,0.7,0.1c0.2,0,0.5,0,0.7-0.1c0.2-0.1,0.4-0.2,0.6-0.3&#10;&#9;&#9;&#9;l0.1-0.1l0.4,0.5l-1.9,1.6l-6.4-1.4l-1.1,0.9l2.2,2.6c0.2,0.3,0.4,0.5,0.5,0.5c0.2,0.1,0.3,0.1,0.5,0.1c0.1,0,0.4-0.2,0.6-0.4&#10;&#9;&#9;&#9;l0.2-0.2l0.4,0.5l-3.2,2.7l-0.4-0.5l0.3-0.2c0.2-0.2,0.4-0.3,0.4-0.4c0.1-0.1,0.1-0.2,0.1-0.3c0-0.1,0-0.2-0.1-0.4&#10;&#9;&#9;&#9;c0,0-0.2-0.3-0.5-0.6l-4.6-5.5c-0.2-0.2-0.4-0.4-0.5-0.5c-0.1-0.1-0.3-0.1-0.4-0.1c-0.1,0-0.3,0.1-0.5,0.3l-0.3,0.3L437.4,195.2z&#10;&#9;&#9;&#9; M440.1,194l2.6,3.2l1.7-1.4c0.6-0.5,1-0.9,1.1-1.1c0.3-0.4,0.4-0.8,0.4-1.2c0-0.4-0.2-0.8-0.5-1.2c-0.3-0.3-0.6-0.6-0.9-0.7&#10;&#9;&#9;&#9;c-0.3-0.1-0.7-0.1-1,0c-0.3,0.1-0.8,0.3-1.2,0.7L440.1,194z M446.9,187.6l3.4-2.4l0.4,0.5l-0.3,0.2c-0.2,0.2-0.4,0.3-0.5,0.5&#10;&#9;&#9;&#9;c-0.1,0.1-0.1,0.3,0,0.5c0,0.2,0.2,0.4,0.4,0.8l4,5.8c0.2,0.3,0.4,0.5,0.5,0.6c0.1,0.1,0.3,0.1,0.4,0.1c0.1,0,0.3-0.1,0.6-0.3&#10;&#9;&#9;&#9;l0.3-0.2l0.4,0.5l-3.4,2.4l-0.4-0.5l0.3-0.2c0.3-0.2,0.4-0.3,0.5-0.5c0.1-0.1,0.1-0.3,0.1-0.4c0-0.1-0.1-0.4-0.4-0.7l-4.1-5.9&#10;&#9;&#9;&#9;c-0.2-0.3-0.4-0.5-0.5-0.6c-0.1-0.1-0.3-0.1-0.4-0.1c-0.1,0-0.3,0.1-0.6,0.3l-0.3,0.2L446.9,187.6z M459.7,179.8l0.5-0.3l2.4,2.5&#10;&#9;&#9;&#9;l-0.5,0.5c-0.9-0.7-1.8-1.1-2.5-1.2c-0.8-0.1-1.5,0-2.1,0.4c-1,0.5-1.6,1.4-1.8,2.6c-0.2,1.2,0,2.3,0.6,3.4c0.4,0.8,1,1.5,1.7,1.9&#10;&#9;&#9;&#9;c0.7,0.5,1.4,0.8,2.2,0.8c0.8,0,1.4-0.1,2.1-0.5c0.4-0.2,0.8-0.5,1-0.9c0.3-0.3,0.5-0.7,0.6-1c0.1-0.2,0.1-0.5,0.1-0.7&#10;&#9;&#9;&#9;c0-0.2-0.2-0.5-0.3-0.8l-0.2-0.5c-0.2-0.4-0.4-0.6-0.5-0.7c-0.2-0.1-0.3-0.1-0.5-0.1c-0.1,0-0.5,0.2-1,0.5l-0.3-0.6l3.9-2.1&#10;&#9;&#9;&#9;l0.3,0.6l-0.3,0.2c-0.3,0.1-0.4,0.3-0.5,0.4c-0.1,0.1-0.1,0.2-0.1,0.4c0,0.1,0.1,0.4,0.3,0.7l1.8,3.3l-0.7,0.4l-0.8-0.6&#10;&#9;&#9;&#9;c-0.2,0.5-0.5,0.9-0.9,1.3c-0.5,0.6-1.1,1.1-1.7,1.4c-1.3,0.7-2.6,0.8-4.1,0.4c-1.4-0.4-2.5-1.4-3.3-2.8c-0.8-1.4-0.9-2.8-0.5-4.3&#10;&#9;&#9;&#9;c0.4-1.5,1.3-2.5,2.6-3.2c0.3-0.2,0.7-0.3,1-0.4c0.3-0.1,0.7-0.2,1-0.2c0.2,0,0.5,0,0.9,0.1L459.7,179.8z M464.2,177.7l3.8-1.6&#10;&#9;&#9;&#9;l0.3,0.6l-0.3,0.1c-0.3,0.1-0.5,0.2-0.6,0.4c-0.1,0.1-0.1,0.3-0.1,0.4c0,0.2,0.1,0.5,0.3,0.9l2.7,6.5c0.1,0.3,0.3,0.5,0.4,0.7&#10;&#9;&#9;&#9;c0.1,0.1,0.2,0.2,0.4,0.2c0.1,0,0.4,0,0.7-0.2l0.3-0.1l0.2,0.6l-3.8,1.6l-0.3-0.6l0.3-0.1c0.3-0.1,0.5-0.2,0.6-0.4&#10;&#9;&#9;&#9;c0.1-0.1,0.1-0.2,0.1-0.4c0-0.1-0.1-0.4-0.2-0.7l-2.8-6.6c-0.2-0.4-0.3-0.6-0.4-0.7c-0.1-0.1-0.2-0.2-0.4-0.2&#10;&#9;&#9;&#9;c-0.1,0-0.4,0-0.6,0.2l-0.3,0.1L464.2,177.7z M470,175.2l3.2-1l7.2,6.3l-1.9-5.9c-0.1-0.4-0.2-0.6-0.3-0.7&#10;&#9;&#9;&#9;c-0.1-0.1-0.3-0.2-0.4-0.3c-0.2,0-0.4,0-0.7,0.1l-0.3,0.1l-0.2-0.6l3.5-1.1l0.2,0.6l-0.2,0.1c-0.3,0.1-0.5,0.2-0.6,0.3&#10;&#9;&#9;&#9;c-0.1,0.1-0.2,0.3-0.2,0.5c0,0.2,0,0.5,0.1,0.8l2.7,8.6l-0.9,0.3l-8.6-7.6l2.3,7.4c0.1,0.4,0.2,0.7,0.3,0.7&#10;&#9;&#9;&#9;c0.1,0.1,0.2,0.2,0.3,0.3c0.1,0.1,0.3,0.1,0.4,0.1c0.1,0,0.4-0.1,0.8-0.2l0.2,0.6l-3.5,1.1L473,185l0.2-0.1&#10;&#9;&#9;&#9;c0.4-0.1,0.6-0.2,0.7-0.3c0.1-0.1,0.2-0.3,0.2-0.5c0-0.2,0-0.5-0.2-0.9l-2.1-6.6c-0.1-0.4-0.2-0.7-0.3-0.8&#10;&#9;&#9;&#9;c-0.1-0.2-0.2-0.3-0.4-0.3c-0.1,0-0.4,0-0.8,0.1l-0.3,0.1L470,175.2z M486.4,170.8l1.3-0.2l4.9,8.4c0.2,0.4,0.5,0.7,0.7,0.8&#10;&#9;&#9;&#9;c0.2,0.1,0.4,0.1,0.7,0.1l0.2,0l0.1,0.6l-3.8,0.7l-0.1-0.6c0.1,0,0.2-0.1,0.4-0.1c0.2,0,0.4-0.1,0.5-0.2c0.1-0.1,0.2-0.3,0.2-0.4&#10;&#9;&#9;&#9;c0-0.1-0.1-0.4-0.4-0.8l-1.1-2l-3.9,0.7l-0.4,2.5c0,0.3-0.1,0.4,0,0.5c0,0.1,0.1,0.2,0.1,0.3l0.2,0.1c0.1,0,0.2,0,0.5,0&#10;&#9;&#9;&#9;c0.1,0,0.3,0,0.3-0.1l0.1,0.6l-3.2,0.6l-0.1-0.6c0.3-0.1,0.5-0.1,0.6-0.2c0.1-0.1,0.2-0.2,0.3-0.3c0.1-0.1,0.2-0.4,0.2-0.9&#10;&#9;&#9;&#9;L486.4,170.8z M486.1,177.1l3.3-0.6l-2.5-4.3L486.1,177.1z M494,169.6l4.2-0.3l0,0.7l-0.4,0c-0.3,0-0.5,0.1-0.6,0.1&#10;&#9;&#9;&#9;c-0.1,0.1-0.2,0.2-0.3,0.3c-0.1,0.1-0.1,0.3,0,0.6l0.5,7.6c0,0.3,0,0.6,0.1,0.6c0,0.1,0.1,0.2,0.2,0.2c0.1,0,0.3,0,0.6,0l0.6,0&#10;&#9;&#9;&#9;c0.7,0,1.2-0.2,1.7-0.4c0.5-0.2,0.9-0.5,1.2-0.9c0.3-0.4,0.6-1,0.9-1.7l0.7,0.2l-1,3.5l-7.8,0.5l0-0.7l0.3,0&#10;&#9;&#9;&#9;c0.3,0,0.6-0.1,0.7-0.1c0.1-0.1,0.2-0.2,0.2-0.3c0.1-0.1,0.1-0.4,0.1-0.7l-0.5-7.4c0-0.4-0.1-0.6-0.1-0.8&#10;&#9;&#9;&#9;c-0.1-0.1-0.2-0.2-0.3-0.3c-0.1,0-0.3-0.1-0.7,0l-0.3,0L494,169.6z M510.1,169.3l4.3,0.4c1.3,0.1,2.2,0.3,2.7,0.5&#10;&#9;&#9;&#9;c0.6,0.3,1.1,0.6,1.4,1.2c0.4,0.5,0.5,1.1,0.4,1.9c-0.1,0.6-0.3,1.2-0.6,1.6c-0.4,0.5-0.9,0.9-1.5,1c-0.6,0.2-1.4,0.2-2.5,0.1&#10;&#9;&#9;&#9;l-2-0.2l-0.3,2.8c0,0.4,0,0.7,0,0.8c0,0.2,0.1,0.3,0.2,0.3c0.1,0.1,0.3,0.1,0.7,0.2l0.4,0l-0.1,0.7l-4.2-0.4l0.1-0.7l0.3,0&#10;&#9;&#9;&#9;c0.4,0,0.6,0,0.7,0c0.1,0,0.2-0.1,0.3-0.3c0.1-0.1,0.1-0.4,0.2-0.7l0.7-7.4c0-0.3,0-0.6,0-0.7c0-0.1-0.1-0.2-0.2-0.3&#10;&#9;&#9;&#9;c-0.1-0.1-0.4-0.1-0.7-0.2l-0.3,0L510.1,169.3z M512.8,170.4l-0.5,4.6l1.7,0.2c0.8,0.1,1.5,0.1,1.8,0c0.4-0.1,0.7-0.3,0.9-0.7&#10;&#9;&#9;&#9;c0.3-0.4,0.4-0.8,0.5-1.3c0.1-0.5,0-1-0.3-1.4c-0.2-0.4-0.6-0.7-1-0.9c-0.3-0.1-0.9-0.2-1.8-0.3L512.8,170.4z M521,170.5l5.5,1.2&#10;&#9;&#9;&#9;c1,0.2,1.8,0.5,2.3,0.8c0.5,0.3,0.8,0.7,1,1.2c0.2,0.5,0.2,1,0.1,1.5c-0.1,0.6-0.4,1-0.8,1.4c-0.4,0.4-0.9,0.6-1.4,0.7&#10;&#9;&#9;&#9;c-0.6,0.1-1.3,0.1-2.2-0.1l2.1,4.1c0.2,0.3,0.3,0.5,0.3,0.6c0.1,0.2,0.3,0.4,0.5,0.5c0.2,0.1,0.4,0.2,0.6,0.3l0.2,0l-0.1,0.6&#10;&#9;&#9;&#9;l-2.4-0.5l-2.8-6l-1.4-0.3l-0.7,3.3c-0.1,0.4-0.1,0.6-0.1,0.7c0,0.2,0.1,0.3,0.2,0.4c0.1,0.1,0.3,0.2,0.7,0.3l0.3,0.1l-0.1,0.6&#10;&#9;&#9;&#9;l-4.1-0.9l0.1-0.6l0.4,0.1c0.3,0.1,0.5,0.1,0.6,0.1c0.1,0,0.2-0.1,0.3-0.1c0.1-0.1,0.2-0.2,0.2-0.3c0-0.1,0.1-0.3,0.2-0.8l1.6-7&#10;&#9;&#9;&#9;c0.1-0.3,0.1-0.5,0.1-0.7c0-0.1-0.1-0.3-0.2-0.3c-0.1-0.1-0.3-0.2-0.5-0.2l-0.4-0.1L521,170.5z M523.6,171.9l-0.9,4l2.2,0.5&#10;&#9;&#9;&#9;c0.7,0.2,1.3,0.2,1.6,0.2c0.5,0,0.8-0.2,1.2-0.4c0.3-0.3,0.5-0.7,0.6-1.2c0.1-0.4,0.1-0.8,0-1.1c-0.1-0.3-0.3-0.6-0.6-0.8&#10;&#9;&#9;&#9;c-0.3-0.2-0.7-0.4-1.3-0.5L523.6,171.9z M538.8,175.2c0.9,0.3,1.7,0.9,2.3,1.6c0.6,0.8,1,1.6,1.2,2.6c0.2,0.9,0,1.9-0.3,2.9&#10;&#9;&#9;&#9;c-0.6,1.6-1.5,2.7-2.9,3.3c-1.3,0.6-2.8,0.7-4.3,0.1c-1.7-0.6-2.8-1.7-3.4-3.3c-0.4-1.3-0.4-2.6,0.1-3.9c0.4-1,0.9-1.8,1.7-2.5&#10;&#9;&#9;&#9;c0.8-0.6,1.6-1,2.6-1.2C536.8,174.7,537.8,174.8,538.8,175.2z M538.5,176c-0.8-0.3-1.5-0.4-2.2-0.2c-0.7,0.1-1.3,0.5-1.9,1.1&#10;&#9;&#9;&#9;c-0.6,0.6-1.1,1.3-1.4,2.3c-0.4,1-0.5,1.8-0.4,2.6c0.1,0.8,0.3,1.5,0.7,2c0.4,0.6,1,1,1.7,1.2c0.7,0.3,1.4,0.3,2,0.2&#10;&#9;&#9;&#9;c0.7-0.1,1.3-0.5,1.9-1.1c0.6-0.6,1.1-1.4,1.4-2.3c0.3-0.9,0.5-1.8,0.4-2.7c0-0.8-0.3-1.4-0.6-1.9&#10;&#9;&#9;&#9;C539.8,176.6,539.3,176.2,538.5,176z M546.1,178.9l0.3-0.6l3.4,1.9c1.6,0.9,2.6,1.5,3.1,2.1c0.8,0.8,1.2,1.7,1.3,2.8&#10;&#9;&#9;&#9;c0.2,1.2-0.1,2.4-0.7,3.5c-0.4,0.8-1,1.4-1.6,1.9c-0.7,0.5-1.4,0.8-2.1,0.9c-0.6,0.1-1.2,0.1-1.9-0.1c-0.7-0.2-1.3-0.4-1.9-0.8&#10;&#9;&#9;&#9;l-4.9-2.7l0.3-0.6l0.4,0.2l0.1,0.1c0.2,0.1,0.3,0.1,0.5,0.1c0.1,0,0.3-0.1,0.4-0.2c0.1-0.1,0.2-0.3,0.4-0.6l3.5-6.4&#10;&#9;&#9;&#9;c0.2-0.4,0.3-0.6,0.3-0.7c0-0.2,0-0.3-0.1-0.5C546.8,179.4,546.5,179.2,546.1,178.9z M544.1,188.6l2.1,1.1&#10;&#9;&#9;&#9;c0.2,0.1,0.6,0.3,1.1,0.4c0.5,0.2,0.9,0.3,1.2,0.3c0.4,0,0.8-0.1,1.3-0.3c0.5-0.2,0.9-0.5,1.3-0.9c0.4-0.4,0.8-0.9,1.1-1.5&#10;&#9;&#9;&#9;c0.3-0.6,0.6-1.2,0.6-1.7c0.1-0.5,0.1-1.1,0-1.6c-0.1-0.5-0.3-1-0.6-1.4c-0.3-0.4-0.6-0.7-1.1-1c-0.2-0.2-0.7-0.4-1.3-0.7&#10;&#9;&#9;&#9;l-1.4-0.8L544.1,188.6z M558.4,185.1l3.4,2.5l-0.4,0.5l-0.2-0.2c-0.3-0.2-0.5-0.3-0.7-0.4c-0.1,0-0.2,0-0.4,0.1&#10;&#9;&#9;&#9;c-0.1,0.1-0.3,0.3-0.5,0.6l-2.9,4c-0.5,0.7-0.8,1.3-0.9,1.8c-0.1,0.5,0,1,0.2,1.5c0.2,0.5,0.6,1,1,1.3c0.5,0.4,1,0.6,1.6,0.6&#10;&#9;&#9;&#9;c0.6,0.1,1.1,0,1.5-0.2c0.4-0.2,0.9-0.7,1.5-1.4l2.8-3.8c0.2-0.3,0.3-0.5,0.4-0.7c0-0.2,0-0.3,0-0.5c-0.1-0.1-0.2-0.3-0.5-0.5&#10;&#9;&#9;&#9;l-0.2-0.2l0.4-0.5l2.9,2.2l-0.4,0.5l-0.2-0.1c-0.3-0.2-0.6-0.3-0.8-0.3c-0.2,0-0.5,0.2-0.7,0.6l-3,4c-0.5,0.7-1.1,1.3-1.8,1.5&#10;&#9;&#9;&#9;c-0.6,0.3-1.3,0.4-2.1,0.3c-0.7-0.1-1.5-0.4-2.2-0.9c-0.7-0.5-1.2-1.1-1.5-1.8c-0.3-0.7-0.5-1.4-0.4-2c0.1-0.6,0.3-1.3,0.8-1.9&#10;&#9;&#9;&#9;l3.2-4.3c0.2-0.3,0.3-0.5,0.4-0.6c0-0.1,0-0.3,0-0.4c-0.1-0.1-0.2-0.3-0.4-0.4l-0.3-0.2L558.4,185.1z M575.6,199.5l0.4,0.4&#10;&#9;&#9;&#9;l-1.8,3.3l-0.7-0.4c0.3-0.9,0.5-1.5,0.5-1.8c0.1-0.6,0-1.1-0.1-1.7c-0.2-0.5-0.5-1-0.9-1.4c-0.5-0.5-1.1-0.8-1.8-0.9&#10;&#9;&#9;&#9;c-0.7-0.1-1.4-0.1-2.2,0.2c-0.8,0.3-1.5,0.7-2.1,1.4c-0.7,0.7-1.1,1.4-1.3,2.2c-0.2,0.8-0.3,1.5-0.1,2.3c0.2,0.7,0.5,1.3,1.1,1.9&#10;&#9;&#9;&#9;c0.5,0.5,1.1,0.8,1.9,1.1c0.8,0.2,1.6,0.3,2.5,0.1l0.2,0.7c-0.6,0.1-1.1,0.2-1.6,0.1c-0.8,0-1.5-0.2-2.2-0.4&#10;&#9;&#9;&#9;c-0.6-0.3-1.2-0.7-1.8-1.2c-1.2-1.2-1.8-2.6-1.7-4.2c0.1-1.4,0.6-2.6,1.6-3.6c0.7-0.8,1.6-1.3,2.5-1.6c0.9-0.3,1.9-0.3,2.9-0.1&#10;&#9;&#9;&#9;c1,0.2,1.8,0.7,2.5,1.4c0.4,0.4,0.7,0.8,0.9,1.2c0.2,0.4,0.4,0.9,0.5,1.5L575.6,199.5z M578.9,202.4l0.3,0.4l-0.2,0.3l4.2,5.2&#10;&#9;&#9;&#9;l0.3-0.2l0.4,0.4l-1.8,2.9l-0.6-0.4c0.5-0.8,0.7-1.5,0.6-2.1c0-0.6-0.3-1.2-0.7-1.7c-0.2-0.2-0.3-0.4-0.4-0.4l-0.2,0&#10;&#9;&#9;&#9;c-0.1,0-0.2,0.1-0.4,0.3l-5.9,4.8c-0.3,0.2-0.5,0.4-0.5,0.5c-0.1,0.1-0.1,0.2-0.1,0.3c0,0.1,0,0.2,0.1,0.3&#10;&#9;&#9;&#9;c0.1,0.1,0.2,0.3,0.5,0.7l-0.5,0.4l-2.6-3.3l0.5-0.4c0.3,0.4,0.5,0.6,0.6,0.6c0.2,0.1,0.3,0.1,0.5,0.1c0.2,0,0.4-0.2,0.7-0.4&#10;&#9;&#9;&#9;l6-4.9c0.2-0.2,0.3-0.3,0.3-0.3l0-0.2c0-0.1-0.1-0.2-0.2-0.3c-0.4-0.4-0.7-0.7-1-0.9c-0.3-0.2-0.7-0.3-1.2-0.3&#10;&#9;&#9;&#9;c-0.5,0-1,0.1-1.5,0.3l-0.3-0.7L578.9,202.4z" style="fill: rgb(255, 255, 255);"/>
		<path class="st1" d="M504.3,183.5c-35,0-64.9,21.6-77.1,52.3h154.3C569.2,205.1,539.3,183.5,504.3,183.5z M484.5,220.4l-4.1-1.3&#10;&#9;&#9;&#9;l-3.4,2.6l0-4.3l-3.5-2.4l4.1-1.3l1.2-4.1l2.5,3.4l4.3-0.1l-2.5,3.5L484.5,220.4z M510.5,218.7l-6.2-3.2l-6.2,3.2l1.2-6.9l-5-4.9&#10;&#9;&#9;&#9;l6.9-1l3.1-6.2l3.1,6.2l6.9,1l-5,4.9L510.5,218.7z M531.6,217.5l0,4.3l-3.4-2.6l-4.1,1.3l1.4-4l-2.5-3.5l4.3,0.1l2.5-3.4l1.2,4.1&#10;&#9;&#9;&#9;l4.1,1.3L531.6,217.5z" style="fill: rgb(255, 255, 255);"/>
		<path class="st1" d="M514.8,327.3c1,0.2,1,1,1,2c0,1-0.5,1.8-1.6,1.9c0.4,0.2,0.6,0.6,0.6,1.2c0,1.1-0.6,1.8-2,2.4&#10;&#9;&#9;&#9;c-2,0.5-3.9,0.6-5.1,0.6c-1,0-1.9-0.2-4.3-0.3c-1.7-0.1-4.2,0.6-5.4,1c-3-2.5-5-6.2-5.2-10.5l5.6-0.8l0,1c1-0.5,2.2-1.8,2.4-2.1&#10;&#9;&#9;&#9;c0.2-0.4,0.5-2.4,2-4c1.5-1.6,3.1-5.2,3.3-6.1c0.2-0.9-0.9-2.9,0.8-2.6c1.7,0.3,2.4,3.4,1.8,4.7c-0.5,1.3-1.2,4.8-1.2,4.8&#10;&#9;&#9;&#9;s2.1,0,3.1,0c0.2,0,1.1-0.2,2.1-0.3l0.1,0c1.5,0,2.3,0.8,2.3,1.8c0,0.7-0.7,1.6-0.7,1.6c1.2,0,1.3,0.9,1.3,2&#10;&#9;&#9;&#9;C515.8,326.4,515.8,327.2,514.8,327.3z M581.5,297.3c-12.2,30.6-42.2,52.3-77.2,52.3c-35,0-64.9-21.7-77.1-52.3H581.5z&#10;&#9;&#9;&#9; M522.3,323.4c0-9.9-8-18-18-18c-9.9,0-18,8-18,18c0,9.9,8,18,18,18C514.2,341.4,522.3,333.3,522.3,323.4z" style="fill: rgb(255, 255, 255);"/>
		<g>
			<path class="st1" d="M448.3,333.8l3.3,2.4l-0.4,0.5l-0.3-0.2c-0.2-0.2-0.4-0.3-0.5-0.3c-0.1,0-0.2,0-0.3,0l-0.2,0.2&#10;&#9;&#9;&#9;&#9;c-0.1,0.1-0.2,0.3-0.2,0.6l-2.1,8l6.9-4.5c0.2-0.2,0.4-0.3,0.5-0.4c0.1-0.1,0.1-0.2,0.1-0.4c0-0.1-0.2-0.3-0.5-0.5l-0.3-0.2&#10;&#9;&#9;&#9;&#9;l0.4-0.5l2.8,2l-0.4,0.5c-0.2-0.2-0.4-0.3-0.6-0.3c-0.1,0-0.3,0-0.4,0c-0.2,0.1-0.4,0.2-0.7,0.4l-8.6,5.4l-0.9-0.7l2.4-9.8&#10;&#9;&#9;&#9;&#9;c0.1-0.3,0.1-0.5,0.1-0.6c0-0.1,0-0.3,0-0.4c0-0.1-0.1-0.2-0.2-0.3c-0.1-0.1-0.2-0.2-0.4-0.4L448.3,333.8z" style="fill: rgb(255, 255, 255);"/>
			<path class="st1" d="M457.8,340.5l8,4.3l-0.5,3.1l-0.7-0.1c0.1-0.5,0.1-0.9,0-1.3c-0.1-0.3-0.2-0.7-0.3-1&#10;&#9;&#9;&#9;&#9;c-0.2-0.3-0.4-0.6-0.6-0.8c-0.2-0.2-0.7-0.5-1.4-0.9l-2.4-1.3l-1.9,3.6l1.2,0.6c0.4,0.2,0.8,0.3,1.1,0.3c0.3,0,0.6-0.1,0.8-0.3&#10;&#9;&#9;&#9;&#9;c0.2-0.1,0.3-0.4,0.6-0.8l0.1-0.2l0.7,0.4l-2.3,4.3l-0.7-0.4l0.2-0.4c0.2-0.3,0.3-0.6,0.3-0.7c0-0.2,0-0.4,0-0.6&#10;&#9;&#9;&#9;&#9;c-0.1-0.2-0.2-0.4-0.3-0.5c-0.1-0.1-0.4-0.3-0.7-0.5l-1.2-0.6l-1.7,3.2c-0.2,0.3-0.3,0.5-0.3,0.6l0.1,0.2c0,0.1,0.2,0.2,0.5,0.4&#10;&#9;&#9;&#9;&#9;l1.5,0.8c0.8,0.4,1.5,0.7,2.1,0.8c0.6,0.1,1.1,0,1.7-0.2c0.4-0.2,1-0.5,1.5-0.9l0.5,0.6l-2.8,2.5l-8.3-4.5l0.3-0.6l0.3,0.2&#10;&#9;&#9;&#9;&#9;c0.3,0.2,0.5,0.3,0.6,0.3c0.2,0,0.3,0,0.4-0.1c0.1-0.1,0.2-0.3,0.4-0.6l3.7-6.8c0.2-0.3,0.2-0.5,0.2-0.7c0-0.1-0.1-0.3-0.2-0.4&#10;&#9;&#9;&#9;&#9;c-0.1-0.1-0.3-0.2-0.8-0.5L457.8,340.5z" style="fill: rgb(255, 255, 255);"/>
			<path class="st1" d="M467.8,345.8l5.4,2.1c1,0.4,1.7,0.8,2.2,1.2c0.4,0.4,0.7,0.9,0.9,1.4c0.1,0.5,0.1,1-0.1,1.6&#10;&#9;&#9;&#9;&#9;c-0.2,0.5-0.5,1-1,1.3c-0.4,0.3-1,0.5-1.6,0.5c-0.6,0-1.3-0.1-2.2-0.4l1.5,4.4c0.1,0.4,0.2,0.6,0.2,0.7c0.1,0.2,0.2,0.4,0.4,0.6&#10;&#9;&#9;&#9;&#9;c0.2,0.2,0.4,0.3,0.6,0.4l0.2,0.1l-0.2,0.6l-2.4-0.9l-1.9-6.4l-1.3-0.5l-1.2,3.2c-0.1,0.4-0.2,0.6-0.2,0.7c0,0.2,0,0.3,0.1,0.5&#10;&#9;&#9;&#9;&#9;c0.1,0.1,0.3,0.2,0.7,0.4l0.3,0.1l-0.2,0.6l-4-1.5l0.2-0.6l0.4,0.1c0.3,0.1,0.5,0.2,0.6,0.2c0.1,0,0.2,0,0.3-0.1&#10;&#9;&#9;&#9;&#9;c0.1-0.1,0.2-0.2,0.3-0.3c0-0.1,0.1-0.3,0.3-0.7l2.6-6.8c0.1-0.3,0.2-0.5,0.2-0.7c0-0.2-0.1-0.3-0.1-0.4&#10;&#9;&#9;&#9;&#9;c-0.1-0.1-0.3-0.2-0.5-0.3l-0.4-0.2L467.8,345.8z M470.2,347.7l-1.5,3.9l2.1,0.8c0.7,0.3,1.3,0.4,1.6,0.5c0.5,0,0.9,0,1.2-0.3&#10;&#9;&#9;&#9;&#9;c0.4-0.2,0.6-0.6,0.8-1.1c0.2-0.4,0.2-0.8,0.1-1.2c-0.1-0.4-0.2-0.7-0.5-0.9c-0.2-0.3-0.7-0.5-1.3-0.7L470.2,347.7z" style="fill: rgb(255, 255, 255);"/>
			<path class="st1" d="M478.3,349.7l4.1,1.2l-0.2,0.6l-0.3-0.1c-0.3-0.1-0.5-0.1-0.7-0.1c-0.2,0-0.3,0.1-0.4,0.3&#10;&#9;&#9;&#9;&#9;c-0.1,0.1-0.2,0.4-0.3,0.9l-1.9,6.9c-0.1,0.3-0.1,0.6-0.1,0.8c0,0.2,0.1,0.3,0.2,0.4c0.1,0.1,0.3,0.2,0.6,0.3l0.3,0.1l-0.2,0.6&#10;&#9;&#9;&#9;&#9;l-4.1-1.2l0.2-0.6l0.3,0.1c0.3,0.1,0.5,0.1,0.7,0.1c0.1,0,0.3-0.1,0.4-0.2c0.1-0.1,0.2-0.4,0.3-0.7l2-7.1&#10;&#9;&#9;&#9;&#9;c0.1-0.4,0.2-0.7,0.1-0.8c0-0.2-0.1-0.3-0.2-0.4c-0.1-0.1-0.3-0.2-0.6-0.3l-0.3-0.1L478.3,349.7z" style="fill: rgb(255, 255, 255);"/>
			<path class="st1" d="M483.5,351.2l8.4,1.6l0.5,3.1l-0.7,0.1c-0.2-0.7-0.4-1.3-0.6-1.6c-0.2-0.3-0.5-0.6-0.8-0.8&#10;&#9;&#9;&#9;&#9;c-0.3-0.2-0.9-0.4-1.7-0.5l-2.4-0.4l-0.8,4.2l1.1,0.2c0.6,0.1,1,0.1,1.2,0.1c0.3-0.1,0.5-0.2,0.7-0.4c0.2-0.2,0.3-0.5,0.4-1&#10;&#9;&#9;&#9;&#9;l0.1-0.3l0.8,0.1l-0.9,4.8l-0.8-0.1l0.1-0.4c0.1-0.4,0.1-0.7,0-1c-0.1-0.3-0.2-0.5-0.4-0.6c-0.2-0.1-0.6-0.3-1.1-0.4l-1.2-0.2&#10;&#9;&#9;&#9;&#9;l-0.6,3.4c-0.1,0.3-0.1,0.5,0,0.7c0,0.1,0.1,0.2,0.2,0.3c0.1,0.1,0.3,0.2,0.7,0.2l0.3,0.1l-0.1,0.7l-4.2-0.8l0.1-0.7l0.3,0.1&#10;&#9;&#9;&#9;&#9;c0.3,0.1,0.6,0.1,0.7,0c0.1,0,0.3-0.1,0.3-0.2c0.1-0.1,0.2-0.4,0.2-0.7l1.4-7.4c0.1-0.3,0.1-0.6,0-0.7c0-0.1-0.1-0.3-0.2-0.3&#10;&#9;&#9;&#9;&#9;c-0.1-0.1-0.3-0.2-0.6-0.2l-0.4-0.1L483.5,351.2z" style="fill: rgb(255, 255, 255);"/>
			<path class="st1" d="M493.2,352.9l4.2,0.4l-0.1,0.7l-0.3,0c-0.3,0-0.5,0-0.7,0.1c-0.1,0.1-0.3,0.2-0.3,0.3&#10;&#9;&#9;&#9;&#9;c-0.1,0.2-0.1,0.5-0.2,0.9l-0.7,7.2c0,0.4,0,0.6,0,0.8c0.1,0.2,0.1,0.3,0.3,0.4c0.1,0.1,0.3,0.1,0.7,0.2l0.3,0l-0.1,0.7l-4.2-0.4&#10;&#9;&#9;&#9;&#9;l0.1-0.7l0.3,0c0.3,0,0.5,0,0.7,0c0.1-0.1,0.2-0.2,0.3-0.3c0.1-0.1,0.1-0.4,0.2-0.8l0.7-7.3c0-0.4,0-0.7,0-0.8&#10;&#9;&#9;&#9;&#9;c0-0.1-0.1-0.3-0.3-0.3c-0.1-0.1-0.3-0.1-0.7-0.2l-0.4,0L493.2,352.9z" style="fill: rgb(255, 255, 255);"/>
			<path class="st1" d="M498.5,353.5l9.1,0.1l1,2.9l-0.7,0.3c-0.2-0.5-0.4-0.9-0.6-1.1c-0.2-0.3-0.5-0.5-0.7-0.7&#10;&#9;&#9;&#9;&#9;c-0.3-0.2-0.6-0.3-0.9-0.4c-0.3-0.1-0.8-0.1-1.6-0.1l-2.7,0l0,4.1l1.3,0c0.5,0,0.9-0.1,1.1-0.2c0.3-0.2,0.4-0.4,0.5-0.6&#10;&#9;&#9;&#9;&#9;c0.1-0.2,0.1-0.5,0.1-1l0-0.2l0.8,0l0,4.9l-0.8,0l0-0.4c0-0.4,0-0.6-0.1-0.8c-0.1-0.2-0.2-0.3-0.3-0.5c-0.2-0.1-0.3-0.2-0.5-0.3&#10;&#9;&#9;&#9;&#9;c-0.2-0.1-0.5-0.1-0.9-0.1l-1.3,0l0,3.6c0,0.4,0,0.6,0,0.7l0.2,0.2c0.1,0,0.3,0.1,0.7,0.1l1.7,0c0.9,0,1.7-0.1,2.2-0.3&#10;&#9;&#9;&#9;&#9;c0.5-0.2,1-0.6,1.4-1c0.3-0.4,0.6-0.9,0.9-1.5l0.7,0.3l-1.3,3.5l-9.4-0.1l0-0.7l0.3,0c0.4,0,0.6,0,0.7-0.1&#10;&#9;&#9;&#9;&#9;c0.1-0.1,0.2-0.2,0.3-0.3c0.1-0.1,0.1-0.3,0.1-0.7l0.1-7.7c0-0.3,0-0.6-0.1-0.7c-0.1-0.1-0.2-0.2-0.4-0.3c-0.1,0-0.4-0.1-0.9-0.1&#10;&#9;&#9;&#9;&#9;L498.5,353.5z" style="fill: rgb(255, 255, 255);"/>
			<path class="st1" d="M509.7,354.3l-0.1-0.7l3.9-0.5c1.8-0.2,3.1-0.3,3.8-0.1c1.1,0.2,2,0.7,2.8,1.5c0.8,0.9,1.4,2,1.5,3.3&#10;&#9;&#9;&#9;&#9;c0.1,0.9,0,1.7-0.2,2.5c-0.3,0.8-0.7,1.5-1.2,2c-0.4,0.5-1,0.8-1.6,1c-0.7,0.2-1.3,0.4-2,0.5l-5.7,0.7L511,364l0.5-0.1l0.2,0&#10;&#9;&#9;&#9;&#9;c0.2,0,0.4-0.1,0.5-0.2c0.1-0.1,0.2-0.2,0.2-0.4c0-0.1,0-0.3,0-0.7l-0.9-7.4c-0.1-0.4-0.1-0.7-0.2-0.8c-0.1-0.2-0.2-0.3-0.4-0.3&#10;&#9;&#9;&#9;&#9;C510.6,354.2,510.3,354.2,509.7,354.3z M513.8,363.4l2.4-0.3c0.2,0,0.6-0.1,1.2-0.3c0.5-0.2,0.9-0.3,1.2-0.5&#10;&#9;&#9;&#9;&#9;c0.3-0.2,0.6-0.6,0.9-1c0.3-0.4,0.5-1,0.6-1.5c0.1-0.6,0.1-1.2,0-1.9c-0.1-0.7-0.3-1.3-0.5-1.8c-0.2-0.5-0.6-0.9-1-1.3&#10;&#9;&#9;&#9;&#9;c-0.4-0.4-0.8-0.6-1.3-0.8c-0.5-0.2-1-0.2-1.5-0.2c-0.3,0-0.8,0.1-1.5,0.1l-1.6,0.2L513.8,363.4z" style="fill: rgb(255, 255, 255);"/>
			<path class="st1" d="M531.4,349.3l0.6-0.2l2.8,8.8c0.1,0.4,0.2,0.7,0.3,0.8c0.1,0.1,0.2,0.2,0.3,0.2c0.1,0,0.4,0,0.8-0.1l0.7-0.2&#10;&#9;&#9;&#9;&#9;l0.2,0.6l-5,1.6l-0.2-0.6l0.8-0.3c0.4-0.1,0.6-0.2,0.7-0.3c0.1-0.1,0.2-0.2,0.2-0.4c0-0.2,0-0.4-0.1-0.8l-2.3-7.3l-1.9,0.6&#10;&#9;&#9;&#9;&#9;l-0.2-0.7C530.1,350.6,530.9,350,531.4,349.3z" style="fill: rgb(255, 255, 255);"/>
			<path class="st1" d="M540,345.8c0.7-0.3,1.5-0.4,2.2-0.3c0.7,0.1,1.5,0.5,2.2,1.2c0.7,0.7,1.3,1.6,1.8,2.7&#10;&#9;&#9;&#9;&#9;c0.8,1.7,0.9,3.3,0.5,4.6c-0.4,1.1-1.1,1.9-2.1,2.3c-0.7,0.3-1.5,0.4-2.2,0.3c-0.7-0.1-1.4-0.5-2.1-1.1c-0.7-0.6-1.3-1.5-1.8-2.7&#10;&#9;&#9;&#9;&#9;c-0.5-1.2-0.8-2.3-0.8-3.2c0-0.9,0.2-1.7,0.6-2.3C538.7,346.7,539.3,346.2,540,345.8z M540.3,346.6c-0.5,0.2-0.9,0.6-1.1,1.1&#10;&#9;&#9;&#9;&#9;c-0.2,0.5-0.2,1.1-0.1,1.9c0.1,0.9,0.4,1.8,0.8,2.8c0.3,0.7,0.7,1.4,1.1,1.9c0.4,0.5,0.8,0.9,1.2,1.2c0.4,0.2,0.7,0.4,1.1,0.4&#10;&#9;&#9;&#9;&#9;c0.4,0,0.7,0,1-0.2c0.5-0.2,0.8-0.6,1.1-1.2c0.2-0.5,0.3-1,0.2-1.7c-0.1-0.8-0.4-1.8-0.8-2.8c-0.5-1-1-1.9-1.5-2.5&#10;&#9;&#9;&#9;&#9;c-0.6-0.6-1.1-1-1.5-1.1C541.3,346.3,540.8,346.4,540.3,346.6z" style="fill: rgb(255, 255, 255);"/>
			<path class="st1" d="M548.6,341.5c0.7-0.4,1.4-0.6,2.2-0.5c0.7,0.1,1.5,0.4,2.3,1c0.8,0.6,1.5,1.4,2.1,2.5c0.9,1.6,1.3,3.1,1,4.5&#10;&#9;&#9;&#9;&#9;c-0.2,1.1-0.9,2-1.9,2.6c-0.7,0.4-1.4,0.6-2.1,0.5c-0.7-0.1-1.5-0.4-2.2-0.9c-0.8-0.5-1.5-1.4-2.1-2.5c-0.7-1.1-1-2.2-1.1-3.1&#10;&#9;&#9;&#9;&#9;c-0.1-0.9,0-1.7,0.4-2.4C547.3,342.4,547.9,341.9,548.6,341.5z M548.9,342.2c-0.5,0.3-0.8,0.7-1,1.3c-0.1,0.5-0.1,1.1,0.1,1.9&#10;&#9;&#9;&#9;&#9;c0.2,0.9,0.6,1.8,1.1,2.7c0.4,0.7,0.8,1.3,1.3,1.8c0.5,0.5,0.9,0.8,1.3,1c0.4,0.2,0.8,0.3,1.1,0.3c0.4,0,0.7-0.1,1-0.3&#10;&#9;&#9;&#9;&#9;c0.5-0.3,0.8-0.7,1-1.3c0.1-0.5,0.1-1.1,0-1.7c-0.2-0.8-0.6-1.7-1.1-2.7c-0.6-1-1.2-1.7-1.8-2.3c-0.6-0.5-1.2-0.9-1.7-0.9&#10;&#9;&#9;&#9;&#9;C549.9,341.8,549.4,341.9,548.9,342.2z" style="fill: rgb(255, 255, 255);"/>
			<path class="st1" d="M555,337.4c0.6-0.5,1.3-0.7,1.9-0.5c0.7,0.1,1.4,0.6,2,1.3c0.6,0.7,0.8,1.4,0.7,2.2c-0.1,0.7-0.4,1.3-1,1.8&#10;&#9;&#9;&#9;&#9;c-0.6,0.5-1.3,0.7-2.1,0.5c-0.6-0.2-1.2-0.6-1.7-1.3c-0.6-0.8-0.9-1.5-0.8-2.2C554.1,338.5,554.4,337.9,555,337.4z M555.3,337.8&#10;&#9;&#9;&#9;&#9;c-0.2,0.2-0.4,0.4-0.4,0.6c-0.1,0.3,0,0.6,0.1,1c0.1,0.4,0.4,0.8,0.7,1.3c0.3,0.4,0.7,0.8,1,1c0.3,0.2,0.6,0.3,0.9,0.3&#10;&#9;&#9;&#9;&#9;c0.3,0,0.5-0.1,0.7-0.2c0.2-0.2,0.4-0.4,0.4-0.7c0.1-0.3,0.1-0.6-0.1-1c-0.1-0.4-0.4-0.8-0.7-1.2c-0.5-0.6-0.9-1-1.4-1.2&#10;&#9;&#9;&#9;&#9;C556.2,337.5,555.7,337.5,555.3,337.8z M561.7,332.3l1.2,13.7l-0.8,0.6l-1.2-13.7L561.7,332.3z M565.1,336.6&#10;&#9;&#9;&#9;&#9;c0.6-0.5,1.3-0.7,1.9-0.5c0.7,0.1,1.4,0.6,2,1.4c0.6,0.7,0.8,1.4,0.7,2.2c-0.1,0.7-0.4,1.3-1,1.8c-0.6,0.5-1.3,0.7-2.1,0.5&#10;&#9;&#9;&#9;&#9;c-0.6-0.2-1.2-0.6-1.7-1.3c-0.6-0.8-0.8-1.5-0.8-2.2C564.1,337.7,564.4,337.1,565.1,336.6z M565.4,337.1&#10;&#9;&#9;&#9;&#9;c-0.2,0.2-0.4,0.4-0.4,0.6c-0.1,0.3,0,0.6,0.1,1c0.1,0.4,0.4,0.8,0.7,1.3c0.3,0.4,0.7,0.7,1,1c0.3,0.2,0.6,0.3,0.9,0.3&#10;&#9;&#9;&#9;&#9;c0.3,0,0.5-0.1,0.7-0.2c0.2-0.2,0.4-0.4,0.4-0.7c0.1-0.3,0.1-0.6-0.1-1c-0.1-0.4-0.4-0.8-0.7-1.2c-0.5-0.6-0.9-1-1.4-1.2&#10;&#9;&#9;&#9;&#9;C566.2,336.7,565.8,336.7,565.4,337.1z" style="fill: rgb(255, 255, 255);"/>
		</g>
	</g>






</svg>