<svg width="80" height="80" viewBox="0 0 80 80" fill="none" xmlns="http://www.w3.org/2000/svg">
<path fill-rule="evenodd" clip-rule="evenodd" d="M40 80C62.0914 80 80 62.0914 80 40C80 17.9086 62.0914 0 40 0C17.9086 0 0 17.9086 0 40C0 62.0914 17.9086 80 40 80Z" fill="#F80059"/>
<mask id="mask0" mask-type="alpha" maskUnits="userSpaceOnUse" x="0" y="0" width="80" height="80">
<path fill-rule="evenodd" clip-rule="evenodd" d="M40 80C62.0914 80 80 62.0914 80 40C80 17.9086 62.0914 0 40 0C17.9086 0 0 17.9086 0 40C0 62.0914 17.9086 80 40 80Z" fill="white"/>
</mask>
<g mask="url(#mask0)">
<path d="M45.6235 24.2015C36.1422 24.2015 28.4562 31.6387 28.4562 40.8128C28.4562 49.9871 36.1422 57.4242 45.6235 57.4242C55.1046 57.4242 62.7907 49.9871 62.7907 40.8128C62.7907 31.6387 55.1046 24.2015 45.6235 24.2015Z" fill="white"/>
<path d="M65.1327 40.8129C65.1327 39.5142 66.2208 38.4613 67.563 38.4613C68.9052 38.4613 69.9933 39.5142 69.9933 40.8129C69.9933 42.1116 68.9052 43.1645 67.563 43.1645C66.2208 43.1645 65.1327 42.1116 65.1327 40.8129Z" fill="white"/>
<path d="M11.4575 40.2535V37.7509H10V43.9337H11.4575V41.4311H13.7894V43.9337H15.2467V37.7509H13.7894V40.2535H11.4575Z" fill="white"/>
<path d="M18.9578 40.2535V39.2231H21.5812V37.7509H18.6664H17.5004V43.9337H18.5205H21.5812V42.4615H18.9578V41.4311H20.7068V40.2535H18.9578Z" fill="white"/>
<path d="M25.8752 40.2535V39.2231H28.4986V37.7509H25.5838H24.4177V43.9337H25.4379H28.4986V42.4615H25.8752V41.4311H27.6241V40.2535H25.8752Z" fill="white"/>
<path d="M34.1043 39.223V43.9336H32.6469V39.223H30.8979V37.7509H35.8532V39.223H34.1043Z" fill="#F80059"/>
<path d="M43.0521 38.5989C42.4518 37.9678 41.6236 37.6037 40.7397 37.6037C38.969 37.6037 37.5333 39.0538 37.5333 40.8423C37.5333 42.6309 38.969 44.0809 40.7397 44.0809C41.6158 44.0809 42.4375 43.7232 43.0367 43.1018L41.9927 42.0748C41.6651 42.4144 41.2185 42.6088 40.7397 42.6088C39.7738 42.6088 38.9908 41.8179 38.9908 40.8423C38.9908 39.8668 39.7738 39.0758 40.7397 39.0758C41.2229 39.0758 41.673 39.2736 42.0012 39.6187L43.0521 38.5989Z" fill="#F80059"/>
<path d="M46.0444 40.2535V37.7509H44.5869V43.9337H46.0444V41.4311H48.3763V43.9337H49.8336V37.7509H48.3763V40.2535H46.0444Z" fill="#F80059"/>
</g>
</svg>
