<svg width="80" height="80" viewBox="0 0 80 80" fill="none" xmlns="http://www.w3.org/2000/svg">
<path d="M40 80C62.0914 80 80 62.0914 80 40C80 17.9086 62.0914 0 40 0C17.9086 0 0 17.9086 0 40C0 62.0914 17.9086 80 40 80Z" fill="#F2F2F2"/>
<path d="M54.2526 47.6933C53.248 47.6933 52.4338 46.8301 52.4338 45.763C52.4338 44.696 53.248 43.8328 54.2526 43.8328C55.2571 43.8328 56.0734 44.696 56.0734 45.763C56.0734 46.8301 55.2571 47.6933 54.2526 47.6933ZM62.3932 45.7066H61.3866V43.5704H62.117C62.7267 43.5704 63.3139 44.028 63.3139 44.5789C63.3139 45.2816 62.9886 45.7066 62.3932 45.7066ZM47.2719 45.8585H46.1672V43.5856H47.184C47.8387 43.5856 48.2356 44.0887 48.2437 44.6157C48.2601 45.4572 47.7732 45.8606 47.2719 45.8585ZM71.029 40.9765H65.6953C65.2022 40.9765 65.016 41.2649 65.016 41.805V42.4166C64.7624 41.7529 63.5941 40.9765 62.5426 40.9765H59.443C59.0011 40.9765 58.7986 41.1044 58.7986 41.716V44.2666C58.4773 43.2971 57.2928 40.8377 54.2751 40.8377C52.8388 40.8377 51.1387 41.4992 50.2426 42.9718C49.549 41.6922 48.4115 41.0025 46.873 41.0025H44.465C43.9924 41.0025 43.7366 41.0025 43.7366 41.6336V46.0775C43.307 45.0885 42.2963 44.388 41.2488 44.388H39.9251C39.3154 44.388 39.1313 44.041 39.1313 43.7157C39.1313 43.5378 39.2377 43.3058 39.5507 43.3058H42.417C42.7894 43.3058 43.0778 43.2125 43.0778 42.7094V41.5989C43.0778 41.15 42.8733 41.0025 42.2636 41.0025H39.3154C38.182 41.0025 36.4512 41.7312 36.4512 43.9608C36.4512 46.186 38.7058 46.8301 39.7389 46.8301H40.858C41.2304 46.8301 41.3163 47.099 41.3163 47.2617C41.3163 47.4959 41.214 47.7301 40.9092 47.7301H37.556C37.0793 47.7301 36.977 47.9318 36.977 48.396V49.8707C36.977 50.2481 37.0956 50.4628 37.556 50.4628H41.2631C42.059 50.4628 43.7366 49.8317 43.7366 48.4849V49.8881C43.7366 50.2286 43.8226 50.4802 44.1785 50.4802H45.7907C46.2101 50.4802 46.2265 50.1744 46.2101 49.8512V48.8449C46.2101 48.5868 46.3799 48.4719 46.6173 48.4719C47.6361 48.4719 49.6575 48.0967 49.6575 47.1814C50.0892 48.821 51.7852 50.7491 54.2751 50.7491C56.7649 50.7491 58.7986 48.5391 58.7986 46.7282V49.7103C58.7986 50.0312 58.7986 50.4802 59.2548 50.4802H60.9324C61.2209 50.4802 61.3764 50.2828 61.3764 49.8707V47.1944L63.32 50.1375C63.4571 50.2828 63.545 50.4628 63.8315 50.4628H65.8303C66.0983 50.4628 66.0513 50.2286 65.9142 49.9965C65.7771 49.7623 64.3225 47.3918 64.3225 47.3918C65.3209 46.7455 65.861 46.045 65.861 44.4986C65.861 44.2297 65.8446 43.9434 65.8303 43.8328H67.1847V49.8707C67.1847 50.1939 67.3034 50.4628 67.776 50.4628H69.4904C69.963 50.4628 69.9139 50.1939 69.9139 49.8881V43.8328H70.9635C71.5895 43.8328 71.6918 43.7092 71.6918 43.1518V41.5013C71.6918 41.1413 71.5384 40.9765 71.029 40.9765Z" fill="#004492"/>
<path d="M37.4701 29C36.8575 29.025 36.5288 29.603 36.5288 30.206V37.8154C36.5288 38.4662 36.9984 38.9691 37.517 38.9691C38.0357 38.9691 38.4583 38.63 38.4583 37.829V30.156C38.4583 29.4051 38.1766 29 37.4701 29Z" fill="#E00018"/>
<path d="M42.0634 32.6317V37.8655C42.0634 38.6687 41.6749 38.9691 41.1584 38.9691C40.6397 38.9691 40.1659 38.4685 40.1659 37.8154V30.206C40.1659 29.603 40.5309 29.025 41.1456 29.0023C42.1125 29.0023 42.1808 29.5416 42.3942 29.842L45.6471 35.0461V30.206C45.6471 29.603 45.9736 29.025 46.5883 29.0023C47.2948 29.0023 47.6128 29.4028 47.6128 30.156V37.8495C47.6128 38.6505 47.1902 38.9896 46.6716 38.9896C45.8584 38.9896 45.7495 38.4753 45.4678 38.0247" fill="#E00018"/>
<path d="M52.8081 30.7726L52.8102 37.8472C52.8102 38.6528 52.3855 38.9896 51.869 38.9896C51.3503 38.9896 50.8786 38.4889 50.8786 37.8359L50.885 30.7726L49.1369 30.7635C48.4262 30.7635 48.0249 30.5223 48.0035 29.8715C48.0035 29.1661 48.281 29.0228 49.0814 29.0228H54.7269C55.2904 29.0228 55.7109 29.157 55.7109 29.8579C55.7109 30.4632 55.3801 30.7635 54.6245 30.7635" fill="#E00018"/>
<path d="M63.2004 29.8761C63.2004 29.2162 62.8461 29.0296 62.1908 29.0296H56.8548C56.3959 29.0296 56.095 29.3868 56.095 30.0831V38.1066C56.095 38.5754 56.2871 38.9713 56.8185 38.9713H62.3509C63.0126 38.9713 63.2709 38.7006 63.2709 38.2159C63.2709 37.6311 62.9891 37.3125 62.3338 37.3125H58.0906V34.6023H61.8557C62.2036 34.6023 62.622 34.4271 62.6007 33.7354C62.5814 33.2074 62.2997 32.964 61.6957 32.964H58.0906V30.6862H62.2442C62.7693 30.6862 63.2004 30.5405 63.2004 29.8761Z" fill="#E00018"/>
<path d="M68.131 33.5283H66.1353V30.5337H68.1139C68.7372 30.5337 69.7041 30.8568 69.7041 32.0037C69.7041 33.1437 68.8503 33.5283 68.131 33.5283ZM71.418 37.4376C71.3604 37.0713 71.3476 36.5707 71.3476 36.2885C71.3113 34.7571 70.5237 34.302 69.6507 34.2064C70.9655 34.013 71.5226 33.1824 71.5226 31.8489C71.5226 29.2912 69.4607 29.025 67.988 29.025H65.5697C64.9315 29.025 64.1525 29.1752 64.1525 30.3835V37.6265C64.1525 38.6641 64.4193 38.985 65.1428 38.985C65.8685 38.985 66.1503 38.6801 66.1503 37.6265V34.7707H67.3712C68.3359 34.7821 69.5098 35.0142 69.5098 36.8528C69.5098 38.2295 69.544 39.0214 70.6752 39.0214C70.9762 39.0214 71.3518 38.8712 71.5226 38.4389C71.6656 38.0793 71.4671 37.7516 71.418 37.4376Z" fill="#E00018"/>
<path d="M12.9084 39.4612C15.6135 39.4612 17.8125 37.1215 17.8125 34.233C17.8125 31.3444 15.6135 29 12.9084 29C10.1946 29 8 31.3444 8 34.233C8 37.1215 10.1946 39.4612 12.9084 39.4612Z" fill="#E00018"/>
<path d="M33.0482 39.9164V30.0971C27.0359 30.0971 23.4757 33.0182 21.6824 35.437C19.8456 37.9023 17.3063 40.6793 13.1003 40.6793V50.4986C17.8255 50.4986 21.2898 48.5496 23.7985 45.6703C26.3029 42.7957 27.939 39.9164 33.0482 39.9164Z" fill="#004492"/>
</svg>
