<svg width="80" height="80" viewBox="0 0 80 80" fill="none" xmlns="http://www.w3.org/2000/svg">
<path d="M40 80C62.0914 80 80 62.0914 80 40C80 17.9086 62.0914 0 40 0C17.9086 0 0 17.9086 0 40C0 62.0914 17.9086 80 40 80Z" fill="white"/>
<path fill-rule="evenodd" clip-rule="evenodd" d="M44.4202 33.398C44.4528 34.8149 45.3411 35.3883 46.0647 35.3546C47.3472 35.3546 47.7091 33.398 47.5117 31.4751C47.413 30.3954 47.0843 29.2485 45.8343 29.2485C45.2095 29.2485 44.5192 29.9232 44.4205 30.6654V33.398H44.4202ZM43.3351 29.4844C42.9402 29.4844 42.1835 29.5857 42.1835 28.9447C42.1835 28.5738 42.3809 28.4388 42.6116 28.4388C43.0719 28.4388 43.4993 28.4388 44.0254 28.405C44.1241 28.405 44.2882 28.9785 44.4202 28.9785C44.5189 28.9785 44.9131 28.5397 45.0118 28.5059C45.834 28.1013 46.5904 28.2363 47.2485 28.6075C48.0049 29.0797 48.4981 29.9907 48.5968 31.0026C48.8597 33.7689 48.3007 35.4221 47.3798 35.9618C46.3275 36.6365 45.3737 36.5014 44.4528 35.928L44.4202 37.9859C45.1105 37.9859 46.0969 37.8171 46.0969 38.4918C46.0969 38.8293 45.8014 38.9981 45.5708 38.9981H42.5783C42.3809 38.9981 42.1835 38.7618 42.1835 38.4584C42.2167 37.8174 42.907 37.9862 43.3351 37.9862V29.4844ZM37.7769 38.9981C37.4482 38.9981 36.9217 38.8631 36.9217 38.4918C36.9546 37.9184 37.2179 37.9184 37.974 37.9184C37.974 36.3664 38.0727 33.3639 37.8423 32.7229C37.6778 32.2507 37.3491 31.9132 36.5269 31.9132C35.6718 31.9132 34.8166 32.4195 34.8495 33.8026L34.8166 37.9521C35.2111 37.9521 36.0992 37.7833 36.1321 38.4246C36.1321 38.8293 35.9676 38.9981 35.6389 38.9981H33.4032C33.2058 38.9981 32.6138 38.9981 32.6138 38.5259C32.5809 37.9525 33.2061 37.8849 33.6664 37.9187V32.1157C33.1403 32.1157 32.5813 32.1832 32.5484 31.6098C32.5484 30.8338 33.2719 31.0363 34.3241 31.0363C34.6202 31.0701 34.6857 31.2051 34.8177 31.576C35.0805 31.441 35.1138 31.3398 35.4754 31.1376C35.8699 30.9351 36.3305 30.8001 36.7579 30.8001C37.514 30.8001 38.5665 30.8001 38.8956 31.8798C39.093 32.4532 39.1917 33.0945 39.1917 33.7692V37.9187C39.7507 37.9187 40.2772 37.885 40.2772 38.4584C40.2772 38.8631 40.0139 38.9981 39.5865 38.9981H37.7769ZM27.9108 37.9187C28.6014 37.8849 29.2262 37.4465 29.3907 36.6706V35.0177C28.503 34.984 26.6282 35.0515 26.727 36.6372C26.7928 37.6149 27.3847 37.9521 27.9108 37.9187ZM29.7198 38.0871C28.503 39.4703 25.6418 39.504 25.6418 36.569C25.6418 34.7136 26.7273 34.3427 28.6017 34.0389C29.1278 33.9376 29.3911 33.668 29.3582 33.3305C29.3582 32.4198 29.3253 31.5426 28.2727 31.5426C27.8779 31.5426 27.2863 31.5426 27.1876 32.1836C27.1547 32.757 27.944 33.668 26.6286 33.668C26.267 33.668 25.938 32.9933 25.938 32.5882C25.938 31.1713 27.2863 30.6654 28.2398 30.6316C28.9304 30.6316 29.983 30.6992 30.2462 31.6776C30.7065 33.2967 30.5423 35.6246 30.5749 37.3115C30.6078 37.885 31.1997 37.6824 31.2326 37.4128C31.2984 36.4009 31.1668 35.9625 31.2984 35.7599C31.4629 35.4562 31.5945 35.5237 31.7916 35.5237C32.0877 35.5237 32.2519 35.7599 32.2852 36.03C32.3839 36.8397 32.2852 38.1891 31.7916 38.6275C31.6271 38.7963 31.2326 38.8972 30.9697 38.8972C30.5087 38.8968 30.0813 38.7959 29.7198 38.0871ZM51.5567 37.9187C52.247 37.8849 52.8393 37.4465 53.036 36.6706V35.0177C52.1151 34.984 50.2738 35.0515 50.3397 36.6372C50.4055 37.6149 51.0299 37.9521 51.5567 37.9187ZM53.3325 38.0871C52.1486 39.4703 49.2871 39.504 49.2871 36.569C49.2871 34.7136 50.34 34.3427 52.2473 34.0389C52.7734 33.9376 53.0038 33.668 53.0038 33.3305C53.0038 32.4198 52.9376 31.5426 51.9187 31.5426C51.5238 31.5426 50.899 31.5426 50.8003 32.1836C50.7671 32.757 51.5893 33.668 50.2742 33.668C49.8794 33.668 49.5507 32.9933 49.5507 32.5882C49.5507 31.1713 50.899 30.6654 51.8854 30.6316C52.5757 30.6316 53.6286 30.6992 53.8915 31.6776C54.3189 33.2967 54.1876 35.6246 54.2201 37.3115C54.2534 37.885 54.8456 37.6824 54.8779 37.4128C54.944 36.4009 54.7792 35.9625 54.9111 35.7599C55.0753 35.4562 55.2398 35.5237 55.4372 35.5237C55.7001 35.5237 55.8975 35.7599 55.9308 36.03C56.0295 36.8397 55.8975 38.1891 55.4372 38.6275C55.2398 38.7963 54.8456 38.8972 54.5821 38.8972C54.1543 38.8968 53.694 38.7959 53.3325 38.0871ZM23.3726 33.9376C23.3726 32.3857 22.7806 31.711 21.8926 31.7448C20.9388 31.711 20.2481 32.487 20.2814 33.9376H23.3726ZM20.2481 35.0511C20.2811 36.9402 20.9717 37.8849 21.8268 37.8849C22.6819 37.8849 23.3397 37.3453 23.3726 36.468C23.4055 36.198 23.6358 35.7258 23.9645 35.7258C24.688 35.7258 24.8196 36.974 24.0303 37.8849C23.2409 38.7959 22.7806 38.9984 21.8597 38.9984C21.0704 38.9984 20.2152 38.6609 19.722 37.7837C19.1959 36.9065 18.966 35.7596 18.966 34.6465C18.966 32.4198 20.1169 30.6654 21.9259 30.6654C23.8003 30.6654 24.6554 32.6895 24.6554 34.1068C24.6554 34.5789 24.6554 34.9165 24.4251 34.9502C24.129 35.1183 21.8268 35.0511 20.2481 35.0511ZM17.9463 36.8052C17.9463 38.1209 17.2886 38.9981 15.9732 38.9981C15.0193 38.9981 14 38.6943 14 37.4462C14 36.9065 14.2303 36.6365 14.7893 36.6365C15.4141 36.6365 15.5129 37.0749 15.4141 37.3787C15.2167 38.0871 15.3483 38.0196 15.9403 38.0196C16.6967 38.0196 16.7625 37.5474 16.7625 36.4339L16.7954 29.6532C16.7625 29.2822 16.6312 29.0122 16.4338 29.0122C15.8419 29.0122 15.6445 28.9447 15.6445 28.4722C15.6445 28.0338 15.9406 28 16.2364 28H17.9466V36.8052H17.9463ZM64.3498 28.8435C64.3498 28.3375 65.4675 28.405 66.3226 28.405H66.3881C66.4868 28.405 66.5523 28.4725 66.5855 28.5738C66.6188 28.7088 66.651 28.8435 66.651 28.9788V37.4465C66.651 37.9862 66.8158 38.155 67.0458 38.155H66.9804H67.6377C67.7697 38.155 67.8684 38.2225 67.9338 38.3237C68 38.425 68 38.425 68 38.5262V38.56C68 38.695 67.9668 38.7625 67.9013 38.8634C67.8351 38.9647 67.7364 38.9984 67.6052 38.9984H64.7114C64.6127 38.9984 64.5466 38.9647 64.4808 38.8634C64.4153 38.7963 64.382 38.695 64.3495 38.6275V38.56L64.382 38.6275V38.56V38.5262C64.4153 38.425 64.4475 38.3575 64.514 38.29C64.5388 38.25 64.5726 38.2168 64.6127 38.1933C64.6528 38.1698 64.6978 38.1566 64.744 38.155C65.1056 38.155 65.4017 38.2225 65.5336 37.8515C65.5991 37.7503 65.5991 37.6153 65.5662 37.4465V30.1591C65.5662 29.5519 65.3688 29.3832 65.0733 29.3494C64.514 29.3156 64.3824 29.2822 64.3498 28.8435ZM62.8034 37.7162C63.0008 37.7162 63.9872 37.4124 63.9872 37.9521C63.9872 38.6268 62.5734 38.9643 62.1786 38.9643C61.7844 38.8968 61.8499 38.3234 61.8499 37.9187C61.3896 38.5259 60.797 39.0318 59.5809 38.9984C58.4293 38.9647 57.9036 38.1887 57.7391 37.4465C57.3775 36.0634 57.6071 33.9718 57.5749 32.5886C57.5749 31.9814 57.3775 31.9814 57.1146 31.9476C56.8517 31.9476 56.4898 31.8464 56.4898 31.5426C56.4565 31.0704 56.9494 31.1042 57.4433 31.1042C57.6407 31.1042 58.1336 31.0367 58.6603 31.1042C58.7258 31.2054 58.7916 31.3067 58.7916 31.4417C58.759 32.5214 58.759 35.1865 58.7916 36.7718C58.7916 37.8174 59.3506 38.1212 60.0087 38.1212C60.6335 38.0875 61.2912 37.5478 61.7186 37.0418V32.7908C61.7186 32.4198 61.7519 32.0148 61.5544 31.8798C61.2583 31.7114 60.5022 31.9811 60.4693 31.4751C60.4693 31.1379 60.568 30.9692 60.9629 30.9692H62.4754C62.5741 30.9692 62.6728 31.0367 62.7054 31.1717C62.7715 31.2729 62.8041 31.4417 62.8041 31.6101V37.7162H62.8034Z" fill="black"/>
<path fill-rule="evenodd" clip-rule="evenodd" d="M42.4398 38.8511C42.1699 39.1149 42.0014 39.445 41.9343 39.8739C41.8332 40.171 41.7992 40.5669 41.7992 41.0291C41.7992 41.2272 41.7992 41.392 41.7658 41.491C41.6988 41.6228 41.5977 41.7218 41.4285 41.7548C41.294 41.7215 41.1929 41.7215 41.0918 41.5901L40.9907 41.4253L40.6203 38.3562L42.3047 38.125L42.4398 38.8511ZM45.8082 37.5641L46.8859 45.8468C46.92 46.144 46.953 46.2764 47.0211 46.3421C47.0544 46.4078 47.1893 46.4745 47.3915 46.5068C47.593 46.5402 47.6941 46.6392 47.7281 46.804C47.7281 46.9687 47.6611 47.1011 47.56 47.1668C47.4589 47.2325 47.3578 47.2659 47.3237 47.2659L43.922 47.8268C43.6187 47.8595 43.4505 47.7278 43.4165 47.4963C43.3824 47.2982 43.4835 47.1665 43.6187 47.1008C43.8209 47.0018 43.9553 46.9027 43.989 46.8037C43.989 46.7703 43.989 46.6056 43.955 46.3084L42.8773 38.0256L45.8082 37.5641ZM49.7828 37.9269C49.7158 37.8609 49.5806 37.7949 49.3784 37.7949C49.2103 37.7288 49.1092 37.6298 49.1092 37.432C49.0758 37.2669 49.1432 37.1679 49.2773 37.0692C49.3114 37.0032 49.3784 36.9701 49.5136 36.9701L52.882 36.4422C53.1853 36.4092 53.3534 36.5082 53.3534 36.772C53.3875 36.9371 53.3194 37.1022 53.1512 37.1682C52.949 37.2673 52.8479 37.3663 52.8479 37.4324C52.8145 37.5314 52.8145 37.6635 52.8145 37.9273L53.7238 44.7917C53.7571 45.0555 53.7908 45.1879 53.8249 45.2536C53.8919 45.3193 53.993 45.3853 54.2293 45.4517C54.4308 45.4517 54.4986 45.5834 54.5319 45.7155C54.566 45.8802 54.4986 46.0126 54.3638 46.111L54.1282 46.21L50.7598 46.7386H50.5236C50.3554 46.7053 50.288 46.5732 50.2543 46.4081C50.2206 46.243 50.3214 46.111 50.4565 46.0126C50.6587 45.9136 50.7932 45.8145 50.7932 45.7155C50.8272 45.6821 50.8272 45.5174 50.7932 45.2202L49.8839 38.4222C49.8839 38.1581 49.8165 37.993 49.7828 37.9269ZM46.4482 38.2241L46.3471 37.465L48.0644 37.2013L48.4688 40.2371C48.5029 40.3031 48.4689 40.3692 48.4348 40.4352C48.3677 40.5673 48.2666 40.6663 48.1322 40.6663C47.997 40.6997 47.8629 40.6329 47.7948 40.5016C47.6937 40.4352 47.6937 40.3031 47.5926 40.1054C47.4582 39.6765 47.3571 39.3133 47.2223 39.0492C47.0379 38.7156 46.7719 38.4322 46.4482 38.2241ZM61.8419 35.0232L62.2123 37.6962C62.2123 37.8943 62.1112 37.9933 61.8756 38.0263C61.7405 38.0593 61.6063 37.9933 61.5052 37.7622C60.9997 36.7394 60.2927 36.2111 59.2817 36.2111L59.1813 35.4521L61.8419 35.0232ZM63.56 35.5511C63.3578 35.4851 63.2567 35.386 63.2226 35.2209C63.1893 34.9898 63.3237 34.8251 63.627 34.726L66.7932 34.2308L67.8716 42.5799C67.905 42.8107 67.9387 42.9427 67.9727 43.0418C68.0398 43.0752 68.1742 43.1742 68.3764 43.2065C68.5446 43.2065 68.6457 43.3389 68.6797 43.5037C68.7138 43.7345 68.5786 43.8999 68.3094 43.9983L64.907 44.5269L64.6714 44.4935C64.5032 44.4608 64.4021 44.3618 64.4021 44.1964C64.3681 43.9983 64.4355 43.8665 64.6043 43.7675C64.8059 43.6684 64.907 43.6027 64.9747 43.5037C65.0081 43.438 64.9747 43.2722 64.907 43.0084L64.0648 36.1774C63.9977 35.9136 63.9637 35.7815 63.9303 35.6825C63.8633 35.6171 63.7622 35.5841 63.56 35.5511ZM55.1048 36.5082C55.0378 36.2771 55.1719 36.1124 55.4752 36.0464L58.6413 35.5514L59.922 45.2869L56.7558 45.8149L56.4859 45.7815C56.3514 45.7158 56.2837 45.6168 56.2503 45.4517C56.2163 45.2869 56.3174 45.1545 56.4525 45.0555C56.6881 44.9564 56.7892 44.8907 56.8229 44.7917C56.8229 44.726 56.8229 44.5602 56.7888 44.2964L55.8796 37.4654C55.8796 37.2016 55.8125 37.0365 55.7785 36.9705C55.7114 36.9044 55.5763 36.8714 55.4081 36.8054C55.2059 36.772 55.1048 36.673 55.1048 36.5082ZM61.1349 38.5543L61.5386 41.3923V41.7222C61.5052 41.8876 61.4375 41.9866 61.2693 42.0193C61.1012 42.0193 60.9327 41.9203 60.8316 41.6231C60.5953 41.0295 60.259 40.6663 59.8546 40.6333L59.7535 39.8085C60.1579 39.6104 60.3601 39.2146 60.4272 38.5216C60.4612 38.2244 60.5623 38.0597 60.7645 38.0597C60.9327 37.9937 61.0338 38.0597 61.0671 38.2248L61.1349 38.5543ZM62.8863 42.1514L63.1896 44.7913L60.4272 45.2202L60.3601 44.4615C60.8316 44.3291 61.236 44.032 61.5389 43.6691C61.8763 43.2729 62.0445 42.7783 62.1456 42.2504L62.2467 41.9533C62.28 41.8542 62.3478 41.7885 62.4822 41.7885C62.7178 41.7552 62.8189 41.8876 62.8863 42.1514ZM68.5786 34C69.0164 34 69.4208 34.033 69.7575 34.1321C70.5997 34.4619 71.1052 35.0892 71.2733 36.079C71.3744 36.772 71.24 37.366 70.903 37.8609C70.5663 38.2571 70.0948 38.5869 69.4549 38.8837V38.9168C70.1285 38.9168 70.6337 39.0158 71.0041 39.1805C71.4418 39.4117 71.7451 39.8736 71.8462 40.4675L72.0144 41.8869C72.0144 41.9526 72.0822 42.0186 72.1155 41.9859C72.1826 41.9526 72.2507 41.9196 72.3518 41.7878C72.4188 41.6224 72.5199 41.5564 72.621 41.5234C72.6881 41.5234 72.7555 41.5567 72.8903 41.6224C72.9573 41.6888 72.9914 41.7548 72.9914 41.8539C73.0247 42.0186 72.9573 42.2167 72.8562 42.4809C72.7218 42.679 72.6207 42.8771 72.4859 43.0418C72.1492 43.4046 71.7448 43.6354 71.1722 43.7345C70.5997 43.8008 70.1619 43.6688 69.7575 43.4046C69.5219 43.2065 69.3871 42.9758 69.286 42.6786C69.1856 42.4472 69.1179 42.1834 69.0845 41.8205L68.9493 40.8964C68.8823 40.5009 68.8482 40.2034 68.7471 40.0386C68.6127 39.7415 68.3768 39.6098 68.0401 39.6424L67.939 38.8504C68.2423 38.7513 68.4438 38.6193 68.5116 38.3885C68.5786 38.2564 68.5786 37.9593 68.5116 37.5964L68.3094 36.0127C68.2753 35.6825 68.1742 35.4187 68.1072 35.2866C67.9727 35.1215 67.7368 34.9895 67.4335 34.9238L67.3324 34.1317H67.4001L68.5786 34ZM41.4288 48.223L38.9026 48.5859L38.8352 47.8272C39.7111 47.5634 40.1826 46.7383 40.2837 45.3189C40.3174 45.0551 40.4522 44.89 40.6881 44.857C40.8229 44.857 40.8903 44.8904 40.9573 44.9894L41.0584 45.3193L41.4288 48.223ZM14.3801 42.2831C14.5823 42.2504 14.7171 42.3821 14.7845 42.6793L15.1549 45.5831C15.1549 45.8802 15.0538 46.0783 14.8182 46.111C14.6497 46.111 14.5486 46.0783 14.4812 45.9793C14.4138 45.9459 14.3464 45.8145 14.3127 45.6494C14.0097 44.8904 13.6394 44.3291 13.1675 43.9329C12.7298 43.6031 12.258 43.4383 11.7191 43.504L11.618 42.7123C12.1232 42.7123 12.595 42.7123 13.1001 42.778L13.7064 42.8771C13.8412 42.8771 13.9423 42.778 14.0434 42.6133C14.1445 42.4152 14.2456 42.3161 14.3801 42.2831ZM21.2857 41.4253L24.1152 49.3783L24.3174 49.8071C24.3848 49.9396 24.5196 50.0709 24.6544 50.0709C24.8903 50.1373 24.9914 50.269 24.9914 50.4671C25.0251 50.5989 24.9577 50.6979 24.8229 50.797C24.7218 50.797 24.587 50.8633 24.3848 50.896L21.4205 51.3579C21.0164 51.4243 20.8142 51.3252 20.7805 51.0941V50.8303L20.949 50.6656C21.1175 50.5665 21.1846 50.4341 21.2183 50.3684C21.252 50.2694 21.1846 50.0713 21.1172 49.8405L20.7464 48.8834L18.9947 49.1472L19.0621 48.3884L20.5105 48.157L18.5569 42.5799L18.5906 41.8539L21.2857 41.4253ZM24.8899 40.831L28.292 40.3031C28.5953 40.2701 28.7635 40.4022 28.7975 40.6663C28.7975 40.798 28.7638 40.9634 28.5616 41.0291C28.3931 41.1282 28.292 41.2272 28.2583 41.3263C28.2246 41.392 28.2246 41.5571 28.2583 41.7882L29.0668 48.0913C29.1342 48.3884 29.1679 48.6192 29.2016 48.7183C29.3701 49.1145 29.6397 49.3453 30.0438 49.4109L30.1786 50.17L28.8312 50.3024C28.3935 50.3024 27.9553 50.2033 27.5513 50.0386C27.0461 49.8405 26.6754 49.609 26.4398 49.3453C26.305 49.1145 26.2039 48.8173 26.1028 48.4545L25.3281 42.2831C25.2944 42.0193 25.2269 41.8212 25.1932 41.7885C25.1595 41.7222 25.0247 41.6561 24.8229 41.6231C24.6544 41.5904 24.5196 41.4914 24.5196 41.3266C24.4859 41.1612 24.5533 41.0295 24.6881 40.9304L24.8899 40.831ZM30.5489 40.798L30.2456 40.6663C30.1445 40.6329 30.1445 40.5016 30.1108 40.4022C30.0771 40.1384 30.2456 40.006 30.6834 39.9403L32.0307 39.7092H32.4011C32.6033 39.7092 32.7044 39.8412 32.7381 40.0063C32.7381 40.1054 32.7044 40.2044 32.6033 40.3035L32.334 40.5342C32.0981 40.7657 31.9637 41.1942 31.9637 41.8212L32.637 46.7713C32.6707 47.7285 32.5022 48.5535 31.997 49.1805C31.66 49.6758 31.1886 49.9722 30.6834 50.0713L30.5823 49.3126C31.1215 49.0481 31.4919 48.6849 31.6604 48.3221C31.8626 47.9266 31.9637 47.4313 31.8963 46.8377L31.2563 41.9533C31.1215 41.3263 30.8859 40.9301 30.5489 40.798ZM34.254 40.3692C34.1866 40.3031 34.0518 40.2371 33.8495 40.2041C33.6473 40.1711 33.5466 40.072 33.5129 39.9073C33.5129 39.6431 33.6477 39.478 33.9173 39.4123L37.3194 38.8841L37.5553 38.9171C37.7238 38.9501 37.7912 39.0492 37.8245 39.2142C37.8582 39.3793 37.7571 39.5114 37.5886 39.6104C37.4205 39.7095 37.2857 39.8085 37.2857 39.9076C37.252 39.9406 37.252 40.1387 37.2857 40.4025L38.3637 48.6853L35.1972 49.1805H34.9613C34.7928 49.1148 34.7254 49.0158 34.6917 48.8507C34.658 48.6853 34.7254 48.5535 34.9276 48.4545C35.0961 48.3554 35.2309 48.2897 35.2646 48.1907C35.2983 48.125 35.2646 47.9592 35.2309 47.6954L34.3551 40.8647C34.288 40.5673 34.288 40.4352 34.254 40.3692ZM18.4562 43.7348L18.9617 45.1542L18.3891 49.7738C18.3554 50.2033 18.3554 50.4671 18.4565 50.6319C18.5576 50.7643 18.6924 50.8633 18.928 50.9617L19.1972 51.0614C19.2646 51.1271 19.2983 51.2262 19.332 51.3252C19.3657 51.49 19.2983 51.6217 19.1635 51.6551L18.7932 51.7875L17.3784 51.9849C16.9403 52.0513 16.7048 51.9849 16.6711 51.6884C16.6711 51.556 16.7048 51.457 16.7722 51.3913L17.0755 51.1932C17.4125 50.9294 17.6143 50.4341 17.6817 49.7081L18.4228 43.7348H18.4562ZM12.8983 48.5859C12.7506 48.519 12.5895 48.4854 12.4268 48.4875C12.1909 48.4541 12.0898 48.3551 12.0898 48.157C12.0561 47.9262 12.1909 47.7615 12.4942 47.7281L15.3911 47.2662C15.6604 47.2005 15.7955 47.3319 15.8626 47.596C15.8626 47.7285 15.7952 47.8598 15.6941 48.0256C15.593 48.0913 15.5256 48.1903 15.5256 48.2894V48.4211L15.8626 51.0284C15.4922 51.4903 15.0541 51.9192 14.5823 52.2497C14.0434 52.5795 13.5045 52.7776 12.9657 52.8767L12.8646 52.1176C13.2016 51.9529 13.3697 51.6557 13.3027 51.1935L12.9994 48.8507C12.9653 48.6849 12.932 48.6192 12.8983 48.5859ZM8.65403 44.7256C9.2603 43.6361 10.0351 43.0091 11.0791 42.811L11.1802 43.5701C10.8099 43.7682 10.6751 44.197 10.7425 44.857L11.5846 51.0941C11.6857 51.7541 11.8879 52.1173 12.292 52.2163L12.4268 52.9754C11.8542 53.0411 11.3828 52.9754 10.911 52.7773C10.4058 52.5792 10.0014 52.282 9.59731 51.8858C8.75514 51.0281 8.21627 49.8728 8.08146 48.4875C7.87926 47.0681 8.04741 45.8145 8.65403 44.7256Z" fill="black"/>
</svg>
