<svg width="80" height="80" viewBox="0 0 80 80" fill="none" xmlns="http://www.w3.org/2000/svg">
<path d="M40 80C62.0914 80 80 62.0914 80 40C80 17.9086 62.0914 0 40 0C17.9086 0 0 17.9086 0 40C0 62.0914 17.9086 80 40 80Z" fill="white"/>
<path d="M21.454 41.8222C20.728 42.25 19.474 42.9833 18.154 42.9222C17.098 42.8611 16.834 42.1889 16.834 41.5167C18.748 42.0056 21.256 41.3333 21.256 39.3778C21.256 37.7889 20.002 36.8722 17.692 36.8722C15.118 36.8722 13.27 38.1556 13.27 40.8444C13.27 43.7167 15.118 44.8167 17.692 44.8167C19.21 44.8167 20.53 44.5722 21.388 44.0833C21.388 43.5333 21.454 42.6778 21.454 41.8222ZM18.022 38.6444C18.418 38.6444 18.682 38.8278 18.682 39.3167C18.682 40.6 17.362 40.6 16.702 40.4778C16.834 39.5611 17.164 38.6444 18.022 38.6444Z" fill="#3399CC"/>
<path d="M45.61 44.5722C45.874 44.3278 46.204 43.9611 46.6 43.5333C46.6 42.5556 46.534 41.2111 46.534 39.6222C46.534 37.9722 45.61 36.8722 43.696 36.8722C42.112 36.8722 41.188 37.5444 40.858 38.4C40.858 38.0333 40.858 37.6056 40.924 37.1167H37.36V38.8278C37.36 41.5778 37.228 44.5722 37.228 44.5722H40.792C40.726 43.6556 40.66 42.0056 40.66 40.8444C40.66 39.8667 40.858 38.8889 41.782 38.8889C42.706 38.8889 42.97 39.6833 42.97 40.8444C42.97 42.0056 42.904 43.6556 42.904 44.5722H45.61Z" fill="#99CC33"/>
<path d="M27.922 44.5722C28.45 44.0833 29.176 43.2278 29.968 42.1889L25.546 42.3111V35.0389H22.048C22.048 35.0389 22.114 37.7278 22.114 39.8056C22.114 41.2722 21.982 44.5722 21.982 44.5722H27.922Z" fill="#99CC33"/>
<path d="M12.874 44.5722C13.402 44.0833 14.128 43.2278 14.92 42.1889L10.498 42.3111V35.0389H7.066C7.066 35.0389 7.132 37.7278 7.132 39.8056C7.132 41.2722 7 44.5722 7 44.5722H12.874Z" fill="#3399CC"/>
<path d="M34.852 37.1167C34.522 37.6667 33.994 38.3389 33.4 39.0722C32.74 38.3389 32.212 37.6667 31.882 37.1167H28.252C28.582 37.6667 29.836 39.2556 31.222 40.7833L31.618 41.2722C30.496 42.6778 29.374 43.9611 28.78 44.5111H32.41C32.41 44.5111 33.004 43.7167 34.258 42.3111L35.578 40.7833C36.898 39.1944 38.152 37.6056 38.548 37.1167H34.852Z" fill="#99CC33"/>
<path d="M58.414 44.7556C57.754 44.7556 57.226 44.2667 57.226 43.6556C57.226 43.0444 57.754 42.5556 58.414 42.5556C59.074 42.5556 59.602 43.0444 59.602 43.6556C59.602 44.2667 59.074 44.7556 58.414 44.7556Z" fill="#3399CC"/>
<path d="M73 37.4833L71.218 40.2944C70.822 40.1111 70.162 39.8667 69.568 39.8667C68.842 39.8667 68.314 40.1111 68.314 41.4556C68.314 42.4333 68.38 43.7167 68.446 44.5722H64.882C64.882 44.5722 65.014 41.5778 65.014 38.8278V37.1167H68.248V39.1333C68.446 38.4611 69.106 36.8722 70.69 36.8722C71.02 36.8722 72.472 37.0556 73 37.4833Z" fill="#3399CC"/>
<path d="M63.232 37.3C63.232 36.5056 63.364 36.0167 64.156 36.0167C64.552 36.0167 64.816 36.0778 65.146 36.2C65.476 35.8333 65.872 35.4056 66.268 34.8556V34.7944C65.806 34.4278 64.882 34.1222 63.628 34.1222C61.648 34.1222 60.196 35.0389 60.196 37.0556C60.196 37.3 60.196 37.6056 60.262 37.9111L59.338 38.8889L59.272 39.7444H60.394V40.1111C60.394 41.3333 60.328 44.5111 60.328 44.5111H63.43C63.43 43.1667 63.364 41.2722 63.298 39.7444H65.278L65.542 37.9722H63.232V37.3Z" fill="#3399CC"/>
<path d="M46.402 44.5722H50.362C50.626 44.2667 51.088 43.7167 51.682 43.0444C52.342 43.7167 52.738 44.2667 53.002 44.5722H56.962C56.236 43.9611 54.982 42.4333 53.596 40.9056C54.982 39.3778 56.368 37.7889 56.896 37.1167H53.002C52.606 37.6056 52.21 38.0944 51.682 38.7056C51.22 38.0944 50.758 37.6056 50.362 37.1167H46.468C46.996 37.7889 48.316 39.3778 49.768 40.9056C48.448 42.4944 47.128 43.9611 46.402 44.5722Z" fill="#99CC33"/>
</svg>
