<svg width="80" height="80" viewBox="0 0 80 80" fill="none" xmlns="http://www.w3.org/2000/svg">
<path d="M0 40C0 62.0914 17.9086 80 40 80C62.0914 80 80 62.0914 80 40C80 17.9086 62.0914 0 40 0C17.9086 0 0 17.9086 0 40Z" fill="url(#paint0_radial)"/>
<path d="M67.2727 10.7273H12.7273V40.7184H67.2727V10.7273Z" fill="url(#paint1_radial)"/>
<path d="M29.2563 17.5239C31.1587 18.1934 34.2777 19.41 35.9189 20.8878L47.905 20.7654C48.2397 20.3408 48.3622 20.1693 48.7296 19.6876C49.5951 18.5282 49.6441 17.3443 47.7988 17.3279C46.8109 17.3116 31.2159 17.3769 29.3951 17.4014C29.1175 17.3851 28.9052 17.3851 29.2563 17.5239ZM57.0823 21.2961L36.2455 21.6798C36.3353 22.529 35.4208 23.7619 33.5347 24.9213C32.5631 25.5173 30.3586 26.7013 22.5366 29.6651C22.4304 29.6978 22.4876 29.8202 22.5529 29.8039C36.074 26.3747 45.0472 23.819 57.0823 21.5247C57.4579 21.4594 57.6865 21.2961 57.0823 21.2961ZM44.5165 25.003L25.8352 29.7223C25.8025 29.7386 25.7617 29.7958 25.8679 29.7958L40.3361 29.3385C41.2179 29.3059 41.8548 28.5955 42.1895 28.1546L44.5492 25.0846C44.6063 25.0356 44.6063 24.9621 44.5165 25.003Z" fill="white"/>
<path d="M21.943 45.6649C21.943 45.1034 21.5776 44.7201 20.9626 44.7201H18.7344V46.6096H20.9893C21.5776 46.6096 21.943 46.2264 21.943 45.6649ZM22.2549 48.5704C22.2549 48.0089 21.8717 47.59 21.2389 47.59H18.7344V49.5508H21.2567C21.8628 49.5508 22.2549 49.1675 22.2549 48.5704ZM17.6293 43.7219H21.1141C22.3262 43.7219 23.0571 44.5151 23.0571 45.5134C23.0571 46.2799 22.6114 46.8235 22.0589 47.0107C22.7897 47.1622 23.369 47.8217 23.369 48.6863C23.369 49.7825 22.6025 50.5312 21.4082 50.5312H17.6293V43.7219Z" fill="white"/>
<path d="M27.9055 44.8984L26.5775 48.1337H29.2513L27.9055 44.8984ZM30.1961 50.5312L29.6167 49.123H26.1943L25.615 50.5312H24.4028L27.3084 43.7219H28.5027L31.4082 50.5312H30.1961Z" fill="white"/>
<path d="M37.7808 50.5312L33.877 45.4688V50.5312H32.7808V43.7219H33.8414L37.7095 48.7041V43.7219H38.8057V50.5312H37.7808Z" fill="white"/>
<path d="M49.3762 47.8217V43.7219H50.4725V47.8039C50.4725 49.016 51.2033 49.6488 52.362 49.6488C53.5384 49.6488 54.2514 49.016 54.2514 47.8039V43.7219H55.3477V47.8217C55.3477 49.6845 54.1534 50.6471 52.362 50.6471C50.5883 50.6471 49.3762 49.6667 49.3762 47.8217Z" fill="white"/>
<path d="M57.344 50.5312V43.7219H62.3262V44.7201H58.4403V46.5829H61.5151V47.5811H58.4403V49.5419H62.3618V50.5401H57.344V50.5312Z" fill="white"/>
<path d="M20.615 53.5347H17.6293V60.3708H18.7255V57.8663H20.4368C20.4902 57.8663 20.7487 57.8663 20.8022 57.8485C22.0143 57.7683 22.8432 56.8502 22.8432 55.6916C22.8432 54.4973 21.9608 53.5347 20.615 53.5347ZM20.517 56.8681H18.7344V54.5419H20.5259C21.2211 54.5419 21.7558 55.0231 21.7558 55.7183C21.7469 56.3868 21.2122 56.8681 20.517 56.8681Z" fill="white"/>
<path d="M44.091 54.533V53.5347H38.8147V54.533H40.9181V54.5597V60.3708H41.9876V54.533H44.091Z" fill="white"/>
<path d="M53.1907 53.5347H52.1123V60.3708H56.328V59.3636H53.1907V53.5347Z" fill="white"/>
<path d="M35.2228 56.3422C34.0285 56.1283 33.4314 55.959 33.4492 55.3975C33.467 54.8806 33.8948 54.4973 34.6435 54.4171C34.8128 54.3993 34.9911 54.3993 35.1783 54.4171C35.7932 54.4528 36.426 54.6845 36.836 55.0321C36.8717 55.0499 36.9341 55.0856 36.9519 55.1301L37.549 54.2656C36.9875 53.7665 36.0071 53.4189 35.0268 53.4189C33.4314 53.4189 32.353 54.2834 32.3351 55.4777C32.2995 56.8859 33.5829 57.1711 34.7772 57.385C36.123 57.6346 36.738 57.7683 36.7202 58.3654C36.7023 58.9269 36.221 59.3814 35.2407 59.4438C35.107 59.4438 34.9911 59.4438 34.8574 59.4438C33.9751 59.3904 33.2799 59.0962 32.7986 58.6328C32.7629 58.5971 32.7184 58.5793 32.6827 58.5347L32.0677 59.4171C32.7808 60.0945 33.7612 60.4599 34.9733 60.4599C36.7202 60.4599 37.7808 59.5954 37.8164 58.3208C37.8699 56.8057 36.5063 56.574 35.2228 56.3422Z" fill="white"/>
<path d="M27.5402 53.4011C25.4635 53.4011 24.0018 54.9251 24.0018 56.9216C24.0018 58.9002 25.4635 60.4421 27.5402 60.4421C29.6168 60.4421 31.0785 58.918 31.0785 56.9216C31.1052 54.9251 29.6168 53.4011 27.5402 53.4011ZM27.5402 59.426C26.0607 59.426 25.0981 58.3298 25.0981 56.9037C25.0981 55.4777 26.0428 54.3815 27.5402 54.3815C29.0197 54.3815 29.9822 55.4777 29.9822 56.9037C29.9822 58.3298 29.0464 59.426 27.5402 59.426Z" fill="white"/>
<path d="M46.6846 53.5347L43.7791 60.3708H44.9912L45.5705 58.9626H48.993L49.5723 60.3708H50.7844L47.8789 53.5615H46.6846V53.5347ZM45.9537 57.9643L47.2817 54.729L48.6097 57.9643H45.9537Z" fill="white"/>
<path d="M58.6186 59.3636V57.4028H61.5241V56.4046H58.6186V54.533H62.3263V53.5347H57.5223V60.3708H62.3708V59.3636H58.6186Z" fill="white"/>
<path d="M47.6827 47.1265C47.6827 45.1479 46.2211 43.606 44.1444 43.606C42.0678 43.606 40.6061 45.1301 40.6061 47.1265C40.6061 49.1319 42.0678 50.647 44.1444 50.647C44.4564 50.647 44.7416 50.6114 45.0089 50.549L45.508 51.7611H46.7202L46.0072 50.1658C47.0499 49.5508 47.6827 48.4367 47.6827 47.1265ZM44.1444 49.6488C42.6649 49.6488 41.7023 48.5526 41.7023 47.1265C41.7023 45.7005 42.6471 44.6043 44.1444 44.6043C45.6239 44.6043 46.5865 45.7005 46.5865 47.1265C46.5865 47.9911 46.2211 48.7397 45.6061 49.2032L45.3387 48.5704H44.1801L44.6257 49.6132C44.4564 49.631 44.2959 49.6488 44.1444 49.6488Z" fill="white"/>
<path d="M17.6293 40.7184V33.9091H18.7255V39.738H22.3084V40.7362H17.6293V40.7184Z" fill="#FFCC00"/>
<path d="M27.1034 35.0856L25.7754 38.3209H28.4492L27.1034 35.0856ZM29.4118 40.7184L28.8324 39.3102H25.3832L24.8039 40.7184H23.6007L26.5062 33.9091H27.7005L30.6239 40.7184H29.4118Z" fill="#FFCC00"/>
<defs>
<radialGradient id="paint0_radial" cx="0" cy="0" r="1" gradientUnits="userSpaceOnUse" gradientTransform="translate(8.22507 8.26387) scale(78.7582)">
<stop stop-color="#006CB5"/>
<stop offset="1" stop-color="#1F3460"/>
</radialGradient>
<radialGradient id="paint1_radial" cx="0" cy="0" r="1" gradientUnits="userSpaceOnUse" gradientTransform="translate(41.4712 24.0678) scale(25.7638 14.4746)">
<stop offset="0.063815" stop-opacity="0.5"/>
<stop offset="1" stop-opacity="0"/>
</radialGradient>
</defs>
</svg>
