<svg xmlns="http://www.w3.org/2000/svg" width="89" height="24" viewBox="0 0 89 24">
    <path fill="#FFF" fill-rule="nonzero" d="M6.38 23.878c-1.318-.02-2.385-.162-3.205-.425-.821-.263-1.469-.632-1.945-1.109a3.676 3.676 0 0 1-.972-1.731C.086 19.934 0 19.17 0 18.319V.73L4.527 0v17.408c0 .405.03.77.09 1.093.061.324.178.598.35.82.172.223.42.406.744.547.324.142.76.233 1.306.274l-.638 3.736zm16.86-.85c-.77.223-1.762.43-2.977.623a24.472 24.472 0 0 1-3.828.288c-1.357 0-2.487-.182-3.387-.547-.902-.364-1.615-.876-2.142-1.534-.527-.658-.901-1.443-1.124-2.354-.223-.912-.334-1.914-.334-3.008v-8.9h4.526v8.353c0 1.459.193 2.512.578 3.16.384.648 1.103.972 2.156.972a12.5 12.5 0 0 0 1.033-.046c.365-.03.689-.065.973-.106V7.595h4.526v15.433zm4.253-14.886c.77-.223 1.762-.43 2.977-.623a24.481 24.481 0 0 1 3.828-.288c1.356 0 2.485.177 3.387.531.901.355 1.615.856 2.142 1.504.526.648.9 1.418 1.124 2.308.222.892.334 1.884.334 2.978v9.022h-4.527V15.1c0-1.459-.192-2.492-.577-3.099-.385-.607-1.104-.911-2.157-.911-.324 0-.668.015-1.033.045-.364.03-.688.066-.972.107v12.333h-4.526V8.142zm17.133 7.443c0-1.154.187-2.243.562-3.266a7.8 7.8 0 0 1 1.626-2.674 7.75 7.75 0 0 1 2.582-1.807c1.012-.445 2.167-.668 3.463-.668.85 0 1.63.076 2.34.227.708.152 1.397.37 2.065.654l-.942 3.615a11.51 11.51 0 0 0-1.397-.426 7.316 7.316 0 0 0-1.701-.182c-1.337 0-2.335.415-2.993 1.246-.658.83-.987 1.924-.987 3.28 0 1.439.309 2.553.926 3.342.618.79 1.696 1.185 3.236 1.185.547 0 1.134-.05 1.762-.152a7.468 7.468 0 0 0 1.732-.486l.637 3.706c-.526.224-1.184.415-1.974.578-.79.162-1.661.243-2.612.243-1.459 0-2.715-.218-3.768-.653-1.053-.435-1.919-1.028-2.597-1.777a6.931 6.931 0 0 1-1.49-2.659c-.313-1.022-.47-2.131-.47-3.326zm15.95 7.99V.729L65.101 0v7.656a9.43 9.43 0 0 1 1.17-.289 7.363 7.363 0 0 1 1.382-.136c1.296 0 2.374.177 3.235.531.861.354 1.55.856 2.066 1.504.516.648.88 1.418 1.094 2.309.213.891.319 1.883.319 2.977v9.023H69.84v-8.476c0-1.459-.187-2.491-.562-3.1-.375-.606-1.068-.91-2.081-.91-.405 0-.785.035-1.139.106-.355.071-.674.147-.957.228v12.152h-4.527zm27.523-11.97a34.28 34.28 0 0 0-1.428-.319 8.858 8.858 0 0 0-1.762-.167c-.284 0-.623.026-1.018.076s-.694.106-.896.167v12.212h-4.527V8.445c.81-.283 1.767-.55 2.871-.805 1.104-.252 2.334-.379 3.691-.379.244 0 .537.015.882.045a18.26 18.26 0 0 1 2.065.304c.344.071.638.157.882.259l-.76 3.736z"/>
</svg>
