<svg width="80" height="80" viewBox="0 0 80 80" fill="none" xmlns="http://www.w3.org/2000/svg">
<path d="M40 80C62.0914 80 80 62.0914 80 40C80 17.9086 62.0914 0 40 0C17.9086 0 0 17.9086 0 40C0 62.0914 17.9086 80 40 80Z" fill="url(#paint0_linear)"/>
<path fill-rule="evenodd" clip-rule="evenodd" d="M69.4553 36.0004C69.4546 35.1488 68.7598 34.4584 67.904 34.4584H66.7353V31.6265H63.8976L63.8684 33.2135C63.8534 34.0224 63.1895 34.6706 62.3756 34.6706H61.5025V37.4352H62.3775C63.5774 37.4352 63.5605 38.9457 63.5605 38.9457V41.5062C63.5605 44.1843 65.0641 45.1466 66.9145 45.1466C68.36 45.1466 68.7299 44.8364 68.7299 44.8364V42.2947C68.7299 42.2947 68.282 42.3689 67.7372 42.3893C66.979 42.4177 66.7353 41.8445 66.7353 41.2478V37.5432L67.904 37.5421C68.7598 37.5421 69.4546 36.8516 69.4553 36.0004ZM60.6248 41.2161V37.5511L60.609 35.1552C60.6179 35.0891 60.6248 35.0222 60.6248 34.9534V32.6781C60.6248 31.8593 59.9397 31.1957 59.0946 31.1957C58.2738 31.1957 57.6056 31.8216 57.5676 32.6074H57.5641V41.4649C57.5641 44.0396 59.0139 44.965 60.797 44.965C61.1134 44.965 61.3764 44.9496 61.594 44.9257L61.5905 42.3138C60.8597 42.3414 60.6248 41.7901 60.6248 41.2161ZM56.6403 44.9173H53.9056V43.8439C52.6765 45.4517 50.0615 44.8142 49.6178 44.6585C47.9627 44.0769 47.6044 42.8282 47.5564 42.6874C47.3876 42.1911 47.4083 41.7578 47.4495 41.3676C47.5218 40.6806 47.9554 39.6675 49.3406 39.1766C50.1322 38.8963 51.933 38.7033 52.8799 38.513C53.5985 38.3689 53.5735 37.9329 53.5735 37.9329C53.5735 37.9329 53.6842 37.2305 52.8645 36.9233C51.7358 36.5627 50.574 37.3385 50.5624 37.3466C50.3419 37.4973 50.0809 37.5776 49.8139 37.5769C49.4098 37.5769 49.0115 37.3954 48.7597 37.054C48.3457 36.4935 48.4814 35.7157 49.0634 35.3167C49.1322 35.2698 50.3398 34.5032 52.0049 34.3882C52.066 34.3821 52.1295 34.3778 52.1967 34.3763C52.2129 34.3759 52.2275 34.3767 52.2436 34.3763C52.7018 34.3624 53.16 34.4031 53.6085 34.4978L53.6285 34.502C53.7046 34.5185 53.7792 34.5362 53.8514 34.5554L53.8599 34.5574L53.8637 34.5589C56.1651 35.1729 56.6403 37.1694 56.6403 37.9533V44.9173ZM52.6481 42.5144C53.9045 42.01 53.5331 40.2731 53.5331 40.2731C53.5331 40.2731 52.8745 40.5564 51.7489 40.5945C50.6232 40.6321 50.4002 41.4441 50.5009 41.9631C50.6016 42.4829 51.3921 43.0192 52.6481 42.5144ZM46.5078 38.0259C46.5078 35.5646 44.2691 34.3609 42.4587 34.3559C40.8021 34.3559 39.8252 34.9088 39.147 35.615C38.4107 34.775 37.1297 34.3586 36.0679 34.3559C34.8357 34.3559 33.8738 34.6616 33.186 35.1091C33.1498 35.1326 33.1065 35.143 33.0635 35.1384C33.0206 35.1339 32.9805 35.1147 32.9499 35.0841L32.8769 35.0106C32.6305 34.7643 32.2963 34.626 31.9479 34.626C31.5994 34.626 31.2653 34.7643 31.0188 35.0106C30.8965 35.1324 30.7994 35.2772 30.7332 35.4367C30.6669 35.5961 30.6328 35.767 30.6328 35.9397C30.6328 36.1123 30.6669 36.2833 30.7332 36.4427C30.7994 36.6021 30.8965 36.7469 31.0188 36.8687C31.1276 36.9779 31.2322 37.0406 31.3064 37.0752C31.3391 37.0903 31.3668 37.1145 31.3861 37.1449C31.4055 37.1753 31.4157 37.2106 31.4156 37.2466V43.4283C31.4156 43.8224 31.5721 44.2003 31.8508 44.479C32.1295 44.7577 32.5074 44.9142 32.9015 44.9142H32.905C33.1001 44.9142 33.2933 44.8758 33.4735 44.8011C33.6538 44.7264 33.8176 44.617 33.9555 44.479C34.0935 44.341 34.2029 44.1772 34.2775 43.9969C34.3522 43.8166 34.3906 43.6234 34.3905 43.4283V38.414C34.3905 37.5482 34.9014 36.6886 35.9522 36.6886C37.0021 36.6886 37.485 37.554 37.485 38.6116V44.7714H40.4568V38.6114C40.4568 37.5538 41.0162 36.6884 42.0658 36.6884C43.1161 36.6884 43.5363 37.5538 43.5363 38.6114V44.7712H46.5078V38.0259ZM17.6434 46.181C17.6434 47.6888 18.6251 48.5419 19.845 48.5465C19.8477 48.5465 19.8416 48.5465 19.845 48.5465C21.0603 48.5469 22.0629 47.3978 22.0683 46.181L19.8435 43.9285L17.6434 46.181ZM16.8618 33.4513C16.6614 33.2408 16.4213 33.0722 16.1552 32.9552C15.8892 32.8382 15.6027 32.7752 15.3121 32.7696C14.7173 32.7585 14.1607 32.9749 13.7339 33.3832C12.8527 34.2271 12.8224 35.63 13.6659 36.5112L13.9961 36.856L18.6734 36.876L19.4262 36.1298L16.8618 33.4513ZM26.0619 43.06L25.7316 42.7151L21.0543 42.6951L20.3016 43.4414L22.8659 46.1199C23.7094 47.0003 25.1126 47.031 25.9934 46.1879C26.8746 45.344 26.905 43.9412 26.0619 43.06ZM26.2333 37.5999L21.7494 42.0058L26.5055 42.0262H26.5151C27.1026 42.0262 27.655 41.799 28.0726 41.3853C28.2795 41.1811 28.444 40.9379 28.5563 40.6697C28.6687 40.4016 28.7268 40.1138 28.7273 39.8231C28.7323 38.6036 27.7711 37.5686 26.2333 37.5998V37.5999ZM13.222 37.5452H13.2116C12.9227 37.5443 12.6365 37.6005 12.3694 37.7105C12.1023 37.8204 11.8595 37.9821 11.655 38.186C11.4479 38.3901 11.2834 38.6332 11.171 38.9012C11.0586 39.1693 11.0005 39.457 11 39.7477C10.9974 40.3386 11.1112 41.9691 13.5298 41.9691L17.9779 37.5655L13.2218 37.5452H13.222ZM26.158 33.5447C25.2995 32.6785 23.8958 32.672 23.0297 33.5316L13.5828 42.8974C12.7166 43.7566 12.7105 45.1599 13.5694 46.0261C14.4282 46.8926 15.8323 46.8991 16.6981 46.0395L26.1449 36.6738C27.0111 35.8145 27.0168 34.4109 26.158 33.5447ZM22.0681 33.3652C22.0681 31.8573 21.0866 31.0046 19.8667 31C19.864 31 19.8702 31 19.8667 31C18.6515 30.9998 17.6488 32.1484 17.6434 33.3652L19.8683 35.6177L22.0681 33.3652Z" fill="white"/>
<defs>
<linearGradient id="paint0_linear" x1="40" y1="0" x2="40" y2="80" gradientUnits="userSpaceOnUse">
<stop stop-color="#FF4E65"/>
<stop offset="1" stop-color="#FF2674"/>
</linearGradient>
</defs>
</svg>
