<svg width="80" height="80" viewBox="0 0 80 80" fill="none" xmlns="http://www.w3.org/2000/svg">
<path d="M40 80C62.0914 80 80 62.0914 80 40C80 17.9086 62.0914 0 40 0C17.9086 0 0 17.9086 0 40C0 62.0914 17.9086 80 40 80Z" fill="#0F6FDE"/>
<path d="M52.0165 38.9187L51.2531 38.9187C51.1726 38.9187 51.101 38.9695 51.0745 39.0454C51.0376 39.1512 51.0116 39.227 50.9963 39.2727C50.6924 40.1843 50.2366 41.5518 49.6287 43.3751C49.6181 43.4071 49.5774 43.506 49.5068 43.6719L49.5067 43.6719C49.4863 43.7198 49.4308 43.7421 49.3828 43.7218C49.3603 43.7122 49.3423 43.6942 49.3328 43.6717C49.2712 43.5265 49.2317 43.4273 49.2143 43.3742C48.5967 41.4938 48.1335 40.0835 47.8247 39.1433C47.8186 39.1247 47.8084 39.0934 47.7942 39.0494V39.0494C47.769 38.9715 47.6963 38.9187 47.6143 38.9187L46.866 38.9188C46.7616 38.9188 46.677 39.0032 46.677 39.1074C46.677 39.1284 46.6805 39.1492 46.6874 39.169C46.6984 39.2008 46.7064 39.2238 46.7115 39.238C47.1827 40.5509 47.8883 42.5171 48.8283 45.1366C48.8293 45.1393 48.8308 45.1436 48.833 45.1495L48.8329 45.1495C48.8466 45.1875 48.8478 45.2289 48.8361 45.2676C48.8341 45.2743 48.8326 45.2793 48.8317 45.2826C48.8197 45.3241 48.8077 45.3649 48.795 45.4065C48.6507 45.778 48.3044 46.0149 47.9163 46.0132H47.1276C47.0232 46.0132 46.9385 46.0976 46.9385 46.2018L46.9385 46.8113C46.9385 46.9155 47.0232 47 47.1276 47C47.1276 47 47.1276 47 47.1276 47L47.9165 47C48.6834 47.0017 49.3822 46.5548 49.6888 45.8623C49.6902 45.8592 49.7027 45.8289 49.7243 45.7765C49.7331 45.7528 50.2937 44.2048 52.1432 39.0988C52.1685 39.029 52.1323 38.9519 52.0623 38.9267C52.0476 38.9214 52.0321 38.9187 52.0165 38.9187V38.9187ZM41.9675 44.1828C42.1273 44.2393 42.3142 44.2675 42.5277 44.2675C43.1604 44.2675 43.6611 43.9941 44.0252 43.6603C44.3196 43.3703 44.4664 43.0054 44.4664 42.5687V42.0904C44.4664 42.0876 44.4663 42.0848 44.4661 42.0821C44.4615 42.0302 44.4156 41.9919 44.3636 41.9964L44.3636 41.9964C44.2725 42.0045 44.2245 42.0088 44.2197 42.0094L43.6255 42.0875L42.4514 42.2645C41.8207 42.367 41.4356 42.6166 41.3132 43.0075C41.2803 43.0989 41.2624 43.1965 41.2624 43.2979C41.2624 43.7107 41.5581 44.0607 41.9675 44.1828ZM45.5162 44.5928C45.5162 44.7157 45.5162 44.8386 45.5162 44.9616C45.5162 45.0658 45.4316 45.1502 45.3272 45.1502H44.7152C44.612 45.1502 44.5279 45.0677 44.5262 44.9647L44.5161 44.3551C44.5159 44.343 44.5111 44.3315 44.5026 44.3229C44.4843 44.3042 44.4543 44.3039 44.4357 44.3221L44.4357 44.3222C44.3932 44.3637 44.3574 44.3988 44.3282 44.4276C43.8393 44.9092 43.1654 45.1502 42.3005 45.1502C41.6797 45.1502 41.1723 44.9857 40.774 44.6569C40.3808 44.3321 40.185 43.883 40.185 43.3012C40.185 42.9955 40.2431 42.7311 40.3586 42.5071C40.4741 42.2833 40.6234 42.1105 40.8072 41.9874C40.999 41.8589 41.1802 41.7648 41.3505 41.7052C41.5238 41.6445 41.7029 41.5989 41.8879 41.5685C42.7985 41.4427 43.2945 41.3723 43.3844 41.3562C43.4633 41.3472 43.7599 41.3086 44.2777 41.2398C44.315 41.2349 44.3499 41.2306 44.3823 41.227C44.4302 41.2218 44.4665 41.1814 44.4665 41.1333L44.4664 40.8738C44.4664 40.4858 44.3633 40.1828 44.1552 39.9691C43.9437 39.7519 43.5619 39.6473 43.0061 39.6473C42.7077 39.6473 42.4573 39.6804 42.254 39.7471C42.0426 39.8166 41.8831 39.9188 41.7774 40.0547C41.6791 40.181 41.61 40.2982 41.5701 40.4076C41.5604 40.434 41.5514 40.466 41.5427 40.504C41.5415 40.5092 41.5398 40.5181 41.5375 40.5304C41.5207 40.6196 41.4426 40.6843 41.3517 40.6843L40.6501 40.6843C40.6461 40.6843 40.6421 40.6842 40.6382 40.6839C40.534 40.6773 40.4549 40.5877 40.4615 40.4837C40.4625 40.467 40.4635 40.4551 40.4644 40.448C40.4729 40.3781 40.4826 40.3192 40.4933 40.2729C40.5305 40.1117 40.6038 39.9415 40.7135 39.7625C40.8221 39.5855 40.9644 39.4305 41.141 39.2972C41.3165 39.1648 41.5616 39.0545 41.8756 38.9677C42.1924 38.8802 42.5613 38.8362 42.9822 38.8362C44.6868 38.8362 45.5162 39.4995 45.5162 40.8502V44.1732V44.3542V44.5928ZM59.4981 39.0567V44.9368C59.4981 45.041 59.5827 45.1254 59.6871 45.1254H60.4495C60.5539 45.1254 60.6385 45.041 60.6385 44.9368V39.0567C60.6385 38.9525 60.5539 38.868 60.4495 38.868H59.6871C59.5827 38.868 59.4981 38.9525 59.4981 39.0567ZM59.4981 37.1887V37.9319C59.4981 38.0361 59.5827 38.1205 59.6871 38.1205H60.4495C60.5539 38.1205 60.6385 38.0361 60.6385 37.9319V37.1887C60.6385 37.0845 60.5539 37 60.4495 37H59.6871C59.5827 37 59.4981 37.0845 59.4981 37.1887ZM64.201 39.8549H65.811C65.9154 39.8549 66 39.7704 66 39.6662V39.0567C66 38.9525 65.9154 38.868 65.811 38.868H64.201C64.1488 38.868 64.1065 38.8258 64.1065 38.7737V37.1887C64.1065 37.0845 64.0219 37 63.9175 37H63.1551C63.0507 37 62.966 37.0845 62.966 37.1887V38.7737C62.966 38.8258 62.9237 38.868 62.8715 38.868L62.1704 38.868C62.066 38.868 61.9813 38.9525 61.9813 39.0567C61.9813 39.0567 61.9813 39.0567 61.9813 39.0567V39.6662C61.9813 39.7704 62.066 39.8549 62.1704 39.8549C62.1704 39.8549 62.1704 39.8549 62.1704 39.8549L62.8715 39.8549C62.9237 39.8549 62.966 39.8971 62.9661 39.9492L62.9671 43.2943C63.0012 44.3144 63.8543 45.1254 64.8946 45.1254L65.7513 45.1254C65.8557 45.1254 65.9403 45.041 65.9403 44.9368C65.9403 44.9368 65.9403 44.9368 65.9403 44.9368L65.9403 44.3273C65.9402 44.2231 65.8556 44.1386 65.7512 44.1386C65.4657 44.1386 65.1802 44.1386 64.8946 44.1386C64.4594 44.1386 64.1065 43.792 64.1065 43.3644V39.9492C64.1065 39.8971 64.1488 39.8549 64.201 39.8549ZM39.3362 39.5282C39.3362 38.1524 38.2156 37.0285 36.8181 37H33.189C33.0846 37 33 37.0845 33 37.1887V44.9365C33 45.0407 33.0846 45.1252 33.189 45.1252C33.189 45.1252 33.189 45.1252 33.189 45.1252L33.9514 45.1252C34.0558 45.1252 34.1405 45.0407 34.1405 44.9365L34.1405 42.1507C34.1405 42.0986 34.1828 42.0564 34.235 42.0564L36.8164 42.0558C38.2156 42.0275 39.3362 40.9041 39.3362 39.5282ZM38.3316 39.5283C38.3316 40.3796 37.629 41.0697 36.7624 41.0697H34.235C34.1828 41.0697 34.1405 41.0274 34.1405 40.9753V38.0812C34.1405 38.0291 34.1828 37.9868 34.235 37.9868H36.7624C37.629 37.9868 38.3316 38.677 38.3316 39.5283ZM54.5128 42.0329H57.379C57.4834 42.0329 57.568 41.9485 57.568 41.8443V41.2347C57.568 41.1306 57.4834 41.0461 57.379 41.0461H54.5128C54.4606 41.0461 54.4183 41.0038 54.4183 40.9517V38.0812C54.4183 38.0291 54.4606 37.9868 54.5128 37.9868H58.0327C58.1371 37.9868 58.2218 37.9024 58.2218 37.7982V37.1887C58.2218 37.0845 58.1371 37 58.0327 37H53.4669C53.3625 37 53.2779 37.0845 53.2779 37.1887V44.9368C53.2779 45.041 53.3625 45.1254 53.4669 45.1254H53.4669L54.2293 45.1254C54.3337 45.1254 54.4183 45.041 54.4183 44.9368V42.1273C54.4183 42.0752 54.4606 42.0329 54.5128 42.0329Z" fill="white"/>
<path d="M19.5803 37.2725H23.5892C24.0404 37.2725 24.4063 36.9124 24.4063 36.4683C24.4063 36.0242 24.0404 35.6642 23.5892 35.6642L18.1534 35.6642C17.9246 35.6642 17.739 35.8497 17.739 36.0786L17.7376 45.6631C17.7397 45.6959 17.7408 45.7289 17.7408 45.762C17.7408 46.6057 17.0458 47.2897 16.1885 47.2897C15.3312 47.2897 14.6362 46.6057 14.6362 45.762C14.6364 45.7164 14.6362 45.7059 14.6341 45.6759L14.634 32.8179C14.634 32.7034 14.7268 32.6105 14.8413 32.6105C17.6262 32.61 19.8295 32.61 21.451 32.6105C23.2317 32.6111 23.2317 32.6111 23.5887 32.6112C25.7547 32.6112 27.5106 34.3394 27.5106 36.4712C27.5106 38.5456 25.8447 40.247 23.7372 40.3283H19.5803C19.4659 40.3283 19.3731 40.2355 19.3731 40.1211V37.4797C19.3731 37.3652 19.4659 37.2725 19.5803 37.2725ZM19.3746 45.6997L19.3731 42.1391C19.3731 42.0247 19.4658 41.9319 19.5803 41.9318C19.5803 41.9318 19.5803 41.9318 19.5803 41.9318L23.8178 41.9319C26.7873 41.8119 29.1419 39.4033 29.1419 36.4683C29.1419 33.5273 26.7781 31.1158 23.7825 31.0025C23.7744 31.0014 20.3184 31.0006 13.4145 31.0001V31C13.1856 31 13 31.1855 13 31.4144C13 31.4145 13 31.4145 13 31.4145L13.001 45.681C13.0003 45.7079 13 45.7349 13 45.762C13 47.4951 14.4275 48.9001 16.1885 48.9001C17.9494 48.9001 19.377 47.4951 19.377 45.762C19.377 45.7313 19.3763 45.7144 19.3746 45.6997Z" fill="white"/>
</svg>
