<svg xmlns="http://www.w3.org/2000/svg" width="80" height="80" viewBox="0 0 80 80">
    <g fill="none" fill-rule="evenodd">
        <circle cx="40" cy="40" r="40" fill="#002C87"/>
        <path fill="#FF3A47" d="M68.986 43.858c.092 0 .523.007.523.454 0 .221-.168.35-.355.385v-.023c.08.012.149.095.187.183l.286.66h-.236l-.279-.614c-.038-.084-.061-.137-.198-.137h-.187v.751h-.218v-1.66h.477zm-.26.717h.203c.237 0 .35-.137.35-.263 0-.1-.026-.264-.3-.264h-.252v.527zm.29-1.305c.775 0 1.408.633 1.408 1.408 0 .774-.633 1.408-1.407 1.408a1.412 1.412 0 0 1-1.408-1.408c0-.775.633-1.408 1.408-1.408zm0 2.625c.68 0 1.218-.538 1.218-1.217 0-.68-.538-1.217-1.217-1.217-.68 0-1.217.538-1.217 1.217s.538 1.217 1.217 1.217z"/>
        <path stroke="#FF3A47" stroke-width=".216" d="M68.986 43.858c.092 0 .523.007.523.454 0 .221-.168.35-.355.385v-.023c.08.012.149.095.187.183l.286.66h-.236l-.279-.614c-.038-.084-.061-.137-.198-.137h-.187v.751h-.218v-1.66h.477zm-.26.717h.203c.237 0 .35-.137.35-.263 0-.1-.026-.264-.3-.264h-.252v.527zm.29-1.305c.775 0 1.408.633 1.408 1.408 0 .774-.633 1.408-1.407 1.408a1.412 1.412 0 0 1-1.408-1.408c0-.775.633-1.408 1.408-1.408zm0 2.625c.68 0 1.218-.538 1.218-1.217 0-.68-.538-1.217-1.217-1.217-.68 0-1.217.538-1.217 1.217s.538 1.217 1.217 1.217z"/>
        <path fill="#FFE700" d="M20.835 32.953a1.587 1.587 0 0 1-.423-.639c-.07-.204-.162-.46-.162-.676a2.332 2.332 0 0 1 1.188-2.037c.28-.153.383-.257.425-.311a.205.205 0 0 0-.064-.017c-.835 0-1.263-.324-1.474-.599-.199-.257-.3-.589-.3-.951 0-.176.024-.36.073-.55.235-.388.46-.281.596-.083.087.125.685.549 1.422.616.536.051.825.313.975.523a1.366 1.366 0 0 1 .206 1.065c-.08.327-.426.623-.906.999l-.273.226c-.399.35-.619.738-.619 1.067a.673.673 0 0 0 .084.325c.179.301.683.49 1.414.235.338-.117.989-.527 1.386-.92.467-.467 1.091-.579 1.692-.626.521-.04.842-.167 1.068-.421.667-.752 1.31-.858 1.91-.903.23-.017.243-.034.273-.074.331-.442.672-.675.978-.811.232-.104.445-.151.62-.19l.21-.051.053-.019c.335-.108.594-.197 1.275-.657l.029-.018.029-.019.029-.017.029-.016.03-.016.028-.015h.002l.028-.014h.001l.03-.014.029-.013h.001l.029-.012h.002l.029-.012h.001l.029-.01.03-.01.002-.001.029-.01h.002l.028-.008h.002l.029-.009h.002l.03-.007h.001l.029-.007h.002l.029-.007h.003l.028-.006h.003l.028-.005h.003l.028-.005h.003l.029-.004h.002l.028-.003h.004l.028-.003h.003l.028-.003h.004l.027-.002h.004l.028-.001.031-.001h.1l.06.003.027.002h.004l.027.002h.004l.027.003h.004l.027.003h.004l.027.004h.004l.027.004h.004l.026.004.005.001.026.004.005.001.025.005h.005l.025.005.005.001.12.026.025.006.005.002c.04.01.079.021.117.033l.023.007.006.001c.076.024.15.052.222.08l.02.009.026.01a8.38 8.38 0 0 1 6.375-3.413A6.746 6.746 0 0 1 41.14 24a10.18 10.18 0 0 1 .256.004l.127.005.127.006a8.385 8.385 0 0 1 6.198 3.334 2.54 2.54 0 0 1 .656-.138h.006l.022-.002.022-.001h.012l.022-.001h.005l.022-.001h.09l.023.001h.005l.022.002h.006l.023.001h.004l.023.003h.005l.023.002h.005c.055.007.11.015.166.026l.024.005.004.001.024.006h.003l.025.007h.003l.024.007h.003l.025.008h.002l.025.008h.002l.026.009h.001l.028.01.025.009h.001l.026.01.001.001.026.01.001.001c.044.019.088.04.131.063h.001l.026.014.026.015.026.016.025.016.026.017c.47.319.74.46.971.551.104.041.201.073.304.106l.053.019.214.052c.116.025.248.054.391.101.359.117.787.344 1.203.899.03.04.043.057.274.074.6.045 1.242.15 1.912.903.225.254.544.382 1.065.42.604.048 1.226.16 1.692.627.398.393 1.048.803 1.387.92.731.256 1.237.066 1.412-.235a.607.607 0 0 0 .087-.325c0-.329-.22-.718-.618-1.067l-.05-.041-.225-.185c-.48-.376-.824-.672-.907-1a1.388 1.388 0 0 1 .206-1.065c.151-.209.443-.471.976-.522.74-.067 1.335-.491 1.422-.616.14-.198.36-.305.595.084.05.188.074.373.074.549 0 .364-.101.694-.3.951-.211.275-.638.6-1.475.6a.193.193 0 0 0-.063.016c.042.054.145.158.425.31a2.334 2.334 0 0 1 1.189 2.038c0 .217-.09.472-.163.676a1.605 1.605 0 0 1-.421.64c-.345.32-.921.572-1.88.515a5.179 5.179 0 0 1-.302-.027c-.025.484-.158 1.059-.345 1.349a.366.366 0 0 0-.068.182l.001.025c.006.002.426.25.426.25l.068.034s.039.019.044.023c.006-.002.145-.008.145-.008l.027-.004h.003c.262-.026.663-.154.833.322.045.126.072.236.098.333.052.2.096.347.27.481 0 0 .087-.074.184-.16.08-.072.167-.151.222-.205.122-.125.347-.061.508 0 .164.062.367.203.51.285a.54.54 0 0 1 .266.305c.043.123.143.203.296.284.148.084.359.353.359.715a.507.507 0 0 0 .067.262c.206.415.04.625-.079.713-.16.12-.444.17-.71.126l.002.068-.388-.052c-.15-.018-.35.02-.468.045l-.028.007a.804.804 0 0 1-.841-.368l-.022-.038c-.104-.182-.265-.351-.344-.398a1.371 1.371 0 0 1-.509.052c-.2-.02-.429-.096-.662-.29a1.675 1.675 0 0 1-.116-.106 1.301 1.301 0 0 0-1.08-.371l-.17.03c-.35.064-.788.144-1.192-.102a3.28 3.28 0 0 0-.388-.185c-.367-.16-.746-.324-.797-.672-.01-.062-.076-.175-.131-.265a2.154 2.154 0 0 1-.142-.26.768.768 0 0 1-.07-.283 1.234 1.234 0 0 1-.5.025l-.159-.025c-.268-.045-.83-.138-1.009-.073-.357.129-1.478.191-1.786.12l-.22-.047a2.683 2.683 0 0 1-.337.294c.226.012.423-.016.56.02l.282.074c.09-.027.31-.024.436-.013l.331.025.377.037c.182.036.375.114.343.471a.659.659 0 0 1-.167.357 3.601 3.601 0 0 0-.292.432l-.014.028c-.077.163-.191.314-.523.314-.041 0-.094 0-.126.005a.883.883 0 0 1-.037.076c-.075.17-.183.407-.389.544l-.055.04c-.166.117-.441.312-.863.159l-.145-.052c-.369-.133-.925-.332-1.206-.485l-.039-.022c-.261-.143-.32-.172-.414-.159l-.053.009c-.2.028-.579.079-.84-.355l-.024-.037a8.396 8.396 0 0 1-5.254 3.317l-.009.001a7.46 7.46 0 0 1-.22.038l-.028.004-.101.015-.119.016-.072.009-.113.012-.08.008-.154.013-.049.004-.142.008-.052.003-.165.006-.056.001a8.434 8.434 0 0 1-.174.002c-.06 0-.12 0-.18-.002h-.052a10.35 10.35 0 0 1-.158-.007l-.065-.003a11.177 11.177 0 0 1-.134-.008l-.057-.004a12.538 12.538 0 0 1-.157-.014l-.078-.008-.104-.011-.057-.007a9.097 9.097 0 0 1-.162-.022l-.066-.01-.115-.018-.06-.01a8.448 8.448 0 0 1-.14-.025l-.099-.02-.051-.01a7.759 7.759 0 0 1-.206-.047l-.018-.004-.107-.026-.055-.014a7.009 7.009 0 0 1-.19-.052l-.023-.007a8.405 8.405 0 0 1-4.583-3.309l-.143.218c-.259.434-.636.383-.84.355l-.052-.009c-.095-.013-.155.016-.414.16l-.041.02c-.28.154-.835.353-1.204.486l-.146.052c-.422.153-.698-.042-.86-.16l-.058-.04c-.206-.136-.313-.373-.389-.543l-.037-.076a1.177 1.177 0 0 0-.126-.005c-.329 0-.446-.15-.522-.314l-.013-.028a3.396 3.396 0 0 0-.293-.432.648.648 0 0 1-.166-.357c-.034-.357.161-.435.342-.471l.377-.037.332-.025c.123-.011.344-.014.434.013l.283-.075c.135-.035.334-.007.557-.02a3.23 3.23 0 0 1-.335-.293l-.22.048c-.309.07-1.428.008-1.783-.12-.18-.066-.742.027-1.011.072l-.162.025c-.174.026-.34.016-.495-.025-.009.203-.119.388-.213.543-.055.09-.124.203-.132.265-.049.348-.433.512-.798.672-.143.06-.285.123-.387.185-.401.246-.84.166-1.192.102l-.17-.03a1.301 1.301 0 0 0-1.08.371c-.525.525-1.048.41-1.287.344-.079.047-.241.216-.344.398a.806.806 0 0 1-.864.406l-.029-.007c-.117-.025-.313-.063-.463-.045l-.391.052.004-.068c-.267.044-.551-.006-.713-.126-.118-.088-.284-.298-.075-.713a.537.537 0 0 0 .065-.262c0-.362.21-.63.357-.715.155-.08.256-.161.297-.284a.533.533 0 0 1 .265-.305c.143-.082.346-.223.509-.285.162-.061.387-.125.51 0 .123.12.406.365.406.365.259-.2.234-.43.369-.814.168-.476.57-.347.831-.323l.03.005s.14.006.145.008l.047-.023.065-.034.426-.25c.002-.005.002-.012.002-.025 0-.03-.01-.091-.067-.182-.188-.29-.32-.865-.344-1.35a5.628 5.628 0 0 1-.198.02c-1.022.083-1.629-.175-1.984-.508zm38.484 2.34l-.03.004.03-.005zM49.01 27.24a1.754 1.754 0 0 0-.165-.025l.166.025zm.431.155a1.5 1.5 0 0 0-.13-.063l.13.063zM42.197 40.72l.119-.016-.119.016zm-.419.042l.155-.013-.155.013zm-.19.012l.141-.008-.142.008zm-.218.01l.165-.007-.165.006zm-.41 0l.18.002c.058 0 .116 0 .174-.002h-.354zm-.21-.007c.052.003.105.004.158.006l-.158-.006zm-.199-.011l.134.008-.134-.008zm-.214-.018l.157.014-.157-.014zm-.401-.048l.162.022-.162-.022zm-.38-.063l.14.025-.14-.025z"/>
        <path fill="#FF3A47" d="M33.705 30.208c-.06-.107-.035-.216.024-.32.135-.207.261.018.261.018.465.649.122 1.62.122 1.62-.048-.894-.407-1.318-.407-1.318zm4.01 4.295c.007-.191.023-.614-.17-.765-.072-.057-.354-.367-.354-.367-.043-.075-.076-.08-.076-.08-.058-.005-.134.13-.134.13-.201.389-.402.341-.402.341-.001-.07.046-.15.046-.15.055-.103.289-.567.289-.567.029-.067.056-.157.056-.157.194-.3.377-.072.377-.072.082.16.517.68.517.68.097.114.106.237.106.237.101.712-.255.77-.255.77zm-1.147 1.812c-.083-.002-.104-.032-.094-.123.056-.253.258-.362.258-.362.38-.227.427 0 .427 0 .07.406-.251.457-.251.457-.064.023-.34.028-.34.028zm-16.541 1.178s.083.062.039.183c0 0-.213.58-.203.775 0 0-.469.084-.534-.148 0 0-.013-.09.064-.219 0 0 .08-.12.1-.342 0 0-.007-.557.354-.41.072.04.128.1.18.161zm.573-.923a.35.35 0 0 1 .291-.078c.228.05.09.246.09.246-.092.172-.392.463-.392.463-.268.2-.48-.038-.48-.038-.197-.196.06-.29.06-.29.15-.06.43-.303.43-.303zm2.749-3.481s-.085.823.286 1.55c0 0 .275.389-.011.64l-.569.33s-.076.056-.33.037c0 0-.35-.087-.466.068 0 0-.102.298-.23.543 0 0-.258.594-.686.785 0 0-.342.078-.445.374 0 0-.11.208-.33.217 0 0-.165.052-.274.418 0 0-.06.237-.056.419 0 0 .28-.037.463.03 0 0 .45.15.65-.22 0 0 .388-.665.676-.565 0 0 .578.194.986-.228 0 0 .561-.613 1.353-.487 0 0 .892.18 1.17-.025 0 0 .564-.294.775-.367 0 0 .258-.076.285-.359 0 0 .157-.398.271-.53l-.426-.005s-.385.648-1.04.844c0 0-.358.143-1.077.026 0 0-1.032-.233-1.939.746 0 0-.124.179-.3.107 0 0 .5-.854 1.6-1.056 0 0 .36-.077.66-.028 0 0 1.482.043 2.17-1.415 0 0-.075-1.244.252-1.538 0 0 .127-.039.102.202 0 0-.225 1.302.198 1.554 0 0 .246.193.7.122 0 0 .69-.165 1.25-.069 0 0 .862.205 1.602.11 0 0-.192-.294-.155-.646 0 0 .107-.252.228-.09 0 0 .285.941 1.063 1.224 0 0 .696.253.684 1.135 0 0-.106.12-1.028.448 0 0-.345.109-.456-.148 0 0-.444-.952-.831-.923l-.727.06s-.248.063-.065.262c0 0 .249.33.35.528 0 0 .03.169.264.133 0 0 .324-.16.507.442 0 0 .167.302.45.398 0 0 .266.089.514-.05 0 0 1.2-.441 1.41-.598 0 0 .259-.145.465-.075 0 0 .36.086.508-.198l.372-.576s.082-.141.07-.32c0 0 .034-.176-.115-.355 0 0-.14-.148-.162-.256l-.266-.623s-.107-.167-.225-.235l-.354.026s.244.622.422.876c0 0 .241.369.229.604 0 0-.016.164-.08.233 0 0-.082.13-.115.194 0 0-.108.233-.195.285 0 0-.15.089-.187.092 0 0-.066.018-.017-.099 0 0 .198-.417.185-.64 0 0 .039-.233-.126-.37 0 0-.385-.608-.44-.79 0 0-.122-.243-.186-.285 0 0-.135-.177.082-.26 0 0 .543-.122.64-.189 0 0 .26-.079.429-.621 0 0 .233-.633.23-1.024 0 0 .456.88-.272 1.776 0 0 .576.17.815 0 0 0 .718-.105.856-.143 0 0 .18-.044.078.085 0 0-.217.308-.235.51 0 0-.014.16-.146.254 0 0-.408.286-.444.56 0 0-.087.263.093.2 0 0 .245-.113.33 0 0 0 .026.013-.068.119 0 0-.245.213-.264.5 0 0 .046.33.132.436 0 0 .11.153.285.104 0 0 .046-.037.13-.012 0 0 .086 0 .312-.078 0 0 .341-.094.456-.134 0 0 .434-.156.649-.145 0 0 .14-.016.317.02 0 0 .544.062.907-.339 0 0 .276-.219.37-.006 0 0 .661.888 1.732.654 0 0-.852-.35-1.073-.828 0 0-.03-.405-.476-.968 0 0-.137-.187-.005-.235 0 0 .076-.057.242.11 0 0 .425.406.578.779 0 0 .526.796 1.286.528 0 0-.596-.23-.876-.658 0 0-.174-.58-.755-1.012 0 0-.023-.652-.295-1.019 0 0-.138-.612-.175-.756 0 0-.147-.538-.145-.686 0 0 .048-.703-.405-1.25 0 0-.304-.585-.776-.992 0 0-.36-.444-.627-.716 0 0-.351-.412-1.117-.95 0 0-.347-.252-.602-.523 0 0-1.351-.973-2.328-.193 0 0-.674.459-1.237.601 0 0-1.158.135-1.651.938 0 0-.042.149-.509.205 0 0-1.025-.123-1.78.884 0 0-.35.342-1.043.426 0 0-1.132-.116-1.869.752 0 0-1.86 1.621-2.968.57 0 0-.574-.544.083-1.529 0 0 .416-.502 1.127-1.028 0 0 .576-.406.312-1.037 0 0-.14-.61-1.004-.626 0 0-1.084-.21-1.522-.757 0 0-.49 1.724 1.431 1.695 0 0 .501.074.326.471 0 0-.245.34-.575.464 0 0-.58.254-.84 1.098 0 0-.586 1.477.842 2.047.55.19 1.185.133 1.75.035zM48.33 30.208c.058-.107.034-.216-.026-.32-.135-.207-.26.018-.26.018-.466.649-.122 1.62-.122 1.62.048-.894.407-1.318.407-1.318zm-4.012 4.295c-.007-.191-.023-.614.171-.765.072-.057.354-.367.354-.367.043-.075.076-.08.076-.08.058-.005.134.13.134.13.2.389.402.341.402.341.001-.07-.047-.15-.047-.15-.054-.103-.288-.567-.288-.567-.03-.067-.056-.157-.056-.157-.195-.3-.377-.072-.377-.072-.082.16-.517.68-.517.68a.461.461 0 0 0-.107.237c-.1.712.255.77.255.77zm1.148 1.812c.083-.002.104-.032.093-.123a.571.571 0 0 0-.258-.362c-.38-.227-.426 0-.426 0-.07.406.251.457.251.457.064.023.34.028.34.028zm16.54 1.178s-.082.062-.038.183c0 0 .212.58.202.775 0 0 .47.084.535-.148 0 0 .012-.09-.064-.219 0 0-.08-.12-.1-.342 0 0 .006-.557-.354-.41a.662.662 0 0 0-.18.161zm-.572-.923a.349.349 0 0 0-.291-.078c-.228.05-.09.246-.09.246.092.172.392.463.392.463.268.2.48-.038.48-.038.197-.196-.061-.29-.061-.29-.15-.06-.43-.303-.43-.303zm-2.75-3.481s.086.823-.285 1.55c0 0-.275.389.01.64l.569.33s.076.056.33.037c0 0 .35-.087.467.068 0 0 .102.298.229.543 0 0 .259.594.687.785 0 0 .342.078.445.374 0 0 .11.208.33.217 0 0 .165.052.274.418 0 0 .059.237.056.419 0 0-.28-.037-.463.03 0 0-.45.15-.65-.22 0 0-.389-.665-.676-.565 0 0-.578.194-.986-.228 0 0-.561-.613-1.354-.487 0 0-.892.18-1.17-.025 0 0-.563-.294-.774-.367 0 0-.259-.076-.285-.359 0 0-.157-.398-.271-.53l.425-.005s.386.648 1.04.844c0 0 .359.143 1.078.026 0 0 1.032-.233 1.938.746 0 0 .124.179.3.107 0 0-.5-.854-1.6-1.056 0 0-.36-.077-.66-.028 0 0-1.482.043-2.168-1.415 0 0 .074-1.244-.254-1.538 0 0-.126-.039-.102.202 0 0 .226 1.302-.197 1.554 0 0-.247.193-.701.122 0 0-.69-.165-1.25-.069 0 0-.86.205-1.601.11 0 0 .192-.294.154-.646 0 0-.106-.252-.228-.09 0 0-.284.941-1.063 1.224 0 0-.695.253-.684 1.135 0 0 .107.12 1.029.448 0 0 .344.109.455-.148 0 0 .445-.952.832-.923l.727.06s.247.063.065.262c0 0-.249.33-.35.528 0 0-.03.169-.264.133 0 0-.324-.16-.507.442 0 0-.168.302-.451.398 0 0-.265.089-.514-.05 0 0-1.2-.441-1.409-.598 0 0-.26-.145-.465-.075 0 0-.36.086-.508-.198l-.372-.576s-.082-.141-.07-.32c0 0-.034-.176.114-.355 0 0 .141-.148.163-.256l.265-.623s.108-.167.226-.235l.354.026s-.244.622-.422.876c0 0-.242.369-.23.604 0 0 .017.164.081.233 0 0 .082.13.115.194 0 0 .107.233.194.285 0 0 .151.089.188.092 0 0 .065.018.016-.099 0 0-.198-.417-.185-.64 0 0-.038-.233.126-.37 0 0 .386-.608.442-.79 0 0 .12-.243.185-.285 0 0 .135-.177-.083-.26 0 0-.542-.122-.639-.189 0 0-.26-.079-.43-.621 0 0-.232-.633-.229-1.024 0 0-.457.88.272 1.776 0 0-.576.17-.815 0 0 0-.718-.105-.857-.143 0 0-.18-.044-.077.085 0 0 .216.308.235.51 0 0 .014.16.145.254 0 0 .409.286.444.56 0 0 .088.263-.093.2 0 0-.244-.113-.33 0 0 0-.025.013.069.119 0 0 .245.213.263.5 0 0-.045.33-.132.436 0 0-.11.153-.284.104 0 0-.046-.037-.13-.012 0 0-.087 0-.312-.078 0 0-.342-.094-.456-.134 0 0-.434-.156-.65-.145 0 0-.139-.016-.317.02 0 0-.544.062-.906-.339 0 0-.276-.219-.37-.006 0 0-.661.888-1.733.654 0 0 .853-.35 1.074-.828 0 0 .03-.405.476-.968 0 0 .136-.187.004-.235 0 0-.076-.057-.242.11 0 0-.424.406-.577.779 0 0-.527.796-1.286.528 0 0 .596-.23.876-.658 0 0 .173-.58.755-1.012 0 0 .023-.652.294-1.019 0 0 .139-.612.176-.756 0 0 .146-.538.145-.686 0 0-.048-.703.405-1.25 0 0 .303-.585.776-.992 0 0 .36-.444.626-.716 0 0 .352-.412 1.118-.95 0 0 .347-.252.601-.523 0 0 1.352-.973 2.328-.193 0 0 .675.459 1.238.601 0 0 1.157.135 1.65.938 0 0 .043.149.51.205 0 0 1.024-.123 1.779.884 0 0 .35.342 1.044.426 0 0 1.132-.116 1.868.752 0 0 1.86 1.621 2.968.57 0 0 .575-.544-.082-1.529 0 0-.416-.502-1.127-1.028 0 0-.576-.406-.312-1.037 0 0 .14-.61 1.004-.626 0 0 1.083-.21 1.522-.757 0 0 .49 1.724-1.432 1.695 0 0-.5.074-.326.471 0 0 .246.34.575.464 0 0 .58.254.842 1.098 0 0 .585 1.477-.843 2.047-.551.19-1.186.133-1.751.035zM24.715 51.038h2.857s-.119-1.349-1.409-1.349-1.448 1.35-1.448 1.35zm1.488-2.975c3.85 0 3.69 3.75 3.69 3.75v.595h-5.218c0 .853.714 1.587 1.687 1.587.972 0 1.468-.933 1.468-.933l1.845.913c-.853 1.29-2.004 1.805-3.293 1.805-4.009 0-4.088-3.333-4.088-3.75 0-.416.06-3.967 3.909-3.967zm8.572 5.614c-.12 0-1.608.02-1.608-1.805 0-1.826 1.628-1.885 1.628-1.885s1.825.06 1.825 1.845c0 1.786-1.726 1.845-1.845 1.845zm1.746-10.263v5.501s-1.111-.852-2.382-.852c-1.269 0-3.412.892-3.412 3.71 0 2.817 1.826 3.89 3.393 3.89 1.568 0 2.44-1.033 2.44-1.033v.916h2.262V43.414h-2.3zM51.78 48.44h2.301v4.068s.08 1.37 1.37 1.37c1.289 0 1.27-1.37 1.27-1.37v-4.048h2.32v4.187s.299 3.274-3.532 3.274c-3.829 0-3.73-2.877-3.73-3.393v-4.088zm8.601 7.107h2.272V43.414h-2.272v12.132zm3.859 0h2.243V43.414H64.24v12.132zM47.166 53.52h-2.153v-7.59h1.151s1.563-.118 1.563 1.246c0 1.365-1.243 1.244-1.243 1.244h-.717v2.045h1.399c.366 0 1.534.178 1.534 1.522 0 1.343-1.534 1.533-1.534 1.533zm1.935-4.306s1.051-.817 1.051-2.367-1.126-2.949-3.524-2.949h-4.016v11.65h4.947s3.545-.04 3.545-3.244c0-1.86-.722-2.573-2.003-3.09zM14 43.65v11.897h2.4V45.92h1.132s1.766-.08 1.766 1.528c0 1.607-1.568 1.567-1.568 1.567h-.575v2.739l2.4 3.793h2.818l-3.353-4.865s2.758-.237 2.758-3.234c0-2.996-2.083-3.798-4.861-3.798H14z"/>
    </g>
</svg>
