<svg width="80" height="80" viewBox="0 0 80 80" fill="none" xmlns="http://www.w3.org/2000/svg">
<path d="M40 80C62.0914 80 80 62.0914 80 40C80 17.9086 62.0914 0 40 0C17.9086 0 0 17.9086 0 40C0 62.0914 17.9086 80 40 80Z" fill="#F26F21"/>
<path d="M14.9334 23.9167C12.2667 23.9167 10.8 26.25 10.8 28.5167C10.8 30.7834 12.2 33.1167 14.9334 33.1167H27.4667V23.9167H14.9334Z" fill="white"/>
<path d="M43.1333 23.9167H30.5333V33.1167H43.0667C45.8 33.1167 47.2 30.7834 47.2 28.5167C47.2667 26.25 45.8 23.9167 43.1333 23.9167Z" fill="white"/>
<path d="M43.1333 35.1833H30.5333V44.3833H43.0667C45.8 44.3833 47.2 42.05 47.2 39.7833C47.2667 37.5167 45.8 35.1833 43.1333 35.1833V35.1833Z" fill="white"/>
<path d="M54.2 23.9167C51.9333 23.9167 49.6 25.3167 49.6 28.05V44.3833H58.8V28.05C58.8 25.3834 56.4666 23.9167 54.2 23.9167Z" fill="white"/>
<path d="M65.4 23.9167C63.1334 23.9167 60.8 25.3167 60.8 28.05V44.3833H70V28.05C70 25.3834 67.7334 23.9167 65.4 23.9167Z" fill="white"/>
<path d="M24.0667 35.1833H11.5333V44.3833H24.0667C26.8 44.3833 28.2 42.05 28.2 39.7833C28.2 37.5167 26.8 35.1833 24.0667 35.1833V35.1833Z" fill="white"/>
<path d="M15.0667 48.9167C16.8 48.9167 17.6 49.7833 17.6 51.5167V52.9167C17.6 54.65 16.7333 55.5167 15.0667 55.5167H14.0667C12.3333 55.5167 11.5333 54.65 11.5333 52.9167V51.5167C11.5333 49.7833 12.4 48.9167 14.0667 48.9167H15.0667ZM15.3333 50.3167H13.8C13.2667 50.3167 13.0667 50.65 13.0667 51.25V53.1833C13.0667 53.85 13.3333 54.1167 13.8 54.1167H15.3333C15.8667 54.1167 16.0667 53.7833 16.0667 53.1833V51.25C16.1333 50.65 15.8667 50.3167 15.3333 50.3167V50.3167Z" fill="white"/>
<path d="M20.6666 52.9833V55.5833H19.1333V48.9167H24.2666V50.3167H20.6666V51.5167H23.7333V52.9167H20.6666V52.9833Z" fill="white"/>
<path d="M27.5333 52.9833V55.5833H26V48.9167H31.1333V50.3167H27.5333V51.5167H30.6V52.9167H27.5333V52.9833Z" fill="white"/>
<path d="M42.2667 52.9833V55.5833H40.7334V48.9167H42.2667V51.5167H45.3334V48.9167H46.8667V55.5833H45.3334V52.9833H42.2667Z" fill="white"/>
<path d="M52.4 48.9167C54.1334 48.9167 54.9334 49.7833 54.9334 51.5167V52.9167C54.9334 54.65 54.0667 55.5167 52.4 55.5167H51.4C49.6667 55.5167 48.8667 54.65 48.8667 52.9167V51.5167C48.8667 49.7833 49.7334 48.9167 51.4 48.9167H52.4ZM52.6667 50.3167H51.1334C50.6 50.3167 50.4 50.65 50.4 51.25V53.1833C50.4 53.85 50.6667 54.1167 51.1334 54.1167H52.6667C53.2 54.1167 53.4 53.7833 53.4 53.1833V51.25C53.4 50.65 53.1334 50.3167 52.6667 50.3167Z" fill="white"/>
<path d="M60.5334 53.45H58.2667V55.5833H56.7334V48.9167H60.5334C62.0667 48.9167 62.8001 49.5833 62.8001 50.9167V51.3833C62.8001 51.9167 62.6667 52.3833 62.4001 52.7167C62.6667 53.05 62.8001 53.45 62.8001 54.05V55.5833H61.2667V53.9167C61.3334 53.5833 61.0667 53.45 60.5334 53.45V53.45ZM60.5334 51.9833C61.0667 51.9833 61.2667 51.85 61.2667 51.5167V50.7833C61.2667 50.45 61.0001 50.3167 60.5334 50.3167H58.2667V51.9833H60.5334Z" fill="white"/>
<path d="M66.3334 52.9833V54.1833H69.9334V55.5833H64.8V48.9167H69.9334V50.3167H66.3334V51.5167H69.4V52.9167H66.3334V52.9833Z" fill="white"/>
<path d="M36.4 51.5167H35.1334C34.6 51.5167 34.4 51.3167 34.4 50.9167C34.4 50.5167 34.6667 50.3167 35.1334 50.3167H36.6667C36.7334 50.3167 38.4667 50.3167 38.4667 50.3167V48.9167C38.4667 48.9167 36.5334 48.9167 36.4 48.9167H35.4C33.6667 48.9167 32.8667 49.5833 32.8667 50.9167C32.8667 52.25 33.7334 52.9167 35.4 52.9167H36.6667C37.2 52.9167 37.4667 53.1167 37.4667 53.5167C37.4667 53.9167 37.2 54.1167 36.7334 54.1167H33.1334V55.5833C33.2 55.5833 35.4 55.5833 35.4667 55.5833H36.4667C38.2 55.5833 39 54.9167 39 53.5833C38.9334 52.1833 38.0667 51.5167 36.4 51.5167Z" fill="white"/>
</svg>
