<svg width="80" height="80" viewBox="0 0 80 80" fill="none" xmlns="http://www.w3.org/2000/svg">
<path d="M40 80C62.0914 80 80 62.0914 80 40C80 17.9086 62.0914 0 40 0C17.9086 0 0 17.9086 0 40C0 62.0914 17.9086 80 40 80Z" fill="#F71073"/>
<path d="M18.8399 22.7622C18.7703 22.6449 18.6587 22.5445 18.5177 22.4724C18.3767 22.4002 18.2118 22.3592 18.0416 22.3539C17.8777 22.3525 17.7193 22.3986 17.599 22.4827C17.4787 22.5667 17.4057 22.6824 17.395 22.8059C17.395 23.2142 18.1075 23.395 18.8339 23.6436C19.5604 23.8922 20.2609 24.2327 20.2609 24.9695C20.2583 25.1769 20.2012 25.3819 20.0928 25.5726C19.9845 25.7632 19.8271 25.9358 19.6297 26.0801C19.4324 26.2245 19.199 26.3378 18.9432 26.4136C18.6874 26.4893 18.4141 26.526 18.1394 26.5214C17.2413 26.5214 16.3293 26.1326 16 25.4742L17.0178 25.1247C17.2693 25.4742 17.5726 25.7273 18.1414 25.7273C18.2609 25.7326 18.3806 25.7196 18.4932 25.689C18.6058 25.6585 18.7091 25.611 18.7968 25.5494C18.8844 25.4879 18.9547 25.4136 19.0032 25.331C19.0518 25.2484 19.0777 25.1593 19.0794 25.0689C19.0794 24.8188 18.9217 24.6998 18.6443 24.5597L17.4788 24.0836C16.7923 23.8048 16.2814 23.5457 16.2814 22.9069C16.2814 22.7271 16.3287 22.5492 16.4206 22.3834C16.5124 22.2176 16.6471 22.0672 16.8166 21.941C16.9862 21.8149 17.1872 21.7154 17.4082 21.6484C17.6291 21.5814 17.8654 21.5483 18.1035 21.5509C18.46 21.5488 18.8096 21.625 19.1097 21.7703C19.4099 21.9155 19.6476 22.1236 19.7939 22.369L18.8399 22.7622Z" fill="white"/>
<path d="M22.6523 18V22.0525H22.6732C22.8285 21.786 23.0492 21.5669 23.3127 21.4176C23.5762 21.2683 23.8732 21.194 24.1734 21.2023C25.5786 21.2023 25.942 22.1842 25.942 23.4428V26.5217H24.9773V23.5645C24.9773 22.6826 24.8599 22.0858 23.8807 22.0858C22.6459 22.0858 22.6459 23.2111 22.6459 24.1479V26.5217H21.6812V18H22.6523Z" fill="white"/>
<path d="M32.3334 24.0053C32.3334 24.6727 32.0341 25.3128 31.5014 25.7847C30.9687 26.2566 30.2462 26.5217 29.4928 26.5217C28.7394 26.5217 28.0169 26.2566 27.4842 25.7847C26.9515 25.3128 26.6522 24.6727 26.6522 24.0053C26.6704 23.3488 26.9776 22.7246 27.5082 22.266C28.0388 21.8074 28.7507 21.5507 29.4919 21.5507C30.2332 21.5507 30.9451 21.8074 31.4757 22.266C32.0063 22.7246 32.3134 23.3488 32.3317 24.0053H32.3334ZM27.682 24.0053C27.6888 24.3227 27.8013 24.6312 28.0054 24.8921C28.2095 25.153 28.4961 25.3546 28.8292 25.4716C29.1622 25.5887 29.5269 25.6159 29.8774 25.5499C30.2278 25.4839 30.5485 25.3276 30.799 25.1006C31.0495 24.8736 31.2187 24.5862 31.2853 24.2743C31.3519 23.9624 31.313 23.64 31.1734 23.3477C31.0338 23.0553 30.7998 22.806 30.5008 22.6311C30.2018 22.4562 29.8511 22.3635 29.4928 22.3647C29.0082 22.3727 28.5467 22.5492 28.2078 22.8562C27.869 23.1632 27.6802 23.576 27.682 24.0053Z" fill="white"/>
<path d="M35.0366 24.7086L36.6037 21.5507L38.1604 24.7086L39.7052 21.8041H40.8551L38.1518 26.5173L36.5951 23.4655L35.0366 26.5217L32.3334 21.8085H33.4919L35.0366 24.7086Z" fill="white"/>
<path d="M42.6526 22.4843H42.6889C42.7992 22.2105 43.0069 21.9732 43.2827 21.8058C43.5584 21.6384 43.8885 21.5492 44.2264 21.5507C44.5429 21.5565 44.8511 21.6385 45.1159 21.7872L44.624 22.6321C44.441 22.4968 44.2046 22.4266 43.9632 22.436C42.7978 22.436 42.6544 23.3696 42.6544 24.1475V26.5217H41.5652V21.6986H42.6544L42.6526 22.4843Z" fill="white"/>
<path d="M50.087 24.0362C50.071 24.701 49.8022 25.333 49.3378 25.7974C48.8734 26.2618 48.2503 26.5217 47.6015 26.5217C46.9527 26.5217 46.3295 26.2618 45.8652 25.7974C45.4008 25.333 45.1319 24.701 45.116 24.0362C45.1319 23.3715 45.4008 22.7394 45.8652 22.2751C46.3295 21.8107 46.9527 21.5507 47.6015 21.5507C48.2503 21.5507 48.8734 21.8107 49.3378 22.2751C49.8022 22.7394 50.071 23.3715 50.087 24.0362ZM46.0098 24.0362C46.0157 24.3572 46.114 24.6692 46.2922 24.9332C46.4704 25.1972 46.7207 25.4014 47.0117 25.5202C47.3027 25.639 47.6215 25.6671 47.928 25.601C48.2345 25.5349 48.5152 25.3775 48.7348 25.1486C48.9544 24.9197 49.1032 24.6295 49.1625 24.3143C49.2219 23.999 49.1891 23.6729 49.0683 23.3767C48.9475 23.0805 48.7441 22.8274 48.4836 22.6492C48.223 22.471 47.917 22.3756 47.6037 22.3749C47.178 22.3806 46.7717 22.5583 46.4732 22.8695C46.1748 23.1806 46.0082 23.5999 46.0098 24.0362Z" fill="white"/>
<path d="M56.4782 24.0362C56.4623 24.701 56.1934 25.333 55.729 25.7974C55.2646 26.2618 54.6415 26.5217 53.9927 26.5217C53.3439 26.5217 52.7208 26.2618 52.2564 25.7974C51.792 25.333 51.5231 24.701 51.5072 24.0362C51.5231 23.3715 51.792 22.7394 52.2564 22.2751C52.7208 21.8107 53.3439 21.5507 53.9927 21.5507C54.6415 21.5507 55.2646 21.8107 55.729 22.2751C56.1934 22.7394 56.4623 23.3715 56.4782 24.0362ZM52.4026 24.0362C52.4085 24.3573 52.5068 24.6695 52.6852 24.9335C52.8635 25.1976 53.114 25.4018 53.4052 25.5205C53.6963 25.6392 54.0152 25.6671 54.3218 25.6008C54.6284 25.5344 54.9091 25.3768 55.1286 25.1475C55.3481 24.9183 55.4966 24.6278 55.5556 24.3124C55.6146 23.997 55.5814 23.6707 55.4602 23.3746C55.3389 23.0784 55.1351 22.8256 54.8741 22.6477C54.6132 22.4699 54.3068 22.375 53.9935 22.3749C53.568 22.381 53.1621 22.5589 52.8639 22.87C52.5658 23.1811 52.3994 23.6002 52.4011 24.0362H52.4026Z" fill="white"/>
<path d="M58.8992 22.3022H58.9206C59.063 22.0815 59.2609 21.8975 59.4966 21.7664C59.7323 21.6353 59.9985 21.5613 60.2717 21.5507C60.93 21.5507 61.4238 21.8697 61.7431 22.4049C61.9043 22.1467 62.1335 21.9324 62.4083 21.7827C62.6832 21.633 62.9943 21.5531 63.3115 21.5507C64.6511 21.5507 65 22.5403 65 23.6309V26.5217H64.0126V23.7927C64.0126 23.1704 63.9253 22.3816 63.0646 22.3816C62.0195 22.3816 61.9422 23.4116 61.9422 24.1521V26.5217H60.9547V23.967C60.9547 23.3446 60.9218 22.3816 60.0183 22.3816C58.9732 22.3816 58.886 23.4007 58.886 24.1521V26.5217H57.8986V21.6985H58.886L58.8992 22.3022Z" fill="white"/>
<path d="M34.4571 53.3031C33.9537 52.7073 33.3262 52.2287 32.6186 51.9008C31.9109 51.5729 31.1401 51.4035 30.3602 51.4046C27.6225 51.4046 25.5608 53.7435 25.5608 56.3824C25.5608 59.0213 27.596 61.421 30.326 61.421C31.1475 61.4094 31.9564 61.2165 32.6948 60.8562C33.4332 60.4958 34.0829 59.9769 34.5976 59.3365V60.8553C33.4317 61.8853 31.931 62.4562 30.3753 62.4614C26.9315 62.4614 24.4179 59.7731 24.4179 56.3862C24.4015 55.5939 24.5447 54.8064 24.8387 54.0705C25.1328 53.3346 25.5718 52.6654 26.1297 52.1025C26.6876 51.5397 27.353 51.0947 28.0862 50.7942C28.8195 50.4936 29.6057 50.3435 30.3981 50.3528C31.8758 50.3235 33.3134 50.8337 34.4419 51.7881L34.4571 53.3031Z" fill="white"/>
<path d="M48.5515 56.4204C48.5514 57.6207 48.1959 58.794 47.5297 59.7924C46.8635 60.7908 45.9164 61.5695 44.8081 62.0302C43.6998 62.4909 42.4798 62.6129 41.3022 62.381C40.1246 62.149 39.042 61.5734 38.1912 60.7268C37.3404 59.8802 36.7594 58.8006 36.5216 57.6241C36.2838 56.4477 36.3997 55.2271 36.8549 54.1165C37.3101 53.0059 38.084 52.055 39.079 51.3838C40.0741 50.7126 41.2457 50.3512 42.4459 50.3452C43.2494 50.3299 44.0477 50.4763 44.7934 50.7758C45.5391 51.0753 46.2169 51.5217 46.7866 52.0885C47.3562 52.6553 47.806 53.3309 48.1092 54.0751C48.4124 54.8193 48.5628 55.6169 48.5515 56.4204ZM37.5402 56.447C37.5402 59.0859 39.6248 61.421 42.3662 61.421C43.6924 61.421 44.9643 60.8942 45.9021 59.9564C46.8399 59.0186 47.3668 57.7467 47.3668 56.4204C47.3668 55.0942 46.8399 53.8222 45.9021 52.8844C44.9643 51.9466 43.6924 51.4198 42.3662 51.4198C39.602 51.4198 37.5402 53.7549 37.5402 56.447Z" fill="white"/>
<path d="M51.7827 52.0729H51.8321C52.11 51.5441 52.5304 51.1037 53.0459 50.8017C53.5613 50.4997 54.151 50.3482 54.7481 50.3642C55.4425 50.3425 56.127 50.5329 56.7104 50.9101C57.2938 51.2872 57.7483 51.8333 58.0135 52.4754C58.3053 51.8258 58.7841 51.278 59.3888 50.902C59.9934 50.5259 60.6964 50.3387 61.408 50.3642C64.4001 50.3642 65 52.3994 65 54.9206V62.226H63.8609V54.7877C63.8609 53.0031 63.5837 51.4198 61.3739 51.4198C58.9628 51.4198 58.3819 53.5309 58.3819 55.5433V62.226H57.2428V55.0611C57.2428 53.2537 56.9162 51.416 54.6532 51.416C52.2156 51.416 51.7637 53.9562 51.7637 55.8395V62.226H50.6246V50.6148H51.7637L51.7827 52.0729Z" fill="white"/>
<path d="M18.6921 59.158C20.1788 59.158 21.3841 57.9527 21.3841 56.466C21.3841 54.9792 20.1788 53.7739 18.6921 53.7739C17.2053 53.7739 16 54.9792 16 56.466C16 57.9527 17.2053 59.158 18.6921 59.158Z" fill="white"/>
<path d="M17.2082 34.8041H17.2616C18.1862 33.2035 20.1998 32.276 22.049 32.276C25.883 32.276 28.25 35.2638 28.25 38.9329C28.25 42.602 25.883 45.3722 22.086 45.3722C21.1374 45.398 20.1974 45.1862 19.3519 44.7561C18.5063 44.326 17.782 43.6912 17.2451 42.9098H17.1917L17.1136 51.0113H16V32.5428H17.2328L17.2082 34.8041ZM17.126 39.0971C17.126 42.0315 19.1108 44.2313 22.1312 44.2313C25.0694 44.2313 27.0254 41.7688 27.0254 38.9616C27.0254 36.0887 25.1515 33.417 22.0942 33.417C18.8765 33.4334 17.126 36.0928 17.126 39.1094V39.0971Z" fill="white"/>
<path d="M31.0225 34.0916H31.0802C31.2975 33.5578 31.6967 33.0967 32.2228 32.7716C32.7489 32.4464 33.376 32.2733 34.018 32.276C34.5151 32.2787 35.0056 32.3763 35.4559 32.5623L34.7503 33.6014C34.4667 33.4488 34.1414 33.3675 33.8094 33.3661C30.8361 33.3661 31.0225 36.6365 31.0225 38.401V44.526H29.6912V32.5348H31.0225V34.0916Z" fill="white"/>
<path d="M39.7794 28.3117C39.7794 28.598 39.6656 28.8727 39.4629 29.0752C39.2602 29.2777 38.9852 29.3914 38.6986 29.3914C38.4119 29.3914 38.137 29.2777 37.9343 29.0752C37.7316 28.8727 37.6177 28.598 37.6177 28.3117C37.6177 28.0253 37.7316 27.7506 37.9343 27.5481C38.137 27.3456 38.4119 27.2319 38.6986 27.2319C38.9852 27.2319 39.2602 27.3456 39.4629 27.5481C39.6656 27.7506 39.7794 28.0253 39.7794 28.3117ZM39.2818 44.526H38.0874V32.3642H39.2818V44.526Z" fill="white"/>
<path d="M47.3996 42.9894L51.5919 32.276H52.75L47.3456 45.9672L41.9412 32.276H43.0993L47.3996 42.9894Z" fill="white"/>
<path d="M54.638 39.2302C54.5599 42.5527 56.6525 44.7721 59.4167 44.7721C61.2791 44.7721 62.7783 43.5486 63.6294 41.7886L64.6094 42.4154C64.1169 43.5049 63.3522 44.4175 62.4048 45.0462C61.4575 45.675 60.3668 45.9938 59.2606 45.9654C55.7194 45.9654 53.4706 42.8103 53.4706 39.0971C53.4706 35.3839 55.7702 32.276 59.2606 32.276C62.8798 32.276 65.0232 35.4569 64.9998 39.2388L54.638 39.2302ZM63.8363 38.0368C63.5513 35.6243 61.7437 33.4608 59.2879 33.4608C58.1369 33.4624 57.0268 33.9297 56.1692 34.7737C55.3115 35.6177 54.7665 36.7792 54.638 38.0368H63.8363Z" fill="white"/>
</svg>
