<svg xmlns="http://www.w3.org/2000/svg" width="80" height="80" viewBox="0 0 80 80">
    <g fill="none" fill-rule="evenodd">
        <circle cx="40" cy="40" r="40" fill="#6000D7"/>
        <path fill="#FFF" d="M15.727 39.104a.243.243 0 0 1 0-.344l1.786-1.787a.244.244 0 0 1 .345 0l3.607 3.607a.7.7 0 0 1-.006.977l-3.702 3.703a.244.244 0 0 1-.173.072H14.01a.243.243 0 0 1-.164-.424l3.67-3.672a.243.243 0 0 0 0-.343l-1.79-1.789h.001zm-2.46 1.791a.243.243 0 0 1 0 .345l-1.785 1.786a.244.244 0 0 1-.345 0L7.529 39.42a.7.7 0 0 1 .005-.976l3.704-3.704a.245.245 0 0 1 .172-.071h3.574a.243.243 0 0 1 .164.423l-3.67 3.672a.244.244 0 0 0 0 .344l1.789 1.789zm12.654.082c.37.337.943.539 1.493.539.394 0 .696-.191.696-.46 0-.82-2.638-.528-2.638-2.28 0-1.044 1.01-1.695 2.089-1.695.707 0 1.481.27 1.84.55l-.684 1.055c-.281-.201-.65-.37-1.045-.37-.404 0-.74.158-.74.439 0 .706 2.638.425 2.638 2.312 0 1.044-1.022 1.684-2.167 1.684-.752 0-1.55-.259-2.19-.73l.708-1.044zm5.95-.247c.302.426.792.677 1.314.674.82 0 1.437-.63 1.437-1.483 0-.786-.55-1.492-1.403-1.492a1.676 1.676 0 0 0-1.348.672v1.629zm-1.459-3.536h1.403v.437c.427-.348.977-.55 1.594-.55 1.483 0 2.673 1.235 2.673 2.84 0 .742-.259 1.415-.685 1.91-.483.56-1.257.92-2.066.92-.55 0-1.022-.158-1.46-.494v3.076h-1.459v-8.14zm10.017 2.02a1.087 1.087 0 0 0-1.078-.955c-.606 0-1.1.461-1.168.955h2.246zm1.359 2.56c-.528.629-1.392.977-2.235.977-1.628 0-2.852-1.123-2.852-2.83 0-1.515 1.033-2.84 2.65-2.84 1.505 0 2.572 1.269 2.572 2.785 0 .145-.012.291-.034.415h-3.773c.079.764.695 1.29 1.47 1.29.618 0 1.112-.346 1.37-.627l.832.83zm.977.865v-5.445h1.404v.437a2.397 2.397 0 0 1 1.538-.55c.752 0 1.437.336 1.886.876.36.426.561.976.561 1.909v2.773h-1.459v-2.886c0-.539-.123-.82-.326-1.022-.19-.19-.483-.302-.82-.302-.617 0-1.123.392-1.325.672v3.538h-1.46zM53.153 39.1a1.675 1.675 0 0 0-1.348-.672c-.854 0-1.403.706-1.403 1.492 0 .853.617 1.483 1.437 1.483a1.595 1.595 0 0 0 1.314-.674V39.1zm.055 3.538V42.2c-.45.382-.965.55-1.515.55-.809 0-1.572-.36-2.055-.92a2.922 2.922 0 0 1-.696-1.91c0-1.605 1.19-2.84 2.672-2.84.595 0 1.111.168 1.538.505v-2.92h1.46v7.973h-1.404zm6.004-3.425a1.086 1.086 0 0 0-1.078-.955c-.607 0-1.1.461-1.168.955h2.246zm1.358 2.56c-.528.629-1.392.977-2.234.977-1.628 0-2.852-1.123-2.852-2.83 0-1.515 1.033-2.84 2.65-2.84 1.504 0 2.57 1.269 2.57 2.785 0 .145-.01.291-.032.415h-3.773c.078.764.695 1.29 1.47 1.29.618 0 1.112-.346 1.37-.627l.83.83zm1.503-.797c.37.337.943.539 1.494.539.393 0 .696-.191.696-.46 0-.82-2.64-.528-2.64-2.28 0-1.044 1.011-1.695 2.09-1.695.707 0 1.482.27 1.84.55l-.684 1.055c-.28-.201-.651-.37-1.044-.37-.405 0-.742.158-.742.439 0 .706 2.64.425 2.64 2.312 0 1.044-1.022 1.684-2.167 1.684a3.77 3.77 0 0 1-2.19-.73l.707-1.044zm7.106-1.336l2.998 2.998h-1.965L67.91 40.28v2.358h-1.46v-7.972h1.46v4.289l1.875-1.762h2.056l-2.662 2.447z"/>
    </g>
</svg>
