<svg xmlns="http://www.w3.org/2000/svg" width="133" height="40" viewBox="0 0 133 40">
    <path fill="#8C97A1" fill-rule="nonzero" d="M19.999.066c11.013 0 19.939 8.928 19.939 19.939 0 11.012-8.927 19.939-19.939 19.939S.06 31.017.06 20.004C.06 8.994 8.987.067 20 .067zm9.144 28.757c.36-.585.173-1.35-.412-1.709-5.256-3.211-11.77-3.959-19.366-2.222a1.242 1.242 0 1 0 .553 2.422c6.94-1.585 12.834-.939 17.516 1.923.586.358 1.35.173 1.709-.414zm2.44-5.428c.45-.73.22-1.687-.512-2.137-6.155-3.782-15.156-4.847-22.398-2.65a1.557 1.557 0 0 0-1.036 1.94 1.557 1.557 0 0 0 1.94 1.035c6.339-1.924 14.51-.97 19.868 2.324.73.449 1.687.22 2.138-.512zm.21-5.654a1.865 1.865 0 0 0 1.903-3.208c-7.398-4.391-19.107-4.804-26.15-2.666a1.866 1.866 0 0 0 1.083 3.569c6.135-1.862 16.737-1.511 23.164 2.305zm22.514.732l.007.003c4.193 1.02 5.905 2.603 5.898 5.463 0 3.387-2.588 5.576-6.594 5.576-2.831 0-5.455-1.006-7.588-2.91a.224.224 0 0 1-.023-.313l1.885-2.243a.224.224 0 0 1 .155-.08.236.236 0 0 1 .165.054c1.834 1.588 3.473 2.265 5.482 2.265 1.81 0 2.934-.783 2.934-2.043 0-1.136-.556-1.772-3.85-2.53-3.87-.936-6.11-2.148-6.11-5.57 0-3.192 2.596-5.423 6.313-5.423 2.528 0 4.69.75 6.612 2.29a.226.226 0 0 1 .042.307l-1.68 2.37a.222.222 0 0 1-.15.092.225.225 0 0 1-.17-.042c-1.613-1.203-3.153-1.788-4.705-1.788-1.601 0-2.678.77-2.678 1.914 0 1.21.613 1.787 4.055 2.608zm14.967-3.395h.003c3.227 0 6.493 2.483 6.488 7.232 0 4.747-3.265 7.23-6.491 7.23-1.736 0-3.16-.644-4.335-1.962v5.532a.226.226 0 0 1-.225.226h-3.083a.226.226 0 0 1-.225-.226V15.585c0-.124.1-.225.225-.225h3.083c.124 0 .225.101.225.225v1.578c1.175-1.402 2.599-2.085 4.335-2.085zm2.907 7.232c0-2.379-1.524-4.105-3.621-4.105-2.108 0-3.698 1.764-3.698 4.105 0 2.34 1.59 4.104 3.698 4.104 2.132 0 3.621-1.687 3.621-4.104zm11.955-7.232c4.14 0 7.383 3.177 7.383 7.232 0 4.069-3.265 7.257-7.434 7.257-4.126 0-7.359-3.165-7.359-7.206 0-4.084 3.255-7.283 7.41-7.283zm0 11.36c2.23 0 3.85-1.714 3.85-4.078 0-2.355-1.677-4.131-3.901-4.131-2.217 0-3.825 1.716-3.825 4.08 0 2.354 1.666 4.13 3.876 4.13zM100.39 15.36l.004.001c.126 0 .226.101.221.226v2.649c0 .124-.1.226-.225.226h-3.392v6.37c0 1.007.442 1.456 1.43 1.456.642 0 1.216-.138 1.81-.437a.226.226 0 0 1 .327.203v2.522c0 .08-.044.157-.114.196-.865.49-1.782.718-2.888.718-2.719 0-4.098-1.404-4.098-4.174V18.46h-1.482a.226.226 0 0 1-.224-.226v-2.65c0-.124.1-.225.224-.225h1.482V11.89c0-.124.101-.225.226-.225h3.082c.125 0 .225.101.225.225v3.469h3.392zm11.82.013h-.001 5.266c.094 0 .178.059.211.146l3.6 9.396 3.288-9.39a.227.227 0 0 1 .214-.151h3.209a.225.225 0 0 1 .209.308L122.858 29.5c-1.109 2.852-2.367 3.912-4.643 3.912-1.217 0-2.202-.252-3.292-.843a.224.224 0 0 1-.098-.291l1.045-2.292a.228.228 0 0 1 .134-.122.231.231 0 0 1 .18.017c.584.32 1.156.482 1.699.482.672 0 1.164-.22 1.664-1.332l-4.408-10.57h-2.879v10.572a.226.226 0 0 1-.225.226h-3.083a.225.225 0 0 1-.225-.226V18.461h-1.48a.227.227 0 0 1-.227-.226v-2.663c0-.124.102-.226.226-.226h1.481v-.652c0-3.032 1.505-4.635 4.352-4.635a8.46 8.46 0 0 1 2.562.368c.096.03.16.117.16.216v2.598a.224.224 0 0 1-.296.215c-.579-.193-1.095-.32-1.737-.32-1.078 0-1.558.558-1.558 1.811v.426zm-6.853-.013c.126 0 .226.102.226.226v13.448a.226.226 0 0 1-.226.226h-3.082a.226.226 0 0 1-.226-.226V15.585c0-.124.101-.225.226-.225h3.082zm-1.524-6.124h.002a2.21 2.21 0 1 1-.002 4.421 2.21 2.21 0 0 1 0-4.421zm27.005 10.448a2.16 2.16 0 0 1-2.17-2.17c0-1.19.962-2.18 2.182-2.18s2.169.979 2.169 2.168c0 1.19-.962 2.182-2.181 2.182zm.012-4.135c-1.111 0-1.952.883-1.952 1.965 0 1.081.835 1.953 1.94 1.953 1.112 0 1.953-.883 1.953-1.965s-.835-1.953-1.94-1.953h-.001zm.481 2.176l.614.859h-.518l-.552-.788h-.475v.788h-.433v-2.277h1.015c.53 0 .877.27.877.726.002.373-.214.602-.526.692h-.002zm-.367-1.028h-.564v.72h.564c.282 0 .45-.137.45-.36 0-.234-.169-.36-.45-.36z"/>
</svg>
