<svg xmlns="http://www.w3.org/2000/svg" width="80" height="80" viewBox="0 0 80 80">
    <g fill="none" fill-rule="evenodd">
        <circle cx="40" cy="40" r="40" fill="#000"/>
        <g fill-rule="nonzero">
            <path fill="#1BB953" d="M16 30.033c-5.506 0-9.97 4.463-9.97 9.97 0 5.506 4.464 9.969 9.97 9.969s9.969-4.463 9.969-9.97c0-5.505-4.463-9.969-9.97-9.969zm4.571 14.379a.621.621 0 0 1-.854.206c-2.341-1.43-5.288-1.754-8.758-.961a.621.621 0 1 1-.276-1.211c3.797-.868 7.055-.495 9.682 1.111.293.18.386.562.206.855zm1.22-2.715a.778.778 0 0 1-1.069.256c-2.679-1.647-6.764-2.124-9.934-1.161a.778.778 0 0 1-.451-1.488c3.62-1.098 8.121-.566 11.199 1.325a.777.777 0 0 1 .256 1.069zm.105-2.826c-3.213-1.909-8.514-2.084-11.582-1.153a.932.932 0 1 1-.54-1.785c3.52-1.069 9.375-.862 13.074 1.334a.932.932 0 0 1-.951 1.604z"/>
            <path fill="#FFF" d="M33.154 39.236l.003.002c2.097.51 2.953 1.302 2.949 2.731 0 1.694-1.294 2.788-3.297 2.788a5.618 5.618 0 0 1-3.794-1.455.112.112 0 0 1-.011-.156l.942-1.122a.112.112 0 0 1 .077-.04.118.118 0 0 1 .083.027c.917.794 1.736 1.133 2.741 1.133.905 0 1.467-.392 1.467-1.021 0-.568-.278-.886-1.925-1.266-1.935-.467-3.055-1.073-3.055-2.785 0-1.596 1.298-2.71 3.156-2.71 1.265 0 2.346.374 3.306 1.144a.113.113 0 0 1 .022.154l-.84 1.184a.111.111 0 0 1-.075.046.112.112 0 0 1-.085-.02c-.807-.602-1.577-.894-2.353-.894-.8 0-1.34.385-1.34.957 0 .605.307.893 2.029 1.303zm7.483-1.697h.002c1.613 0 3.246 1.242 3.244 3.616 0 2.373-1.633 3.615-3.246 3.615-.868 0-1.58-.322-2.167-.981v2.766c0 .062-.05.113-.113.113h-1.541a.113.113 0 0 1-.113-.113v-8.762c0-.063.05-.113.113-.113h1.541c.062 0 .113.05.113.113v.788c.587-.7 1.299-1.042 2.167-1.042zm1.453 3.616c0-1.19-.761-2.052-1.81-2.052-1.054 0-1.849.882-1.849 2.052s.795 2.052 1.849 2.052c1.066 0 1.81-.843 1.81-2.052zm5.978-3.616c2.07 0 3.691 1.588 3.691 3.616 0 2.034-1.632 3.629-3.717 3.629-2.063 0-3.679-1.583-3.679-3.603 0-2.043 1.628-3.642 3.705-3.642zm0 5.68c1.115 0 1.925-.857 1.925-2.039 0-1.178-.839-2.065-1.95-2.065-1.109 0-1.913.857-1.913 2.04 0 1.176.833 2.064 1.938 2.064zm8.127-5.54l.002.001a.11.11 0 0 1 .11.113v1.325c0 .062-.05.113-.112.113H54.5v3.185c0 .503.22.728.715.728.321 0 .608-.069.905-.218a.113.113 0 0 1 .163.1v1.262c0 .04-.021.078-.057.098-.432.245-.89.36-1.443.36-1.36 0-2.05-.703-2.05-2.088V39.23h-.74a.113.113 0 0 1-.113-.113v-1.324c0-.063.05-.113.113-.113h.74v-1.734c0-.062.051-.113.114-.113h1.54c.063 0 .113.05.113.113v1.734h1.696zm5.91.008h2.633c.046 0 .089.029.105.073l1.8 4.698 1.644-4.695a.113.113 0 0 1 .107-.076h1.604a.112.112 0 0 1 .105.154l-2.674 6.91c-.554 1.426-1.184 1.956-2.322 1.956-.608 0-1.1-.126-1.646-.422a.112.112 0 0 1-.048-.146l.522-1.146a.114.114 0 0 1 .067-.06.116.116 0 0 1 .09.008c.292.16.578.241.85.241.335 0 .581-.11.832-.666l-2.205-5.285H62.13v5.286c0 .062-.05.113-.113.113h-1.541a.113.113 0 0 1-.112-.113V39.23h-.74a.113.113 0 0 1-.114-.113v-1.331c0-.062.051-.113.113-.113h.74v-.326c0-1.516.753-2.318 2.177-2.318.585 0 .975.094 1.28.184.049.015.08.059.08.109v1.298a.112.112 0 0 1-.148.108 2.6 2.6 0 0 0-.868-.16c-.539 0-.78.279-.78.906v.213zm-3.426-.007c.063 0 .113.051.113.113v6.724c0 .062-.051.113-.113.113h-1.542a.113.113 0 0 1-.113-.113v-6.724c0-.063.051-.113.113-.113h1.542zm-.762-3.062a1.105 1.105 0 1 1 0 2.21 1.105 1.105 0 0 1 0-2.21zm13.502 5.224a1.08 1.08 0 0 1-1.085-1.085c0-.595.481-1.09 1.09-1.09.61 0 1.085.49 1.085 1.084a1.09 1.09 0 0 1-1.09 1.09zm.006-2.067a.97.97 0 0 0-.976.982c0 .54.417.976.97.976a.97.97 0 0 0 .977-.982.962.962 0 0 0-.97-.976h-.001zm.24 1.087l.307.43h-.258l-.277-.394H71.2v.394h-.217v-1.139h.508c.265 0 .439.136.439.364 0 .186-.108.3-.264.345zm-.183-.513H71.2v.36h.282c.141 0 .225-.07.225-.18 0-.118-.084-.18-.225-.18z"/>
        </g>
    </g>
</svg>
