<svg width="80" height="80" viewBox="0 0 80 80" fill="none" xmlns="http://www.w3.org/2000/svg">
<path d="M40 80C62.0914 80 80 62.0914 80 40C80 17.9086 62.0914 0 40 0C17.9086 0 0 17.9086 0 40C0 62.0914 17.9086 80 40 80Z" fill="#00D5B5"/>
<path d="M9.7568 37.8735C9.52198 38.8922 9.07172 39.6112 8.1712 40.2304H11.2641V37.8735H9.7568ZM5 37.8735V40.2304H5.97879C7.72094 40.2304 8.778 39.2915 9.18913 37.8735H5ZM9.28697 37.2943C9.3261 37.1346 9.3261 36.9547 9.3261 36.755V34.9375H6.97715V36.2956C6.97715 36.6951 6.89888 37.0547 6.72277 37.2943H9.28697ZM6.74234 40.8096V44.8042C6.74234 46.7016 7.91681 47.8401 9.79593 47.8401C10.7552 47.8401 11.2641 47.6005 11.2641 47.6005V45.4034C11.127 45.4433 10.7747 45.4833 10.4614 45.4833C9.71766 45.4833 9.3261 45.2037 9.3261 44.3448V40.8096H6.74234ZM18.8004 37.8336C18.6047 37.8136 18.4088 37.7937 18.1936 37.7937C17.3715 37.7937 16.0403 38.0333 15.4531 39.3317V37.8735H12.928V47.7003H15.5313V43.2063C15.5313 41.0893 16.6862 40.43 18.0174 40.43C18.2523 40.43 18.5068 40.4502 18.8004 40.5101V37.8336ZM19.7792 45.024C19.7792 46.5618 21.0319 47.98 23.0873 47.98C24.5162 47.98 25.4363 47.3008 25.9257 46.5219C25.9257 46.9015 25.9648 47.4407 26.0235 47.7003H28.4116C28.3529 47.3609 28.2942 46.6617 28.2942 46.1423V41.3089C28.2942 39.3317 27.1589 37.5739 24.1053 37.5739C21.5213 37.5739 20.1316 39.2716 19.9748 40.8096L22.2847 41.3089C22.3631 40.4502 22.9895 39.711 24.1248 39.711C25.221 39.711 25.7496 40.2903 25.7496 40.9893C25.7496 41.3289 25.5733 41.6086 25.0252 41.6885L22.6566 42.0479C21.0515 42.2877 19.7792 43.2662 19.7792 45.024ZM23.6354 46.0026C22.7936 46.0026 22.3827 45.4433 22.3827 44.8641C22.3827 44.1052 22.9112 43.7256 23.5767 43.6258L25.7496 43.2862V43.7256C25.7496 45.4633 24.7316 46.0026 23.6354 46.0026ZM68.1291 41.6685C68.1878 40.7696 68.9318 39.731 70.2823 39.731C71.7701 39.731 72.3965 40.6898 72.4356 41.6685H68.1291ZM72.69 44.225C72.3769 45.1039 71.7114 45.7231 70.4978 45.7231C69.2057 45.7231 68.1291 44.7842 68.0704 43.486H74.9609C74.9609 43.4461 75 43.0466 75 42.667C75 39.5114 73.2185 37.5739 70.2432 37.5739C67.7768 37.5739 65.5062 39.6112 65.5062 42.7471C65.5062 46.0625 67.8356 48 70.478 48C72.8467 48 74.3734 46.5818 74.8628 44.8841L72.69 44.225ZM32.8551 37.8735H30.2516V47.7003H32.8551V37.8735ZM29.9385 34.6578C29.9385 35.5367 30.6627 36.2757 31.5437 36.2757C32.4442 36.2757 33.1488 35.5367 33.1488 34.6578C33.1488 33.7391 32.4442 33 31.5437 33C30.6627 33 29.9385 33.7391 29.9385 34.6578ZM53.4479 37.8735H50.8444V47.7003H53.4479V37.8735ZM50.5313 34.6578C50.5313 35.5367 51.2555 36.2757 52.1365 36.2757C53.0368 36.2757 53.7417 35.5367 53.7417 34.6578C53.7417 33.7391 53.0368 33 52.1365 33C51.2555 33 50.5313 33.7391 50.5313 34.6578ZM37.3965 42.0479C37.3965 40.9094 38.0622 40.0107 39.1975 40.0107C40.4503 40.0107 40.9788 40.8695 40.9788 41.968V47.7003H43.5821V41.5086C43.5821 39.3516 42.4859 37.614 40.0978 37.614C39.0603 37.614 37.9054 38.0732 37.3182 39.0919V37.8735H34.7931V47.7003H37.3965V42.0479ZM57.9697 42.0479C57.9697 40.9094 58.6352 40.0107 59.7706 40.0107C61.0235 40.0107 61.5521 40.8695 61.5521 41.968V47.7003H64.1554V41.5086C64.1554 39.3516 63.0592 37.614 60.6711 37.614C59.6336 37.614 58.4787 38.0732 57.8915 39.0919V37.8735H55.3662V47.7003H57.9697V42.0479ZM49.396 45.4633C49.2199 45.4833 49.0827 45.4833 48.9457 45.4833C48.2998 45.4833 47.83 45.2437 47.83 44.3847V33.2398H45.2656V44.8242C45.2656 46.7216 46.4402 47.8401 48.3194 47.8401C48.7305 47.8401 49.024 47.8001 49.396 47.7203V45.4633Z" fill="white"/>
</svg>
