<svg xmlns="http://www.w3.org/2000/svg" width="80" height="80" viewBox="0 0 80 80">
    <g fill="none" fill-rule="evenodd">
        <circle cx="40" cy="40" r="40" fill="#31333B"/>
        <g fill-rule="nonzero">
            <path fill="#FFF" d="M59.35 26.694l.862-.149c.2 2.247-.124 3.899-.967 4.913a2.808 2.808 0 0 1-2.06 1.024h-.126c-.634 0-1.198-.27-1.643-.785a3.651 3.651 0 0 1-.57-.95c-.233.57-.604 1.026-1.196 1.117a1.07 1.07 0 0 1-.923-.268c-.84-.751-.787-2.854-.766-3.298v-1.946c0-1.237-.228-1.903-.657-1.929-.696.05-1.017 1.335-1.146 2.1a14.104 14.104 0 0 0-.17 2.334v3.732l-.863.154v-4.381c-.007-.365-.137-1.515-.6-1.907a.56.56 0 0 0-.486-.114c-.604.103-.841 1.086-.902 1.96v5.61l-.862.164v-4.647a3.67 3.67 0 0 1-.306.365c-.161.17-.333.328-.515.476.014.199.023.4.023.609 0 2.303-.943 3.91-2.293 3.91-.84 0-1.522-.623-1.917-1.647-.453 1.038-1.175 1.599-2.121 1.599-.538 0-1.248-.198-1.79-1.042-.125.874-.36 1.703-.79 2.203a1.413 1.413 0 0 1-.995.523h-.102a1.34 1.34 0 0 1-.964-.404c-.383-.38-.6-.997-.72-1.63-.498 1.555-1.251 2.385-2.27 2.508a1.575 1.575 0 0 1-.205.013c-.488 0-.942-.214-1.323-.629-.956-1.034-1.33-3.163-.913-5.177.365-1.766 1.588-2.7 2.51-2.55.325.053 1.369.383 1.131 2.422-.222 1.92-1.71 2.925-2.767 3.308.143.591.37 1.087.67 1.413.242.267.504.378.79.344.817-.1 2.194-1.274 2.242-8.022v-5.306l.863-.154v9.638c-.058.954.053 2.668.597 3.205.101.11.249.167.398.152a.553.553 0 0 0 .4-.225c.648-.754.737-2.873.7-4.229-.033-.369-.045-.72-.045-1.023 0-1.618.424-2.99 1.134-3.67a1.584 1.584 0 0 1 1.17-.475 1.46 1.46 0 0 1 1.124.59c.56.73.587 1.986.41 3.042l-.906.15c.244-1.13.17-2.197-.19-2.668a.594.594 0 0 0-.475-.251.73.73 0 0 0-.536.236c-.536.513-.868 1.677-.868 3.046v.176c.01.127.03.423.043.822.065.7.2 1.302.402 1.767.302.692.72 1.028 1.268 1.028.473 0 1.491-.302 1.751-2.796-.005-.068-.005-.134-.005-.203 0-.353.022-.706.066-1.057v-.03c.19-1.47.767-2.57 1.53-3h.005c.107-.066.22-.12.34-.163a1.35 1.35 0 0 1 .347-.05c.993 0 1.798 1.068 2.13 2.655l.03-.03c.88-.923.93-2.286.93-4.004l.863-.156v.822c.212-.194.475-.322.757-.37.42-.082.853.029 1.182.3.112.094.21.202.295.32.327-1.65.973-2.511 1.923-2.556h.031c1.004.026 1.513.967 1.513 2.792v1.981c-.042.874.078 2.266.48 2.625a.225.225 0 0 0 .209.058c.557-.086.802-1.289.837-2.373a9.27 9.27 0 0 1 .17-2.643c.29-1.401 1.401-2.756 2.588-2.537.674.122 1.305.825 1.051 2.427-.391 2.474-2.052 3.123-2.867 3.296.132.82.398 1.521.771 1.954.302.35.65.509 1.063.484a1.943 1.943 0 0 0 1.444-.714c.482-.58.98-1.778.778-4.209zm-29.438 4.589a7.27 7.27 0 0 0-.111 2.132c.7-.286 1.872-.99 2.054-2.534.097-.837-.064-1.414-.411-1.47a.45.45 0 0 0-.071-.005c-.473 0-1.212.67-1.461 1.877zm12.937-3.743c-.262.19-.618.585-.533 1.346.05.446.392.994.94 1.176.392.132.82.062 1.277-.211-.202-1.437-.808-2.422-1.36-2.422a.602.602 0 0 0-.324.111zm.324 6.378v.004c.694 0 1.43-1.068 1.429-3.053v-.091c-.708.301-1.276.218-1.62.102a2.29 2.29 0 0 1-1.174-.94c-.005.394-.025.767-.06 1.117.045 1.857.755 2.861 1.425 2.861zm12.033-6.06c.004.068.012.235.014.465.62-.15 1.79-.68 2.09-2.572.128-.814-.01-1.38-.355-1.443a.485.485 0 0 0-.083-.007c-.483 0-1.257.675-1.504 1.87a8.554 8.554 0 0 0-.172 1.686h.01zm-31.048-.675l.818-.141 1.7 11.319c.274-3.645.934-9.433 2.465-16.863l.913-.165c-2.204 10.573-2.63 17.842-2.712 20.391l-1.013.183-1.729-11.51-1.765 13.267-.94.169c-.044-6.474-1.28-14.102-1.895-17.509l.849-.153c.476 2.647 1.324 7.805 1.707 13.025l1.602-12.013zm9.423 11.12v2.473l-.519.07v-2.479l-.365.046v-.492l1.248-.157v.49l-.364.05zm5.602-1.93v2.412l-.517.068v-2.418l-.365.043v-.48l1.247-.147v.479l-.365.043zM41.6 39.92v-1.202l-.45.059v1.204l-.518.07v-2.873l.518-.064v1.186l.45-.057v-1.187l.517-.064v2.856l-.517.072zm1.927-1.546v-2.838l1.138-.135v.469l-.62.075v.703l.548-.067v.468l-.548.068v.72l.633-.08v.464l-1.15.153zm-8.14 3.23c-.47.067-.79-.356-.79-1.33v-.15c0-.973.32-1.481.79-1.54.471-.06.79.365.79 1.33v.15c0 .967-.319 1.475-.79 1.54zm.263-1.62c0-.755-.106-.951-.263-.93-.157.02-.263.243-.263.999v.152c0 .756.106.952.263.93.157-.022.263-.246.263-1.004v-.147z"/>
            <path fill="#00C29A" d="M57.09 39.84l.853-.148c.198 2.247-.125 3.899-.967 4.914a2.816 2.816 0 0 1-2.06 1.024h-.126c-.63 0-1.194-.27-1.638-.786a2.77 2.77 0 0 1-.235-.32c-.11 1.051-.351 2.098-.853 2.68-.241.3-.595.487-.979.516h-.1c-.354.001-.695-.141-.943-.395-1.007-.997-.895-3.69-.875-4.055v-9.084l.864-.16v9.28c-.058 1.022.057 2.85.619 3.406a.456.456 0 0 0 .377.144.53.53 0 0 0 .383-.217c.696-.805.76-3.205.71-4.603a9.18 9.18 0 0 1 .142-2.899c.29-1.4 1.397-2.754 2.589-2.536.674.122 1.304.825 1.051 2.427-.392 2.474-2.053 3.123-2.867 3.296.132.82.398 1.522.771 1.954.3.349.648.509 1.063.484a1.944 1.944 0 0 0 1.443-.714c.481-.58.98-1.778.778-4.209zm-4.145 1.497c.001.03.007.072.007.127.624-.147 1.799-.675 2.1-2.572.128-.814-.01-1.381-.355-1.443a.414.414 0 0 0-.083-.008c-.484 0-1.258.676-1.505 1.87a8.605 8.605 0 0 0-.164 2.026zm-22.52-2.398l.863-.155v13.734c0 3.437-2.075 6.129-4.722 6.129-2.803 0-4.915-2.47-4.915-5.744 0-2.218.674-3.95 1.899-4.875.874-.66 1.789-.9 2.715-.712 1.03.21 1.867.914 2.435 1.544l-.653.566c-.476-.526-1.157-1.103-1.956-1.265-.685-.138-1.344.044-2.02.555-1.004.759-1.557 2.246-1.557 4.187 0 2.365 1.42 4.88 4.052 4.88 2.164 0 3.859-2.313 3.859-5.265V38.94zm17.738 10.455a31.094 31.094 0 0 1 5-.519l.02.863a30.175 30.175 0 0 0-5.02.53v.321c0 .911-.01 1.803-.137 2.688-.243 1.7-.865 2.806-1.898 3.382a3.212 3.212 0 0 1-1.557.39c-.322 0-.643-.046-.952-.135a2.996 2.996 0 0 1-1.83-1.413c-.47-.85-.546-1.698-.225-2.52a3.28 3.28 0 0 1 .397-.721c-5.448 2.522-8.025 6.033-8.065 6.087l-.7-.502c.061-.091 1.597-2.206 4.837-4.381a26.355 26.355 0 0 1 6.828-3.245c.082-.031.164-.06.245-.087v.01c.56-.171 1.141-.327 1.746-.468v.886c-.592.144-1.161.301-1.709.473-1.072.404-2.36 1.202-2.773 2.263-.226.58-.169 1.165.176 1.789.285.496.758.858 1.312 1.004a2.483 2.483 0 0 0 1.853-.183c.778-.435 1.257-1.334 1.46-2.75.096-.776.139-1.558.127-2.34v-4.413c-.383.496-.874.78-1.44.78-.54 0-1.014-.265-1.39-.721-.12 1.047-.466 1.923-1.338 2.105-.363.091-.747.007-1.039-.228-.681-.556-.739-1.829-.739-2.98 0-.187.013-.422.028-.696.048-.855.136-2.44-.312-2.83-.055-.048-.143-.098-.343-.059-.945.183-1.264 2.523-1.3 4.034v5.164l-.863.178v-1.356c-.263.446-.602.728-1.036.79a1.207 1.207 0 0 1-1.014-.315 1.68 1.68 0 0 1-.283-.356c-.245 1.57-.743 2.683-1.728 2.683a1.499 1.499 0 0 1-1.096-.463c-.813-.833-.793-2.513-.793-2.702v-6.594l.863-.16v6.766c-.01.423.07 1.604.547 2.09a.627.627 0 0 0 .477.201c.238 0 .987-.37 1.079-4.838-.023-.644 0-1.16.01-1.313v-2.304l.862-.16v2.783c0 .34-.001.68-.008 1.016.045 1.116.227 2.319.655 2.712.08.084.199.121.314.1.336-.049 1.082-.7 1.158-5.423v-3.333l.863-.16v.958c.303-.477.682-.76 1.137-.847.527-.102.876.083 1.074.256.764.667.673 2.318.606 3.524-.014.26-.026.484-.026.649 0 .588 0 1.966.42 2.31.055.044.139.09.321.052.792-.166.73-2.29.664-3.544a7.702 7.702 0 0 1-.054-.912v-.211c.056-2.347 1.019-4.093 2.287-4.093.555 0 1.05.336 1.44.907V38.3l.862-.16v11.255zm-2.302-3.077c.694 0 1.432-1.068 1.432-3.055 0-1.969-.756-3.44-1.432-3.44-.653 0-1.38 1.383-1.425 3.26.001.196.016.459.033.764l.016.28c.179 1.427.792 2.19 1.376 2.19z"/>
        </g>
    </g>
</svg>
