<?xml version="1.0" encoding="utf-8"?>
<svg id="master-artboard" viewBox="0 0 243.68421936035156 157.73280334472656" xmlns="http://www.w3.org/2000/svg" width="243.68421936035156px" height="157.73280334472656px"><rect id="ee-background" x="0" y="0" width="243.68421936035156" height="157.73280334472656" style="fill: white; fill-opacity: 0; pointer-events: none;"/><title>yelp_logo_vector</title><path d="M 0 0 H 250 V 160 H 0 V 0 Z" fill="#fff" transform="matrix(1, 0, 0, 1, 0, 0)"/><path d="M215.21,96.55a9.9,9.9,0,0,0-5.88-13.68l-.32-.1a9.91,9.91,0,0,0,6.68-13.56,32.61,32.61,0,0,0-8.41-11.56,9.91,9.91,0,0,0-6.53-2.47h-.05a9.77,9.77,0,0,0-8.36,4.65V43.69a9.87,9.87,0,0,0-9.88-9.9h-.06a45.93,45.93,0,0,0-9.54,1.55,48.55,48.55,0,0,0-8.4,3.09,9.88,9.88,0,0,0-4.3,13.88l8.06,14a9.91,9.91,0,0,0-14,5.58c-.1.3-.2.6-.29.9a18,18,0,0,0-4.74-3.26,19.67,19.67,0,0,0-8.35-1.87,18.86,18.86,0,0,0-6.37,1.09,10.66,10.66,0,0,0-11.64,1.14V67.93a10.65,10.65,0,0,0-21.3,0V73.8a19.55,19.55,0,0,0-14.19-5.92,20.06,20.06,0,0,0-12.48,4.5,10.75,10.75,0,0,0-19,3.1l-.45,1.46-1.46-3A10.67,10.67,0,0,0,39.55,69,10.75,10.75,0,0,0,34.6,83.37l10.19,20.89a10.56,10.56,0,0,0-4.63,15.94c1.49,2,4.43,4.47,10,4.6h.6c7.76,0,13.43-3.84,15.57-10.53.88-2.75,1.9-6,2.95-9.33.19.42.39.84.61,1.25,3.35,6.37,9.49,9.88,17.27,9.88,7.34,0,12.48-2.48,15.67-5.7a10.64,10.64,0,0,0,16,3.24v1.95a10.65,10.65,0,0,0,21.29.27h.47c1.84,0,8.66-.35,13.38-5.37a18.38,18.38,0,0,0,2.59-3.38,9.14,9.14,0,0,0,8,.38,10.36,10.36,0,0,0,2.18,2A33.26,33.26,0,0,0,180,114.88a10,10,0,0,0,1.64.13,9.85,9.85,0,0,0,9.89-9.55v-.34l.18.29a9.9,9.9,0,0,0,14.7,2.38A33.13,33.13,0,0,0,215.21,96.55Z" fill="#fff" transform="matrix(1, 0, 0, 1, 0, 0)"/><path d="M210.54,82.8A10.33,10.33,0,0,0,216,77.6a10.54,10.54,0,0,0,.13-8.59,33.17,33.17,0,0,0-8.53-11.74,10.48,10.48,0,0,0-6.87-2.6h-.05a10.14,10.14,0,0,0-7.85,3.59V43.69a10.38,10.38,0,0,0-10.39-10.41h-.06a47,47,0,0,0-9.68,1.57A49.48,49.48,0,0,0,164.24,38a10.41,10.41,0,0,0-4.52,14.6L167,65.21a10.51,10.51,0,0,0-3.43-.58,10.39,10.39,0,0,0-9.86,7.08l-.05.14a18.68,18.68,0,0,0-4.28-2.79,20.07,20.07,0,0,0-8.57-1.93,19.46,19.46,0,0,0-6.33,1.05,11.16,11.16,0,0,0-11.18.69v-.94a11.16,11.16,0,1,0-22.31,0v4.66a20.26,20.26,0,0,0-13.68-5.22,20.54,20.54,0,0,0-12.39,4.29,11.15,11.15,0,0,0-5.49-3.76,11.39,11.39,0,0,0-3.33-.5,11.2,11.2,0,0,0-10.75,7.93l-.08.24-.9-1.85a11.17,11.17,0,0,0-15.05-5.18A11.26,11.26,0,0,0,34.15,83.6l10,20.4a10.66,10.66,0,0,0-6,7,10.85,10.85,0,0,0,1.64,9.48c1.56,2.12,4.63,4.67,10.36,4.81h.61c8,0,13.85-4,16.06-10.88l2.56-8.11.06.11c3.45,6.54,9.74,10.14,17.72,10.14s12.82-2.82,15.55-5.38a11.14,11.14,0,0,0,15.66,3.42v.95a11.15,11.15,0,0,0,22.28.79c2,0,8.93-.41,13.74-5.54l.07-.08a17.84,17.84,0,0,0,2.34-3,9.72,9.72,0,0,0,4.21,1,9.58,9.58,0,0,0,3.48-.64,10.28,10.28,0,0,0,2.05,1.85,33.67,33.67,0,0,0,13.42,5.44,11.11,11.11,0,0,0,1.73.14A10.36,10.36,0,0,0,192,106.6a10.35,10.35,0,0,0,8.18,4,10.48,10.48,0,0,0,6.63-2.38,34,34,0,0,0,8.91-11.42,10.4,10.4,0,0,0-5.13-14Zm-10.41,27.26a9.88,9.88,0,0,1-8.4-4.65l-.18-.29v.34a9.85,9.85,0,0,1-9.89,9.55,10,10,0,0,1-1.64-.13,33.26,33.26,0,0,1-13.23-5.35,10.36,10.36,0,0,1-2.18-2,9.14,9.14,0,0,1-8-.38,18.38,18.38,0,0,1-2.59,3.38c-4.72,5-11.54,5.37-13.38,5.37h-.47a10.65,10.65,0,0,1-21.29-.27v-1.95a10.64,10.64,0,0,1-16-3.24c-3.19,3.22-8.33,5.7-15.67,5.7-7.78,0-13.92-3.51-17.27-9.88-.22-.41-.42-.83-.61-1.25-1,3.34-2.07,6.58-2.95,9.33-2.14,6.69-7.81,10.53-15.57,10.53h-.6c-5.53-.13-8.47-2.58-10-4.6a10.56,10.56,0,0,1,4.63-15.94L34.6,83.37A10.75,10.75,0,0,1,39.55,69a10.67,10.67,0,0,1,14.38,4.94l1.46,3,.45-1.46a10.75,10.75,0,0,1,19-3.1,20.06,20.06,0,0,1,12.48-4.5,19.55,19.55,0,0,1,14.19,5.92V67.93a10.65,10.65,0,0,1,21.3,0v1.94a10.66,10.66,0,0,1,11.64-1.14,18.86,18.86,0,0,1,6.37-1.09,19.67,19.67,0,0,1,8.35,1.87,18,18,0,0,1,4.74,3.26c.09-.3.19-.6.29-.9a9.91,9.91,0,0,1,14-5.58l-8.06-14a9.88,9.88,0,0,1,4.3-13.88,48.55,48.55,0,0,1,8.4-3.09,45.93,45.93,0,0,1,9.54-1.55h.06a9.87,9.87,0,0,1,9.88,9.9V59.83a9.77,9.77,0,0,1,8.36-4.65h.05a9.91,9.91,0,0,1,6.53,2.47,32.61,32.61,0,0,1,8.41,11.56A9.91,9.91,0,0,1,209,82.77l.32.1a9.9,9.9,0,0,1,5.88,13.68,33.13,33.13,0,0,1-8.78,11.24A9.86,9.86,0,0,1,200.13,110.06Z" fill="#ccc" transform="matrix(1, 0, 0, 1, 0, 0)"/><path d="M115.92,105.33a3.76,3.76,0,0,1-7.52,0V67.93a3.76,3.76,0,1,1,7.52,0Z" fill="#050505" fill-rule="evenodd" transform="matrix(1, 0, 0, 1, 0, 0)"/><path d="M83.38,94.87H97.16a4,4,0,0,0,3.66-4.19h0c0-.07,0-.13,0-.19-.67-13.73-9.48-15.72-13.48-15.72S73.75,77.22,73.75,92.48c.07,5.74,1.3,16.71,13.37,16.71,10.43,0,12.76-6,12.76-7.56,0-2.27-1.89-4.19-4-3.46-1.73.58-4.1,4-7.92,4-5.47,0-6.18-5-6.18-6.07C81.76,95.25,82.22,94.91,83.38,94.87Zm-1.64-6.72c.25-5.19,4.19-6.05,6-6.05s5.73.87,5.94,6.14c0,.28-.15.44-.31.44H82.07C81.89,88.68,81.72,88.5,81.74,88.15Z" fill="#050505" transform="matrix(1, 0, 0, 1, 0, 0)"/><path d="M52.54,104.42,40.79,80.35A3.86,3.86,0,1,1,47.73,77l9.1,18.63,5.59-18.08A3.86,3.86,0,1,1,69.8,79.8s-6.29,20.57-10.07,32.39c-1.25,3.91-4.53,5.84-9.44,5.72s-5.61-3-5.07-4.87a3.77,3.77,0,0,1,4-2.69C53.63,110.37,54.19,107.71,52.54,104.42Z" fill="#050505" transform="matrix(1, 0, 0, 1, 0, 0)"/><path d="M161,97.37a2.09,2.09,0,1,1-2.11,2.1A2.08,2.08,0,0,1,161,97.37Zm0,3.87a1.79,1.79,0,1,0-1.77-1.77A1.76,1.76,0,0,0,161,101.24Zm-.78-3h.89c.58,0,.85.21.85.7a.62.62,0,0,1-.64.65l.7,1.07h-.37l-.66-1h-.43v1h-.34Zm.34,1.08h.41c.34,0,.66,0,.66-.4s-.29-.38-.55-.38h-.52Z" fill="#050505" transform="matrix(1, 0, 0, 1, 0, 0)"/><path d="M153.05,90.39c0-4.93-.6-11.69-6.83-14.65a12.25,12.25,0,0,0-11.17.28,20.46,20.46,0,0,0-1.92,1.25,3.75,3.75,0,0,0-7.4.89v37.41a3.76,3.76,0,0,0,7.51,0v-9.82a9.54,9.54,0,0,0,6.55,3.2C154.07,109.32,153.13,93.79,153.05,90.39Zm-7.44,2.85c0,3,0,8.31-5.41,8.31s-5.4-5.33-5.4-8.31V90.53c0-3,0-8.31,5.4-8.31s5.41,5.34,5.41,8.31Z" fill="#050505" transform="matrix(1, 0, 0, 1, 0, 0)"/><path d="M164.9,72.33,178,78.73a3,3,0,0,1-.59,5.63l-14.17,3.53a3,3,0,0,1-3.72-2.59,26,26,0,0,1,1.19-11.23A3,3,0,0,1,164.9,72.33Z" fill="#d32323" fill-rule="evenodd" transform="matrix(1, 0, 0, 1, 0, 0)"/><path d="M170.15,99.35l9.77-10.85a3,3,0,0,1,5.25,2.12l-.51,14.6a3,3,0,0,1-3.51,2.86,26.11,26.11,0,0,1-10.47-4.23A3,3,0,0,1,170.15,99.35Z" fill="#d32323" fill-rule="evenodd" transform="matrix(1, 0, 0, 1, 0, 0)"/><path d="M193.32,84.91l13.88,4.52A3,3,0,0,1,209,93.58a26.14,26.14,0,0,1-6.94,8.9,3,3,0,0,1-4.47-.72l-7.74-12.39A3,3,0,0,1,193.32,84.91Z" fill="#d32323" fill-rule="evenodd" transform="matrix(1, 0, 0, 1, 0, 0)"/><path d="M207.44,76.05l-14,4a3,3,0,0,1-3.32-4.58l8.17-12.1a3,3,0,0,1,4.48-.58A25.93,25.93,0,0,1,209.37,72,3,3,0,0,1,207.44,76.05Z" fill="#d32323" fill-rule="evenodd" transform="matrix(1, 0, 0, 1, 0, 0)"/><path d="M174.64,42a42,42,0,0,0-7.22,2.66,3,3,0,0,0-1.3,4.22l13.72,23.76a3,3,0,0,0,5.62-1.5V43.69a3,3,0,0,0-3.24-3A41.05,41.05,0,0,0,174.64,42Z" fill="#d32323" fill-rule="evenodd" transform="matrix(1, 0, 0, 1, 0, 0)"/></svg>